<svg width="280" height="263" viewBox="0 0 280 263" fill="none" xmlns="http://www.w3.org/2000/svg">
<path d="M280 250.446H256.667V250.622H280V250.446Z" fill="#EBEBEB"/>
<path d="M155.527 248.241H146.446V248.417H155.527V248.241Z" fill="#EBEBEB"/>
<path d="M209.387 248.988H190.267V249.164H209.387V248.988Z" fill="#EBEBEB"/>
<path d="M255.962 243.908H216.432V244.084H255.962V243.908Z" fill="#EBEBEB"/>
<path d="M18.6906 252.059H0V252.235H18.6906V252.059Z" fill="#EBEBEB"/>
<path d="M41.1645 252.059H24.9608V252.235H41.1645V252.059Z" fill="#EBEBEB"/>
<path d="M98.1731 248.157H55.3319V248.333H98.1731V248.157Z" fill="#EBEBEB"/>
<path d="M115.032 65.463C115.25 65.2235 117.491 62.9338 116.659 61.546C115.955 63.0043 114.602 65.2164 110.46 65.5828C110.921 64.3258 111.16 62.9978 111.164 61.6587C110.491 63.1854 109.473 64.5357 108.191 65.6039C105.623 65.4124 103.087 64.9109 100.639 64.1104C90.198 65.0685 89.9444 56.8469 89.8599 55.0152C89.5894 56.2406 89.4687 57.4945 89.5006 58.7491C87.2461 55.1701 87.6054 49.7384 90.5785 48.7239C91.1209 37.1699 99.4694 36.1413 101.569 35.6834C105.359 34.8521 111.974 31.6748 115.25 38.5015C119.851 40.9743 121.591 46.7865 119.625 55.6492C123.571 61.9968 115.448 65.301 115.032 65.463Z" fill="#293B1A"/>
<path d="M99.9907 262.944C105.444 262.944 106.162 262.859 109.227 262.754C111.848 262.662 112.475 262.986 114.588 262.944C116.349 262.902 116.279 261.218 115.736 259.281C115.469 258.308 115.032 256.244 114.673 254.673L106.388 255.54C105.735 256.705 104.808 257.694 103.687 258.42C102.567 259.147 101.286 259.59 99.9554 259.71C97.0176 260.105 97.8208 262.944 99.9907 262.944Z" fill="#293B1A"/>
<path d="M95.5243 243.211C98.7509 238.934 99.5681 237.293 101.308 234.827C102.795 232.714 103.084 233.242 104.669 231.157C105.711 229.748 104.746 227.817 103.26 227.387C101.866 227.107 100.5 226.699 99.1807 226.169L93.7418 230.177C94.7352 232.749 94.8479 238.631 92.6146 242.048C91.0013 244.5 94.2209 244.923 95.5243 243.211Z" fill="#293B1A"/>
<path d="M74.9948 112.489C74.9948 112.489 59.3266 157.282 57.2976 173.676C55.3179 189.71 94.1504 231.403 94.1504 231.403C95.0874 232.108 98.9763 227.275 99.1947 226.007C99.1947 226.007 83.7801 192.049 73.0433 174.19C96.2921 139.746 100.329 116.505 100.329 116.505L74.9948 112.489Z" fill="#635948"/>
<path d="M82.5895 113.694C82.5895 113.694 91.3465 158.782 94.6859 180.509C98.2084 203.307 107.268 240.632 106.388 255.54C107.663 256.286 112.355 255.025 114.842 254.236C114.842 254.236 121.288 205.336 110.171 182.764C117.364 130.01 104.035 117.097 104.035 117.097L82.5895 113.694Z" fill="#635948"/>
<path d="M105.761 249.023C105.761 250.361 105.669 252.693 105.472 254.476C105.401 255.117 105.648 255.716 106.007 255.821C109.037 256.681 113.426 255.427 114.821 254.983C115.088 254.898 115.286 254.525 115.328 254.046L115.779 248.945C115.842 248.241 115.539 247.614 115.138 247.628L106.388 247.931C106.057 247.945 105.775 248.417 105.761 249.023Z" fill="#293B1A"/>
<path d="M89.3667 226.613C90.2121 227.761 91.7056 229.804 92.7835 231.347C93.1428 231.854 93.6712 232.122 93.9953 231.974C96.4259 230.847 99.3214 227.747 100.258 226.746C100.442 226.542 100.399 226.126 100.153 225.718L97.4897 221.315C97.1304 220.716 96.4822 220.364 96.1511 220.61L89.2258 225.401C88.944 225.584 89.0003 226.148 89.3667 226.613Z" fill="#293B1A"/>
<path d="M84.9566 78.9894C84.71 78.6301 84.5691 78.4047 84.393 78.1229L83.9069 77.3198C83.5969 76.7914 83.308 76.2559 83.0262 75.7205C82.4626 74.6497 81.9366 73.5671 81.4481 72.4727C80.4714 70.2737 79.6498 68.0091 78.9894 65.6954C78.3151 63.3712 77.8158 60.9997 77.4959 58.6009C77.3197 57.3962 77.2211 56.1845 77.1506 54.9657C77.1506 54.3528 77.0943 53.7469 77.1013 53.134V52.2181C77.1013 51.8236 77.1013 51.3938 77.1647 51.0345C77.3018 49.7083 77.5588 48.3972 77.9326 47.1174C78.2638 45.9198 78.6372 44.7926 79.0458 43.6865C79.856 41.4743 80.7718 39.3678 81.7299 37.2966C83.6594 33.1809 85.8283 29.1819 88.2255 25.3199C88.5165 24.8604 88.966 24.5237 89.4889 24.3738C90.0117 24.2239 90.5714 24.2712 91.0616 24.5068C91.5519 24.7423 91.9385 25.1497 92.1482 25.6516C92.3579 26.1535 92.3759 26.7148 92.1989 27.2291V27.2714C90.7265 31.3998 89.2752 35.5846 87.9367 39.706C87.2744 41.7773 86.6474 43.8415 86.1331 45.8705C85.8725 46.8779 85.6329 47.8854 85.4286 48.8576C85.2598 49.7315 85.1586 50.6171 85.1257 51.5065C85.1257 51.6968 85.1257 51.8236 85.1257 51.9856L85.1891 52.7394C85.2243 53.2326 85.2948 53.7328 85.3441 54.233C85.492 55.2263 85.6329 56.2197 85.8372 57.206C86.2344 59.1925 86.7544 61.1525 87.3942 63.0746C88.0364 65.0106 88.7819 66.9108 89.6275 68.767C90.0431 69.704 90.487 70.6199 90.952 71.5146L91.6565 72.832L92.0158 73.4731L92.3398 74.0156L92.4596 74.2129C93.024 75.2105 93.1826 76.3872 92.9024 77.4987C92.6223 78.6102 91.9249 79.5711 90.955 80.1821C89.9851 80.793 88.8173 81.007 87.6938 80.7797C86.5703 80.5524 85.5775 79.9012 84.9214 78.9613L84.9566 78.9894Z" fill="#D4928B"/>
<path d="M96.116 23.3685C96.0182 24.4008 95.5443 25.3611 94.7845 26.0668L91.2972 29.075C91.0595 29.2849 90.7628 29.4165 90.4477 29.4518C90.1325 29.4871 89.8142 29.4244 89.5359 29.2723L87.6267 28.286C87.527 25.5587 88.1363 22.8522 89.395 20.4307L90.2545 17.1125C90.2697 16.9893 90.3138 16.8714 90.3832 16.7684C90.4525 16.6654 90.5452 16.5803 90.6537 16.5199C90.7621 16.4595 90.8833 16.4255 91.0074 16.4207C91.1314 16.416 91.2549 16.4406 91.3676 16.4925L95.9258 18.8667C96.144 19.0032 96.3171 19.201 96.4236 19.4352C96.5301 19.6695 96.5652 19.93 96.5246 20.1841L96.116 23.3685Z" fill="#D4928B"/>
<path d="M87.3943 84.4565C98.9342 80.5464 93.432 72.1205 90.311 64.1807C87.2816 61.884 78.3343 71.3314 78.3343 71.3314C78.3343 71.3314 76.0588 83.5829 87.3943 84.4565Z" fill="#293B1A"/>
<path d="M78.7638 78.0102C77.8989 82.4179 77.2593 86.8668 76.8475 91.3396C76.143 97.1518 75.6569 102.894 74.9947 112.475L104.063 117.082C104.767 108.797 107.205 99.6175 115.335 82.0189C115.794 81.1042 116.044 80.0983 116.064 79.0749C116.085 78.0514 115.877 77.0363 115.455 76.1037C115.033 75.1711 114.407 74.3447 113.625 73.6848C112.842 73.0249 111.922 72.5482 110.932 72.2896C109.797 71.9937 108.593 71.7049 107.346 71.4442C103.003 70.4275 98.5933 69.7212 94.1503 69.3307C92.692 69.2391 91.1773 69.1827 89.726 69.1546C87.1552 69.13 84.6558 69.9999 82.656 71.6155C80.6561 73.2311 79.2802 75.4917 78.7638 78.0102Z" fill="#293B1A"/>
<path d="M108.783 56.4524C106.958 60.5174 104.316 68.0698 106.627 71.3457C106.627 71.3457 102.703 70.0987 93.3261 74.0299C91.4098 70.0917 93.4318 69.2533 93.4318 69.2533C98.4267 68.887 99.1242 65.3926 99.0678 62.0039L108.783 56.4524Z" fill="#D4928B"/>
<path d="M95.2847 73.269C98.0394 74.1145 98.2437 78.5035 98.2437 78.5035C98.2437 78.5035 105.761 74.7908 108.431 71.7614C107.658 71.1473 106.917 70.4936 106.212 69.8029C106.212 69.8029 97.1869 71.86 95.2847 73.269Z" fill="white"/>
<path d="M92.671 72.3743C92.671 72.3743 90.1348 72.649 88.7187 75.8968C89.0569 69.5985 92.1144 69.0067 92.1144 69.0067C92.951 68.6843 93.8775 68.6843 94.7141 69.0067C94.0304 69.236 93.4502 69.7001 93.0762 70.3166C92.7022 70.933 92.5586 71.662 92.671 72.3743Z" fill="white"/>
<path opacity="0.2" d="M104.817 58.7139L99.0679 61.9969C99.0946 62.793 99.0498 63.59 98.934 64.3781C100.801 64.3781 103.753 62.8353 104.387 60.9965C104.668 60.2682 104.814 59.4946 104.817 58.7139Z" fill="black"/>
<path d="M113.757 48.4982C111.383 55.1558 110.516 58.0091 106.085 60.6792C99.4132 64.6949 91.7411 60.7989 92.0793 53.6834C92.3752 47.2864 96.2077 37.4797 103.633 36.3313C110.988 35.2252 116.131 41.8476 113.757 48.4982Z" fill="#D4928B"/>
<path d="M111.911 39.1637C108.318 41.3195 108.438 52.9157 114.412 52.0703C119.949 45.3634 115.765 37.1136 111.911 39.1637Z" fill="#293B1A"/>
<path d="M115.258 38.438C111.108 44.9547 95.4256 39.3116 91.7269 36.2047C94.39 37.0008 98.8777 36.3033 102.118 35.5002C105.359 34.697 114.342 30.47 115.258 38.438Z" fill="#293B1A"/>
<path d="M94.39 34.9297C98.8598 36.0616 103.555 35.9373 107.959 34.5704L112.7 34.1829C109.241 31.9003 99.857 34.8381 94.39 34.9297Z" fill="#293B1A"/>
<path d="M104.817 48.2589C104.64 48.8225 104.204 49.21 103.837 49.1254C103.471 49.0409 103.309 48.5125 103.485 47.9418C103.661 47.3712 104.105 46.9837 104.471 47.0753C104.838 47.1669 104.993 47.6882 104.817 48.2589Z" fill="#293B1A"/>
<path d="M97.7223 46.3567C97.5461 46.9274 97.1023 47.3149 96.736 47.2303C96.3696 47.1458 96.2146 46.6104 96.3908 46.0467C96.5669 45.4831 97.0037 45.0886 97.37 45.1732C97.7364 45.2577 97.8914 45.7931 97.7223 46.3567Z" fill="#293B1A"/>
<path d="M97.5249 45.2436L96.2991 44.5391C96.2991 44.5391 96.6584 45.7931 97.5249 45.2436Z" fill="#293B1A"/>
<path d="M99.5188 48.1179C98.614 49.2938 97.5656 50.3518 96.3978 51.2671C96.898 52.1336 98.3071 52.1336 98.3071 52.1336L99.5188 48.1179Z" fill="#CB6765"/>
<path d="M100.865 54.9516C100.539 54.9358 100.216 54.891 99.8994 54.8177C99.8775 54.8122 99.8571 54.8021 99.8393 54.7882C99.8216 54.7743 99.807 54.7569 99.7963 54.737C99.7857 54.7171 99.7794 54.6952 99.7777 54.6727C99.7761 54.6502 99.7791 54.6276 99.7867 54.6064C99.7998 54.5628 99.8287 54.5256 99.8678 54.5021C99.9069 54.4787 99.9533 54.4706 99.998 54.4796C100.716 54.6512 101.464 54.6592 102.186 54.5031C102.908 54.3471 103.585 54.0308 104.169 53.5778C104.202 53.5455 104.246 53.5275 104.292 53.5275C104.338 53.5275 104.382 53.5455 104.415 53.5778C104.431 53.5935 104.444 53.6122 104.452 53.6327C104.461 53.6533 104.465 53.6753 104.465 53.6976C104.465 53.7198 104.461 53.7419 104.452 53.7624C104.444 53.783 104.431 53.8016 104.415 53.8173C103.412 54.6195 102.147 55.0233 100.865 54.9516Z" fill="#293B1A"/>
<path d="M114.257 54.9517C113.791 55.5308 113.215 56.0119 112.562 56.3674C111.909 56.7229 111.192 56.9457 110.453 57.023C108.536 57.185 108.057 55.2476 108.98 53.5004C109.819 51.9364 111.798 49.9779 113.545 50.6119C115.293 51.246 115.455 53.4511 114.257 54.9517Z" fill="#D4928B"/>
<path d="M107.536 44.0953C107.491 44.0895 107.449 44.0738 107.411 44.0495C107.373 44.0251 107.341 43.9926 107.318 43.9544C107.095 43.5925 106.785 43.2929 106.415 43.0835C106.045 42.8741 105.629 42.7616 105.204 42.7567C105.16 42.7577 105.116 42.7498 105.075 42.7336C105.034 42.7174 104.997 42.6931 104.965 42.6623C104.934 42.6314 104.909 42.5946 104.892 42.554C104.875 42.5133 104.866 42.4697 104.866 42.4256C104.871 42.3327 104.911 42.245 104.977 42.1799C105.044 42.1147 105.132 42.0767 105.225 42.0734C105.757 42.0765 106.28 42.2145 106.745 42.4744C107.209 42.7344 107.6 43.1078 107.881 43.5599C107.926 43.6399 107.939 43.7342 107.917 43.8232C107.894 43.9123 107.839 43.9895 107.761 44.0389C107.694 44.0817 107.615 44.1015 107.536 44.0953Z" fill="#293B1A"/>
<path d="M96.2922 42.6227C96.2498 42.623 96.2078 42.6143 96.169 42.5973C96.1302 42.5804 96.0953 42.5554 96.0667 42.5241C96.0026 42.4595 95.9667 42.3721 95.9667 42.281C95.9667 42.19 96.0026 42.1026 96.0667 42.038C96.4603 41.6428 96.9394 41.3432 97.4671 41.1624C97.9948 40.9816 98.557 40.9245 99.1102 40.9953C99.1533 41.0042 99.194 41.022 99.2299 41.0475C99.2657 41.073 99.2958 41.1056 99.3184 41.1434C99.3409 41.1812 99.3553 41.2232 99.3607 41.2668C99.3661 41.3105 99.3624 41.3548 99.3497 41.3969C99.3249 41.4859 99.268 41.5626 99.1899 41.612C99.1118 41.6615 99.0181 41.6802 98.9271 41.6646C98.4881 41.6145 98.0436 41.6653 97.6273 41.813C97.211 41.9607 96.8338 42.2015 96.5247 42.5171C96.4613 42.5775 96.3794 42.6148 96.2922 42.6227Z" fill="#293B1A"/>
<path d="M104.647 47.1458L103.422 46.4413C103.422 46.4413 103.76 47.6601 104.647 47.1458Z" fill="#293B1A"/>
<path d="M96.271 115.603L97.7223 113.961C97.9923 113.656 98.3313 113.419 98.7111 113.271C99.091 113.123 99.5007 113.067 99.9063 113.109L103.746 113.517C104.502 113.595 105.228 113.852 105.863 114.269C106.498 114.686 107.024 115.25 107.395 115.913L107.867 116.744C105.641 119.64 101.104 121.126 101.104 121.126L99.8569 121.697C99.6062 121.816 99.3345 121.885 99.0571 121.9C98.7798 121.914 98.5023 121.874 98.2406 121.781C97.9789 121.688 97.738 121.544 97.5319 121.358C97.3257 121.172 97.1582 120.947 97.0389 120.696L95.8765 118.245C95.6815 117.813 95.615 117.334 95.685 116.866C95.755 116.397 95.9584 115.959 96.271 115.603Z" fill="#D4928B"/>
<path d="M118.033 81.406C118.273 81.9696 118.456 82.4275 118.653 82.9277C118.851 83.4279 119.013 83.914 119.189 84.4072C119.534 85.3935 119.893 86.3798 120.168 87.3732C120.767 89.3599 121.288 91.3818 121.711 93.4319C122.146 95.5027 122.466 97.5959 122.669 99.7021C122.876 101.865 122.928 104.041 122.824 106.212V106.437C122.813 106.647 122.78 106.855 122.725 107.057C122.362 108.358 121.712 109.562 120.823 110.58C120.126 111.387 119.342 112.115 118.484 112.75C117.006 113.825 115.41 114.73 113.729 115.448C112.171 116.128 110.571 116.704 108.938 117.174C107.32 117.649 105.672 118.021 104.007 118.287C103.485 118.375 102.949 118.274 102.495 118.002C102.041 117.73 101.699 117.306 101.529 116.805C101.36 116.304 101.374 115.759 101.57 115.268C101.766 114.776 102.13 114.371 102.598 114.123L102.696 114.067C104 113.363 105.394 112.658 106.698 111.897C108.001 111.136 109.29 110.375 110.481 109.558C111.609 108.815 112.666 107.968 113.637 107.029C114.013 106.666 114.344 106.259 114.624 105.817C114.835 105.458 114.891 105.204 114.849 105.176L114.743 106.022C114.656 104.249 114.472 102.483 114.194 100.731C113.884 98.9412 113.489 97.1518 113.067 95.3553C112.644 93.5588 112.101 91.7693 111.545 89.9869C111.27 89.0992 110.981 88.2115 110.671 87.3309L110.206 86.0275L109.762 84.7947L109.699 84.6256C109.272 83.5204 109.302 82.2908 109.781 81.2074C110.261 80.124 111.151 79.2755 112.256 78.8486C113.362 78.4216 114.591 78.4512 115.675 78.9308C116.758 79.4104 117.606 80.3008 118.033 81.406Z" fill="#D4928B"/>
<path d="M110.41 72.17C115.187 73.0014 117.096 75.6926 120.83 85.3796C118.984 88.9374 110.601 92.2133 110.601 92.2133C110.601 92.2133 106.324 78.5036 110.41 72.17Z" fill="#293B1A"/>
<path d="M215.883 250.453L222.611 248.607L218.933 232.826L212.205 234.672L215.883 250.453Z" fill="#F4AFA6"/>
<path d="M221.688 245.803L214.305 247.698C214.172 247.731 214.055 247.81 213.975 247.921C213.895 248.032 213.857 248.168 213.868 248.304L214.375 254.589C214.389 254.744 214.436 254.895 214.513 255.03C214.591 255.165 214.697 255.282 214.825 255.372C214.952 255.462 215.098 255.523 215.252 255.55C215.405 255.578 215.563 255.572 215.714 255.533C218.363 254.828 222.167 253.659 225.514 252.799C229.431 251.792 229.078 252.045 233.665 250.869C236.44 250.164 236.349 247.184 235.109 247.233C229.473 247.445 228.909 247.522 223.477 245.909C222.901 245.713 222.283 245.677 221.688 245.803Z" fill="#293B1A"/>
<path opacity="0.2" d="M218.933 232.826L220.829 240.963L214.1 242.809L212.205 234.672L218.933 232.826Z" fill="black"/>
<path d="M223.005 246.12C222.975 246.119 222.946 246.108 222.922 246.089C222.898 246.07 222.88 246.044 222.872 246.015C222.86 245.983 222.858 245.948 222.867 245.915C222.876 245.882 222.894 245.853 222.921 245.832C223.196 245.592 225.633 243.493 226.549 243.718C226.636 243.741 226.714 243.788 226.776 243.852C226.838 243.917 226.881 243.997 226.901 244.084C226.947 244.229 226.959 244.383 226.936 244.533C226.913 244.684 226.855 244.827 226.768 244.951C226.155 245.803 224.161 246.036 223.027 246.092L223.005 246.12ZM226.387 244.056C225.845 244.014 224.485 244.958 223.513 245.754C225.063 245.62 226.162 245.268 226.5 244.789C226.558 244.707 226.597 244.613 226.613 244.514C226.629 244.415 226.621 244.314 226.591 244.218C226.584 244.183 226.566 244.151 226.542 244.125C226.517 244.099 226.485 244.08 226.451 244.07L226.387 244.056Z" fill="#635948"/>
<path d="M223.005 246.12C222.981 246.107 222.96 246.087 222.944 246.064C222.928 246.041 222.918 246.014 222.914 245.987C222.914 245.909 222.71 244.014 223.421 243.077C223.621 242.807 223.92 242.627 224.252 242.577C224.703 242.506 224.879 242.697 224.957 242.873C225.239 243.577 223.928 245.515 223.182 246.092C223.162 246.119 223.132 246.137 223.099 246.143C223.066 246.148 223.033 246.14 223.005 246.12ZM224.415 242.887H224.245C223.999 242.927 223.778 243.064 223.633 243.267C223.253 243.985 223.094 244.798 223.175 245.606C223.879 244.902 224.767 243.436 224.584 242.992C224.605 242.971 224.584 242.901 224.415 242.887Z" fill="#635948"/>
<path d="M192.916 171.273C177.713 137.915 166.814 124.283 166.567 106.304L190.788 101.872C190.788 101.872 209.627 147.602 211.614 168.526C213.678 190.281 221.85 235.905 221.85 235.905L210.803 238.019C210.803 238.019 193.458 195.91 192.916 171.273Z" fill="#293B1A"/>
<path opacity="0.2" d="M168.857 120.006C171.639 128.96 176.804 138.429 183.503 151.709C182.32 136.132 177.297 117.97 168.857 120.006Z" fill="black"/>
<path d="M222.829 232.671L223.097 237.567L211.149 240.787L209.563 236.49L222.829 232.671Z" fill="#293B1A"/>
<path d="M157.514 240.907L156.965 257.111L164.714 256.998L165.264 240.794L157.514 240.907Z" fill="#F4AFA6"/>
<path d="M164.531 254.885L156.915 255.004C156.782 255.005 156.654 255.055 156.555 255.145C156.456 255.235 156.394 255.358 156.38 255.49L155.718 261.725C155.705 261.882 155.725 262.04 155.777 262.189C155.829 262.338 155.911 262.475 156.018 262.59C156.125 262.705 156.256 262.797 156.4 262.859C156.545 262.921 156.701 262.953 156.859 262.951C159.607 262.86 160.466 262.634 163.904 262.585C167.941 262.521 166.081 262.683 170.815 262.585C173.676 262.535 174.134 259.64 172.929 259.379C169.047 258.569 167.997 257.026 166.285 255.378C165.784 254.998 165.157 254.822 164.531 254.885Z" fill="#293B1A"/>
<path opacity="0.2" d="M157.514 240.907L157.225 249.262L164.982 249.15L165.264 240.801L157.514 240.907Z" fill="black"/>
<path d="M163.122 255.413C163.092 255.415 163.062 255.408 163.036 255.393C163.009 255.378 162.988 255.355 162.974 255.328C162.954 255.301 162.943 255.267 162.943 255.233C162.943 255.199 162.954 255.166 162.974 255.138C163.214 254.87 165.32 252.538 166.286 252.679C166.376 252.69 166.462 252.724 166.535 252.779C166.608 252.833 166.665 252.906 166.701 252.989C166.771 253.122 166.807 253.269 166.807 253.419C166.807 253.569 166.771 253.716 166.701 253.849C166.229 254.758 164.257 255.223 163.129 255.413H163.122ZM166.194 253.003C165.637 253.003 164.426 254.109 163.58 254.997C165.109 254.68 166.159 254.208 166.398 253.701C166.445 253.613 166.47 253.515 166.47 253.415C166.47 253.316 166.445 253.218 166.398 253.13C166.386 253.096 166.364 253.066 166.335 253.044C166.306 253.022 166.272 253.007 166.236 253.003H166.194Z" fill="#635948"/>
<path d="M163.122 255.413C163.093 255.405 163.067 255.39 163.046 255.369C163.025 255.348 163.01 255.322 163.002 255.293C163.002 255.215 162.481 253.391 163.052 252.397C163.129 252.251 163.236 252.122 163.365 252.018C163.495 251.915 163.645 251.84 163.806 251.799C164.249 251.679 164.454 251.848 164.545 252.01C164.947 252.714 163.932 254.708 163.277 255.363C163.26 255.387 163.235 255.404 163.208 255.413C163.18 255.422 163.15 255.422 163.122 255.413ZM164.017 252.094C163.961 252.086 163.904 252.086 163.848 252.094C163.73 252.124 163.62 252.178 163.526 252.253C163.431 252.329 163.353 252.423 163.298 252.531C163.027 253.283 162.995 254.1 163.207 254.87C163.827 254.081 164.461 252.567 164.214 252.151C164.228 252.151 164.193 252.087 164.045 252.094H164.017Z" fill="#635948"/>
<path d="M157.613 176.761C155.415 151.78 149.307 127.298 151.343 108.882L176.705 104.655C176.705 104.655 180.354 156.288 177.572 177.572C174.683 199.7 167.166 244.155 167.166 244.155L155.894 244.31C155.894 244.31 154.626 201.208 157.613 176.761Z" fill="#293B1A"/>
<path d="M168.772 241.625L168.04 246.444L155.408 246.67L154.696 242.111L168.772 241.625Z" fill="#293B1A"/>
<path d="M173.803 38.748C175.916 39.3961 178.22 40.0795 180.439 40.7135C182.658 41.3476 184.913 41.9464 187.132 42.51C189.351 43.0736 191.577 43.5527 193.74 43.919C194.818 44.1093 195.889 44.2431 196.918 44.3629C197.853 44.4702 198.794 44.5126 199.736 44.4897L197.523 45.2928C197.344 45.4289 197.209 45.6153 197.136 45.8283C197.136 45.9269 197.192 45.8283 197.249 45.624C197.369 44.8726 197.369 44.1068 197.249 43.3554C196.944 41.2448 196.444 39.167 195.755 37.1487C195.051 34.9929 194.24 32.816 193.374 30.6461C192.507 28.4762 191.549 26.2711 190.633 24.1505L190.598 24.073C190.348 23.4853 190.319 22.8269 190.517 22.2195C190.715 21.6122 191.126 21.0971 191.674 20.7696C192.223 20.442 192.871 20.3243 193.5 20.4382C194.128 20.552 194.694 20.8898 195.093 21.3888C196.636 23.362 198.077 25.4124 199.411 27.5322C200.77 29.6683 202.012 31.8767 203.131 34.1475C203.695 35.3029 204.216 36.5006 204.709 37.7475C205.228 39.0407 205.647 40.3713 205.963 41.728C206.367 43.3389 206.521 45.002 206.421 46.6596C206.338 47.7895 206.057 48.896 205.59 49.9285C204.992 51.2332 204.061 52.358 202.892 53.1904C202.29 53.6157 201.594 53.8867 200.863 53.9794H200.673C197.901 54.2756 195.104 54.252 192.338 53.909C189.753 53.6342 187.252 53.2045 184.793 52.7043C182.334 52.2041 179.925 51.6123 177.529 50.9641C175.134 50.316 172.816 49.6044 170.386 48.7449C169.203 48.2001 168.262 47.2388 167.743 46.0446C167.224 44.8504 167.163 43.5068 167.572 42.2705C167.981 41.0341 168.83 39.9915 169.959 39.3418C171.087 38.6921 172.415 38.4807 173.69 38.748H173.803Z" fill="#F4AFA6"/>
<path d="M191.859 25.8414L186.272 21.0155L193.578 16.718C193.578 16.718 198.679 21.6496 196.03 24.7494L191.859 25.8414Z" fill="#F4AFA6"/>
<path d="M185.145 15.6682L188.372 13.6392C188.768 13.3868 189.24 13.2797 189.706 13.3363C190.173 13.3928 190.605 13.6094 190.929 13.9492L193.578 16.7179L186.273 21.0154L184.561 18.5496C184.405 18.3236 184.296 18.0686 184.242 17.7997C184.187 17.5308 184.187 17.2537 184.241 16.9848C184.296 16.7158 184.404 16.4607 184.559 16.2345C184.715 16.0083 184.914 15.8157 185.145 15.6682Z" fill="#F4AFA6"/>
<path d="M169.244 36.5289C176.078 35.5003 187.216 41.862 187.216 41.862L184.779 57.016C184.779 57.016 179.601 56.6215 172.802 53.1906C170.738 52.1338 161.164 37.7548 169.244 36.5289Z" fill="#635948"/>
<path d="M170.033 36.4513C162.495 37.1558 150.955 39.8329 143.354 42.9046C141.38 43.6927 139.708 45.0895 138.582 46.8923C137.455 48.6951 136.933 50.8099 137.091 52.9298C137.866 63.0324 143.6 79.1586 150.899 109.368C154.689 110.15 165.468 108.931 173.979 107.402C174.902 107.24 176.952 104.81 176.952 104.81C176.952 104.81 179.199 106.374 180.369 106.106C186.005 104.824 190.394 103.359 191.324 102.133C188.449 95.2708 186.026 75.1288 183.764 63.0747C183.215 58.2911 181.771 49.5129 179.403 44.6588C177.163 40.0654 175.099 35.9299 170.033 36.4513Z" fill="#635948"/>
<path d="M151.519 27.0178C152.421 32.1819 153.231 38.2407 150.624 42.1648C153.012 45.173 158.184 47.2725 163.221 48.1179C166.074 44.1022 165.391 40.5514 163.806 38.5929C160.755 36.7753 160.945 33.6191 160.882 31.4421L151.519 27.0178Z" fill="#F4AFA6"/>
<path d="M163.221 48.1181C163.792 47.2027 164.127 46.159 164.193 45.0817C164.193 43.5106 167.011 44.3278 167.011 44.3278C166.092 45.8946 164.787 47.1997 163.221 48.1181Z" fill="#293B1A"/>
<path d="M163.221 48.118C163.02 47.57 162.657 47.0963 162.18 46.7602C161.703 46.4241 161.134 46.2415 160.551 46.237C159.174 46.166 157.799 46.4069 156.528 46.9415C156.528 46.9415 160.537 48.4069 163.221 48.118Z" fill="#293B1A"/>
<path opacity="0.2" d="M153.752 28.9695C153.689 28.6454 153.64 28.3143 153.59 27.9902L160.882 31.4494C160.811 32.9616 161.011 34.4744 161.474 35.916C158.085 34.9226 154.365 32.0834 153.752 28.9695Z" fill="black"/>
<path d="M160.198 7.2774C164.426 6.57289 167.377 11.5045 163.721 18.4861C161.213 17.2885 159.135 13.2657 159.135 13.2657L160.198 7.2774Z" fill="#4E473B"/>
<path d="M147.391 20.4307C150.293 26.715 151.674 30.5475 156.211 32.5554C163.038 35.5777 169.822 29.4485 168.85 22.4034C167.969 16.0628 163.369 6.8478 156.077 6.80553C154.462 6.79417 152.871 7.19289 151.453 7.96435C150.034 8.73581 148.835 9.85475 147.967 11.2163C147.098 12.5779 146.59 14.1376 146.49 15.7492C146.389 17.3608 146.699 18.9717 147.391 20.4307Z" fill="#F4AFA6"/>
<path d="M166.468 23.7207C166.468 23.7207 164.306 23.7207 158.634 25.017C159.797 26.5881 161.452 27.7082 164.341 27.0108C164.71 26.9611 165.064 26.8321 165.378 26.6327C165.692 26.4333 165.96 26.1681 166.162 25.8555C166.364 25.5429 166.496 25.1902 166.549 24.8217C166.602 24.4532 166.574 24.0776 166.468 23.7207Z" fill="#293B1A"/>
<path d="M162.601 25.9683C163.72 25.6462 164.913 25.6831 166.011 26.074C165.576 26.5622 164.991 26.8918 164.348 27.0109C163.231 27.3368 162.04 27.2998 160.945 26.9053C161.375 26.415 161.959 26.0847 162.601 25.9683Z" fill="#F08886"/>
<path d="M166.194 23.7278C166.202 23.9474 166.146 24.1647 166.032 24.3526C165.918 24.5405 165.752 24.6907 165.553 24.7845C163.86 25.168 162.137 25.4037 160.403 25.4891C160.124 25.5275 159.839 25.4976 159.574 25.4019C159.309 25.3062 159.071 25.1475 158.881 24.9395C161.283 24.3455 163.728 23.9404 166.194 23.7278Z" fill="white"/>
<path opacity="0.2" d="M158.191 24.066C158.191 24.066 156.584 24.2844 157.162 25.4751C157.211 24.8903 158.191 24.066 158.191 24.066Z" fill="black"/>
<path d="M151.019 24.6578L153.886 24.1294C153.886 24.1294 151.907 18.5779 149.525 17.0843C150.934 15.7246 153.048 12.963 153.71 11.0467C154.293 9.47357 154.394 7.76269 154.001 6.13177C153.609 4.50085 152.74 3.02362 151.505 1.88806C151.23 3.33946 150.637 4.71193 149.768 5.90689C148.9 7.10185 147.777 8.08964 146.482 8.7993C143.713 10.2999 140.761 14.062 144.242 15.5485C140.494 17.7959 142.389 22.5443 151.019 24.6578Z" fill="#4E473B"/>
<path d="M152.794 12.6037C158.43 12.7446 162.326 6.9676 157.444 0C156.817 3.94525 151.371 6.34058 151.371 6.34058L152.794 12.6037Z" fill="#4E473B"/>
<path d="M157.782 10.335C161.41 11.2086 164.271 7.09427 161.551 0.831177C160.903 3.92397 157.254 5.05823 157.254 5.05823L157.782 10.335Z" fill="#4E473B"/>
<path opacity="0.2" d="M155.866 19.0218C154.876 18.8603 153.862 19.0985 153.048 19.6841C154.021 19.6467 154.978 19.4219 155.866 19.0218Z" fill="black"/>
<path opacity="0.2" d="M155.978 19.67C155.527 19.6927 155.085 19.8135 154.685 20.0239C154.285 20.2344 153.935 20.5296 153.661 20.8888C154.511 20.6523 155.301 20.2367 155.978 19.67Z" fill="black"/>
<path opacity="0.2" d="M164.863 15.4993C164.863 15.4993 165.384 14.5271 165.983 14.6468C165.698 15.0318 165.309 15.3275 164.863 15.4993Z" fill="black"/>
<path opacity="0.2" d="M164.989 15.957C164.989 15.957 165.546 15.2525 166.074 15.6893C165.762 15.9177 165.372 16.0138 164.989 15.957Z" fill="black"/>
<path d="M146.792 26.1514C147.273 26.8604 147.89 27.4669 148.607 27.9361C149.324 28.4052 150.127 28.7277 150.97 28.8849C153.238 29.3006 154.189 27.2223 153.4 25.1862C152.696 23.3545 150.653 20.9592 148.469 21.4383C146.285 21.9173 145.615 24.3761 146.792 26.1514Z" fill="#F4AFA6"/>
<path d="M156.916 19.0219C157.12 19.5432 157.564 19.8602 157.909 19.7264C158.254 19.5925 158.36 19.0219 158.155 18.5287C157.951 18.0355 157.507 17.6903 157.162 17.8242C156.817 17.958 156.711 18.4864 156.916 19.0219Z" fill="#293B1A"/>
<path d="M163.446 16.4149C163.65 16.9363 164.094 17.2533 164.44 17.1194C164.785 16.9856 164.89 16.4149 164.686 15.9218C164.482 15.4286 164.038 15.0834 163.7 15.2173C163.362 15.3511 163.242 15.8865 163.446 16.4149Z" fill="#293B1A"/>
<path d="M161.291 17.2958C161.291 17.2958 163.756 19.7545 165.666 20.6211C165.13 21.8751 163.411 22.178 163.411 22.178L161.291 17.2958Z" fill="#F08886"/>
<path d="M154.295 16.4292C154.24 16.447 154.181 16.447 154.126 16.4292C154.084 16.4179 154.044 16.3982 154.01 16.3713C153.976 16.3445 153.947 16.311 153.926 16.2728C153.905 16.2347 153.892 16.1927 153.888 16.1493C153.883 16.106 153.887 16.0622 153.9 16.0206C154.03 15.5098 154.28 15.0373 154.629 14.6427C154.978 14.248 155.417 13.9427 155.908 13.7521C155.949 13.739 155.992 13.734 156.034 13.7376C156.077 13.7411 156.118 13.753 156.156 13.7727C156.194 13.7923 156.228 13.8193 156.256 13.852C156.283 13.8848 156.304 13.9226 156.317 13.9634C156.343 14.0466 156.336 14.1369 156.297 14.2148C156.257 14.2926 156.188 14.3517 156.105 14.3791C155.719 14.5389 155.375 14.7873 155.103 15.1043C154.83 15.4212 154.635 15.7978 154.534 16.2038C154.516 16.2583 154.485 16.3075 154.443 16.3469C154.401 16.3862 154.35 16.4145 154.295 16.4292Z" fill="#293B1A"/>
<path d="M164.433 12.4416C164.383 12.4658 164.329 12.4784 164.274 12.4784C164.219 12.4784 164.165 12.4658 164.116 12.4416C163.758 12.2314 163.354 12.1108 162.94 12.0899C162.525 12.0691 162.112 12.1486 161.734 12.3218C161.658 12.362 161.568 12.3705 161.485 12.3455C161.402 12.3205 161.332 12.2639 161.29 12.188C161.25 12.1101 161.241 12.0196 161.266 11.9354C161.291 11.8513 161.348 11.7802 161.424 11.7371C161.898 11.5133 162.419 11.4074 162.943 11.4282C163.467 11.4491 163.978 11.5961 164.433 11.8568C164.471 11.8768 164.505 11.9043 164.532 11.9375C164.56 11.9708 164.58 12.0092 164.593 12.0506C164.605 12.0919 164.609 12.1354 164.605 12.1783C164.6 12.2213 164.587 12.2629 164.566 12.3007C164.533 12.3573 164.487 12.4055 164.433 12.4416Z" fill="#293B1A"/>
<path d="M146.63 53.8669C145.869 56.0721 145.023 58.2983 144.234 60.5175L141.797 67.161L139.366 73.7905C138.584 76.0026 137.781 78.2007 137.027 80.3917L136.992 77.5737C137.727 79.9416 138.648 82.2479 139.747 84.4708C140.874 86.8521 142.086 89.2615 143.354 91.6568C144.622 94.0522 145.911 96.4545 147.214 98.8569L151.146 106.085C151.462 106.655 151.556 107.322 151.409 107.957C151.262 108.592 150.885 109.15 150.35 109.524C149.816 109.897 149.162 110.059 148.515 109.978C147.868 109.897 147.274 109.58 146.848 109.086C144.981 106.973 143.241 104.796 141.522 102.584C139.803 100.372 138.147 98.1101 136.534 95.8064C134.921 93.5026 133.364 91.1284 131.905 88.6415C130.314 86.0598 128.972 83.3329 127.897 80.4974C127.612 79.713 127.571 78.8612 127.777 78.0527L127.869 77.7005C128.467 75.3263 129.087 72.9803 129.778 70.6554C130.468 68.3305 131.187 66.0268 131.891 63.7371C132.596 61.4475 133.399 59.1648 134.202 56.9034C135.005 54.6419 135.815 52.3875 136.724 50.133C137.214 48.8176 138.206 47.7506 139.482 47.1666C140.758 46.5826 142.214 46.5296 143.53 47.0191C144.845 47.5086 145.912 48.5007 146.496 49.777C147.08 51.0533 147.133 52.5093 146.644 53.8247L146.63 53.8669Z" fill="#F4AFA6"/>
<path d="M142.945 43.0879C135.372 45.7932 131.229 60.5879 131.229 60.5879L143.297 71.3387C143.297 71.3387 148.271 67.7739 149.286 60.2215C150.061 54.3952 150.638 40.3121 142.945 43.0879Z" fill="#635948"/>
<path d="M148.828 102.76L155.042 106.12L149.088 112.151C149.088 112.151 143.826 108.424 145.355 105.31L148.828 102.76Z" fill="#F4AFA6"/>
<path d="M157.197 113.137L154.753 114.898C154.281 115.238 153.704 115.399 153.124 115.352C152.545 115.306 152.001 115.055 151.589 114.645L149.088 112.151L155.041 106.12L157.726 109.678C157.921 109.939 158.062 110.236 158.142 110.552C158.221 110.868 158.237 111.196 158.187 111.518C158.138 111.841 158.025 112.15 157.855 112.427C157.685 112.705 157.462 112.947 157.197 113.137Z" fill="#F4AFA6"/>
<path d="M151.702 39.1216C152.026 40.6926 153.463 45.9412 160.551 46.2371C158.106 47.0332 157.528 51.69 157.528 51.69C157.528 51.69 150.237 47.0966 149.525 41.3478C149.736 39.8331 151.702 39.1216 151.702 39.1216Z" fill="white"/>
<path d="M161.826 36.3739C162.143 37.9097 164.531 40.4812 164.193 45.0816C166.652 44.3278 169.759 46.4061 169.759 46.4061C169.033 42.8733 167.324 39.6176 164.827 37.015C163.885 36.5849 162.861 36.366 161.826 36.3739Z" fill="white"/>
</svg>
