<svg width="77" height="215" viewBox="0 0 77 215" fill="none" xmlns="http://www.w3.org/2000/svg">
<path d="M61.2979 206.63L66.0653 204.475L62.6207 192.253L57.8533 194.401L61.2979 206.63Z" fill="#FDCFCA"/>
<path d="M21.9834 209.104H27.1671L27.4357 196.435H22.252L21.9834 209.104Z" fill="#FDCFCA"/>
<path d="M27.8721 208.473H21.5536C21.4504 208.474 21.3504 208.511 21.2699 208.579C21.1894 208.648 21.1332 208.743 21.1104 208.849L20.0898 213.712C20.0654 213.83 20.0668 213.953 20.0938 214.071C20.1208 214.189 20.1728 214.299 20.2459 214.392C20.3189 214.486 20.4111 214.56 20.5155 214.611C20.6199 214.661 20.7338 214.686 20.8486 214.683C22.863 214.683 24.3671 214.52 26.9254 214.52C28.4966 214.52 33.2506 214.69 35.4262 214.69C37.6017 214.69 37.8837 212.422 36.9974 212.216C32.9686 211.295 29.994 210.019 28.7115 208.806C28.4807 208.589 28.1814 208.47 27.8721 208.473Z" fill="#2A3C1A"/>
<path d="M65.951 203.723L60.8344 206.276C60.7423 206.324 60.6679 206.403 60.6229 206.5C60.5779 206.598 60.5649 206.708 60.586 206.814L61.6335 211.678C61.6583 211.795 61.7081 211.905 61.779 211.999C61.85 212.093 61.9403 212.169 62.0432 212.221C62.146 212.273 62.2587 212.3 62.3727 212.299C62.4867 212.298 62.599 212.27 62.7011 212.216C64.5342 211.266 67.1462 209.82 69.4695 208.672C72.1554 207.318 72.2628 207.318 75.4456 205.73C77.366 204.773 76.9833 202.454 76.1171 202.667C72.0883 203.653 71.3698 204.042 67.2805 203.56C66.8316 203.484 66.3714 203.54 65.951 203.723Z" fill="#2A3C1A"/>
<path d="M37.1921 35.5302L39.3207 36.0902C40.0593 36.2745 40.7912 36.4376 41.5231 36.5865C42.9325 36.8848 44.3557 37.1048 45.7869 37.2458C46.4144 37.3013 47.0446 37.3155 47.6737 37.2883C48.0878 37.277 48.4997 37.22 48.9025 37.1182C48.9898 37.1182 48.9831 37.1182 48.9025 37.1962C48.7797 37.3431 48.6901 37.5177 48.6407 37.7066C48.5937 37.9051 48.6407 37.9972 48.6407 37.9547C48.6658 37.8213 48.6658 37.684 48.6407 37.5506C48.3077 36.3166 47.791 35.1465 47.1097 34.084C46.3079 32.7582 45.4405 31.478 44.5111 30.2487C42.6042 27.7178 40.4823 25.1798 38.3537 22.7553L40.7845 19.5438C43.6524 21.4202 46.3498 23.5727 48.8421 25.9738C50.1389 27.2196 51.3484 28.563 52.4613 29.9934C53.7807 31.6205 54.8049 33.4902 55.4829 35.5089C55.6951 36.1985 55.8281 36.9126 55.8791 37.6357C55.9416 38.5717 55.8275 39.5114 55.5434 40.4005C55.2103 41.3947 54.6552 42.2896 53.9251 43.0094C53.3199 43.5997 52.6254 44.0789 51.8704 44.4272C50.7593 44.9289 49.5816 45.2469 48.3788 45.3701C47.3951 45.4758 46.4056 45.5089 45.4176 45.4694C43.6137 45.3941 41.818 45.1737 40.0458 44.81C39.1864 44.6399 38.3403 44.4414 37.501 44.2287C36.6616 44.0161 35.8626 43.7892 34.9427 43.5198L37.1921 35.5302Z" fill="#FDCFCA"/>
<path d="M30.0007 37.8338C32.6866 33.4526 47.2239 36.6782 47.2239 36.6782L48.0632 49.9352C44.1256 49.3205 40.1611 48.9159 36.1849 48.7229C32.0822 48.5315 26.6299 43.2784 30.0007 37.8338Z" fill="#2A3C1A"/>
<path d="M39.1529 23.2869L34.2847 20.5362L38.985 16.6229C39.648 17.0617 40.2156 17.6435 40.6507 18.3301C41.0858 19.0168 41.3785 19.7927 41.5097 20.6071L39.1529 23.2869Z" fill="#FDCFCA"/>
<path d="M31.317 17.6718L36.0642 14.5667L39.012 16.6226L34.2848 20.5358L31.317 17.6718Z" fill="#FDCFCA"/>
<path opacity="0.2" d="M62.6206 192.26L64.3933 198.555L59.6258 200.71L57.8464 194.408L62.6206 192.26Z" fill="black"/>
<path opacity="0.2" d="M22.2521 196.435H27.4359L27.2949 202.972H22.1111L22.2521 196.435Z" fill="black"/>
<path d="M17.8473 49.8077L11.5287 59.4279C11.1218 60.0384 10.8888 60.7592 10.8573 61.505L10.3604 74.2657C10.3249 75.2158 10.6158 76.1473 11.1796 76.8888L13.9259 80.4901C14.2998 80.9688 14.776 81.3469 15.3153 81.5934C15.8546 81.8399 16.4416 81.9477 17.0281 81.908L25.3341 81.4259C26.2848 81.3714 27.1793 80.9334 27.8328 80.2025C28.4864 79.4716 28.8491 78.5036 28.8459 77.4984L28.7721 51.8707C28.7714 51.3474 28.6714 50.8295 28.4781 50.3476C28.2849 49.8657 28.0022 49.4296 27.6467 49.0649C27.2913 48.7002 26.8703 48.4143 26.4085 48.2241C25.9467 48.0339 25.4536 47.9432 24.9581 47.9574L20.7816 48.0779C20.1982 48.1029 19.6286 48.2725 19.1189 48.573C18.6091 48.8735 18.1735 49.2965 17.8473 49.8077Z" fill="#746B5C"/>
<path opacity="0.3" d="M17.8473 49.8077L11.5287 59.4279C11.1218 60.0384 10.8888 60.7592 10.8573 61.505L10.3604 74.2657C10.3249 75.2158 10.6158 76.1473 11.1796 76.8888L13.9259 80.4901C14.2998 80.9688 14.776 81.3469 15.3153 81.5934C15.8546 81.8399 16.4416 81.9477 17.0281 81.908L25.3341 81.4259C26.2848 81.3714 27.1793 80.9334 27.8328 80.2025C28.4864 79.4716 28.8491 78.5036 28.8459 77.4984L28.7721 51.8707C28.7714 51.3474 28.6714 50.8295 28.4781 50.3476C28.2849 49.8657 28.0022 49.4296 27.6467 49.0649C27.2913 48.7002 26.8703 48.4143 26.4085 48.2241C25.9467 48.0339 25.4536 47.9432 24.9581 47.9574L20.7816 48.0779C20.1982 48.1029 19.6286 48.2725 19.1189 48.573C18.6091 48.8735 18.1735 49.2965 17.8473 49.8077Z" fill="black"/>
<path d="M34.6707 32.9658L16.3868 33.4949C14.3627 33.5535 12.7669 35.3333 12.8224 37.4702L12.9637 42.9128C13.0191 45.0497 14.7049 46.7346 16.7289 46.676L35.0129 46.1469C37.037 46.0884 38.6328 44.3085 38.5773 42.1716L38.436 36.729C38.3805 34.5921 36.6948 32.9072 34.6707 32.9658Z" fill="#746B5C"/>
<path opacity="0.3" d="M34.6707 32.9658L16.3868 33.4949C14.3627 33.5535 12.7669 35.3333 12.8224 37.4702L12.9637 42.9128C13.0191 45.0497 14.7049 46.7346 16.7289 46.676L35.0129 46.1469C37.037 46.0884 38.6328 44.3085 38.5773 42.1716L38.436 36.729C38.3805 34.5921 36.6948 32.9072 34.6707 32.9658Z" fill="black"/>
<path d="M12.1665 37.0611C13.5699 42.9997 14.5552 49.0397 15.1143 55.1317C15.5239 59.3853 15.7387 63.4262 15.8529 67.1055C16.1147 75.7119 15.8126 82.2624 16.014 84.4885L43.6987 83.0706C44.5179 40.067 41.174 35.8489 41.174 35.8489C38.9953 35.3714 36.791 35.0352 34.5734 34.8422C34.1258 34.7997 33.649 34.7713 33.1432 34.7571C29.2117 34.7193 25.2815 34.9229 21.3724 35.3668C20.6337 35.4448 19.8817 35.544 19.1498 35.6504C15.4366 36.1821 12.1665 37.0611 12.1665 37.0611Z" fill="#2A3C1A"/>
<path d="M39.9115 50.1833C33.2257 48.6113 26.2486 49.1663 19.8614 51.7784L19.2974 49.7296C26.0291 46.9773 33.3823 46.3927 40.4285 48.0494C40.2674 48.7583 40.0861 49.4744 39.9115 50.1833Z" fill="#746B5C"/>
<path opacity="0.2" d="M18.9952 45.0864C18.9601 49.5728 17.686 53.951 15.3289 57.6841C15.2685 56.8476 15.1946 56.0039 15.114 55.1532C14.8052 51.963 14.3889 48.6523 13.8248 45.3062L18.9952 45.0864Z" fill="black"/>
<path d="M35.3455 34.8919L34.5733 34.821C34.1033 34.7785 33.6265 34.7501 33.1498 34.7218C29.2182 34.6897 25.2882 34.8956 21.3789 35.3385C20.6336 35.4165 19.8883 35.5158 19.1564 35.6221H19.1094L19.6398 36.4941C20.459 37.8623 23.0778 41.0879 29.7723 41.726L30.4438 41.7827L31.0011 41.4495C32.438 40.5846 34.768 38.4932 35.2918 36.2672C35.3921 35.8165 35.4103 35.3498 35.3455 34.8919Z" fill="white"/>
<path d="M17.5852 12.9294C14.9732 11.554 11.9986 15.517 12.885 17.9911C13.5449 17.858 14.227 17.9253 14.8521 18.185C15.4773 18.4448 16.0199 18.8864 16.4169 19.4586C16.4169 19.4586 14.6778 21.713 15.7454 24.1659C17.8673 22.748 20.0361 24.7047 20.0361 24.7047C19.7818 25.3651 19.722 26.0911 19.8646 26.788C20.0071 27.4849 20.3454 28.1201 20.8352 28.6109C21.3992 27.0087 23.521 28.4549 24.3805 27.193C25.7839 25.13 24.1656 22.9394 24.1656 22.9394L23.5815 21.9186C23.1517 17.027 21.6476 15.0632 17.5852 12.9294Z" fill="#2A3C1A"/>
<path d="M21.8759 21.2875C22.8093 25.2504 23.8903 32.5311 21.3723 35.3384C22.4198 37.0895 25.1124 39.1029 29.947 39.592C31.6659 38.5641 33.9288 36.0474 33.1365 34.7571C28.8659 33.9135 28.8189 30.6028 29.4098 27.4552L21.8759 21.2875Z" fill="#FDCFCA"/>
<path d="M35.1576 35.0336C35.4598 37.692 37.6555 55.3656 43.4234 62.9228C43.4679 62.9787 43.5275 63.0191 43.5942 63.0386C43.6609 63.0581 43.7316 63.0557 43.797 63.032C43.8624 63.0082 43.9195 62.964 43.9607 62.9053C44.0019 62.8466 44.0252 62.7761 44.0277 62.7031C44.0277 61.1505 44.0277 59.683 44.0277 59.4207C44.0313 59.3925 44.0313 59.3639 44.0277 59.3356C43.8263 58.5629 40.8852 46.8372 40.4891 35.5723C40.4876 35.5117 40.4713 35.4525 40.4419 35.4003C40.4125 35.3482 40.371 35.3049 40.3212 35.2746C38.7696 34.6465 37.0957 34.4299 35.4463 34.6436C35.403 34.6489 35.3611 34.6632 35.323 34.6857C35.285 34.7082 35.2515 34.7385 35.2247 34.7748C35.1978 34.8111 35.178 34.8526 35.1665 34.8971C35.155 34.9415 35.152 34.9879 35.1576 35.0336Z" fill="#746B5C"/>
<path opacity="0.2" d="M24.9581 23.79L29.4099 27.4198C29.2629 28.1524 29.1776 28.8973 29.1547 29.6458C27.5298 29.4827 25.2266 27.7317 24.9715 25.9523C24.841 25.2385 24.8364 24.5055 24.9581 23.79Z" fill="black"/>
<path d="M31.1489 14.7442C32.5389 14.893 34.5734 9.99434 32.2569 6.49224C30.1149 3.26661 25.8913 6.61275 25.3609 7.20116C24.8304 7.78958 26.1599 14.1983 31.1489 14.7442Z" fill="#2A3C1A"/>
<path d="M19.4587 15.9704C20.7479 21.2236 21.2515 24.3712 24.3 26.6043C28.8861 29.9292 34.6607 26.2073 34.8823 20.6493C35.077 15.6514 32.9351 7.88862 27.6103 6.78978C26.4403 6.54324 25.2302 6.61572 24.0941 7.00037C22.9581 7.38502 21.9337 8.06914 21.1177 8.98809C20.3018 9.90703 19.7212 11.0304 19.4309 12.2522C19.1406 13.4739 19.1502 14.7537 19.4587 15.9704Z" fill="#FDCFCA"/>
<path d="M21.6611 20.1532C23.0577 20.3021 23.5345 13.5956 22.769 11.9013C22.0035 10.2069 16.2759 11.9013 15.8797 12.6102C13.6639 16.6227 16.6788 19.6073 21.6611 20.1532Z" fill="#2A3C1A"/>
<path d="M32.9016 3.80541C32.7001 1.77787 30.4373 0.693211 28.02 0.969693C27.9058 2.46553 25.5758 3.59273 25.5758 3.59273C24.8695 2.99921 24.0469 2.57929 23.1676 2.36346C22.2884 2.14763 21.3747 2.14134 20.4928 2.34502C20.6405 4.61359 18.6261 6.35755 18.6261 6.35755C18.6261 6.35755 16.5311 5.41468 14.3892 7.52728C16.1216 8.39218 13.2947 10.2992 14.8726 12.4189C16.6587 14.8222 19.8281 13.461 19.8281 13.461L21.171 12.7096C27.738 11.9014 33.4455 9.09402 32.9016 3.80541Z" fill="#2A3C1A"/>
<path d="M32.4114 21.0254C31.3959 21.7969 30.2593 22.3729 29.054 22.7269C29.0367 22.7322 29.0185 22.7334 29.0007 22.7303C28.9829 22.7273 28.9659 22.72 28.9511 22.7091C28.9363 22.6983 28.924 22.684 28.9151 22.6675C28.9062 22.6509 28.9009 22.6324 28.8996 22.6134C28.8985 22.5711 28.9113 22.5297 28.9357 22.4961C28.9602 22.4625 28.9949 22.4389 29.0339 22.4291C30.1827 22.0851 31.2664 21.5334 32.2368 20.7986C32.2641 20.7717 32.3001 20.7567 32.3375 20.7567C32.3749 20.7567 32.4109 20.7717 32.4382 20.7986C32.4551 20.813 32.4681 20.8317 32.4762 20.8529C32.4843 20.8741 32.4871 20.8972 32.4844 20.9199C32.4818 20.9426 32.4736 20.9642 32.4609 20.9827C32.4481 21.0011 32.431 21.0158 32.4114 21.0254Z" fill="#2A3C1A"/>
<path d="M18.2635 21.7202C19.152 22.7119 20.3756 23.2928 21.6679 23.3365C23.3801 23.379 23.8166 21.6563 23.0108 20.1818C22.2655 18.849 20.4727 17.2326 18.9216 17.8919C17.3705 18.5512 17.1757 20.4866 18.2635 21.7202Z" fill="#FDCFCA"/>
<path d="M54.6301 142.571C51.9039 126.124 43.6986 83.0211 43.6986 83.0211L25.5018 83.9711C25.5018 83.9711 37.9911 132.292 41.5767 146.3C45.1624 160.309 57.692 200.37 57.692 200.37L65.6221 196.414C65.6221 196.414 57.4637 159.678 54.6301 142.571Z" fill="#746B5C"/>
<path opacity="0.2" d="M32.8813 100.22L30.323 102.673C32.5187 111.18 35.124 121.289 37.3667 129.981C37.9912 120.169 36.8497 105.423 32.8813 100.22Z" fill="black"/>
<path d="M36.0641 83.4392C36.0641 83.4392 32.418 129.222 31.9614 145.251C31.4578 162.797 29.7657 201.703 29.7657 201.703H20.2712C20.2712 201.703 18.8141 166.15 18.5186 148.895C18.156 129.399 16.0409 84.4884 16.0409 84.4884L36.0641 83.4392Z" fill="#746B5C"/>
<path d="M30.1417 201.923H19.7205L19.2505 198.399L30.9878 198.165L30.1417 201.923Z" fill="#2A3C1A"/>
<path d="M66.1863 196.386L57.2356 200.859L55.3152 197.683L65.5216 192.572L66.1863 196.386Z" fill="#2A3C1A"/>
<path d="M27.3753 15.8572C27.4559 16.2897 27.7379 16.5662 28.0065 16.5662C28.2751 16.5662 28.4295 16.1195 28.3489 15.6871C28.2684 15.2546 27.9863 14.9781 27.7178 14.9781C27.4492 14.9781 27.2947 15.4531 27.3753 15.8572Z" fill="#2A3C1A"/>
<path d="M32.0152 14.9285C32.0957 15.361 32.3777 15.6374 32.6463 15.6374C32.9149 15.6374 33.0626 15.1837 32.9821 14.7513C32.9015 14.3188 32.6195 14.0424 32.3509 14.0424C32.0823 14.0424 31.948 14.4961 32.0152 14.9285Z" fill="#2A3C1A"/>
<path d="M30.6052 15.4458C31.3394 16.6699 32.2296 17.7815 33.2508 18.7494C32.6532 19.6143 31.2834 19.4583 31.2834 19.4583L30.6052 15.4458Z" fill="#D29D9A"/>
<path d="M28.04 13.3688C27.9968 13.3569 27.9514 13.358 27.9087 13.3717C27.866 13.3855 27.8278 13.4115 27.7983 13.4467C27.5987 13.6926 27.3468 13.8851 27.0631 14.0083C26.7795 14.1315 26.4723 14.182 26.1666 14.1557C26.1027 14.1475 26.0382 14.1658 25.9869 14.2068C25.9355 14.2478 25.9012 14.3083 25.8913 14.3754C25.8856 14.4095 25.8865 14.4445 25.894 14.4782C25.9014 14.5119 25.9153 14.5436 25.9348 14.5715C25.9543 14.5993 25.9789 14.6227 26.0072 14.6402C26.0355 14.6577 26.0669 14.6689 26.0994 14.6732C26.4883 14.706 26.8789 14.6402 27.2387 14.4811C27.5985 14.322 27.917 14.0743 28.1676 13.7587C28.1909 13.7355 28.2096 13.7075 28.2223 13.6764C28.235 13.6453 28.2416 13.6118 28.2416 13.5779C28.2416 13.544 28.235 13.5105 28.2223 13.4794C28.2096 13.4483 28.1909 13.4203 28.1676 13.3971C28.1296 13.3719 28.0843 13.3618 28.04 13.3688Z" fill="#2A3C1A"/>
<path d="M33.7473 10.9726C33.7949 10.958 33.8371 10.9283 33.8682 10.8875C33.8885 10.8605 33.9035 10.8296 33.9125 10.7964C33.9214 10.7633 33.9241 10.7286 33.9204 10.6944C33.9166 10.6601 33.9066 10.627 33.8907 10.5969C33.8748 10.5668 33.8535 10.5403 33.8279 10.5189C33.5283 10.2554 33.1725 10.0726 32.7913 9.98616C32.41 9.89973 32.0146 9.91224 31.6389 10.0226C31.5781 10.0452 31.5281 10.0919 31.4993 10.1527C31.4704 10.2136 31.4651 10.2838 31.4845 10.3487C31.5059 10.4129 31.5501 10.4658 31.6077 10.4962C31.6653 10.5266 31.7319 10.5322 31.7934 10.5118C32.0929 10.4331 32.4059 10.43 32.7068 10.5026C33.0078 10.5753 33.2883 10.7217 33.5257 10.9301C33.5574 10.9541 33.5936 10.9704 33.632 10.9778C33.6703 10.9851 33.7097 10.9833 33.7473 10.9726Z" fill="#2A3C1A"/>
<path d="M29.5844 209.43C29.9388 209.459 30.292 209.359 30.5848 209.146C30.6815 209.061 30.7558 208.952 30.8005 208.827C30.8452 208.703 30.8588 208.569 30.84 208.438C30.841 208.361 30.8213 208.286 30.7833 208.22C30.7452 208.155 30.6904 208.103 30.6251 208.069C30.0544 207.757 28.3824 208.842 28.1944 208.969C28.174 208.982 28.1579 209.001 28.1483 209.024C28.1386 209.047 28.136 209.072 28.1407 209.097C28.1438 209.122 28.1537 209.145 28.1692 209.164C28.1847 209.183 28.2052 209.196 28.228 209.203C28.6706 209.332 29.1256 209.408 29.5844 209.43ZM30.3565 208.296C30.4096 208.283 30.4646 208.283 30.5177 208.296C30.5422 208.312 30.562 208.336 30.575 208.363C30.588 208.39 30.5937 208.421 30.5916 208.452C30.604 208.538 30.595 208.627 30.5656 208.709C30.5362 208.791 30.4874 208.863 30.4237 208.92C29.8458 209.203 29.1861 209.239 28.5839 209.019C29.1257 208.661 29.7274 208.415 30.3565 208.296Z" fill="#746B5C"/>
<path d="M28.2616 209.232C28.2789 209.239 28.2981 209.239 28.3154 209.232C28.8525 208.927 29.8933 207.729 29.7792 207.105C29.762 207.009 29.7136 206.923 29.6425 206.861C29.5714 206.799 29.482 206.765 29.3897 206.765C29.2965 206.752 29.2016 206.759 29.1114 206.788C29.0212 206.816 28.9376 206.863 28.866 206.928C28.2684 207.452 28.1408 209.055 28.1341 209.097C28.1336 209.12 28.1389 209.143 28.1495 209.163C28.1602 209.183 28.1757 209.199 28.1945 209.211C28.2142 209.225 28.2377 209.232 28.2616 209.232ZM29.3024 207.02H29.3628C29.5173 207.02 29.5374 207.119 29.5374 207.155C29.6046 207.509 28.9465 208.417 28.4094 208.842C28.4474 208.221 28.6602 207.626 29.0204 207.133C29.0986 207.061 29.1986 207.021 29.3024 207.02Z" fill="#746B5C"/>
<path d="M66.7164 204.205C67.5423 203.986 68.9726 203.496 69.268 202.787C69.32 202.675 69.343 202.551 69.3347 202.426C69.3265 202.302 69.2873 202.182 69.221 202.079C69.1904 202.015 69.1444 201.962 69.0878 201.923C69.0312 201.884 68.966 201.862 68.8987 201.859C68.187 201.816 66.75 203.752 66.5889 203.986C66.5741 204.007 66.5662 204.033 66.5662 204.06C66.5662 204.087 66.5741 204.113 66.5889 204.134C66.5992 204.16 66.6175 204.181 66.6407 204.194C66.664 204.207 66.6907 204.211 66.7164 204.205ZM68.8786 202.135C68.9046 202.138 68.9296 202.148 68.9508 202.164C68.9721 202.18 68.9888 202.202 68.9994 202.227C69.0399 202.292 69.0648 202.365 69.0718 202.442C69.0788 202.519 69.0678 202.596 69.0397 202.667C68.8719 203.085 68.1198 203.518 67.0253 203.851C67.6162 203.099 68.4623 202.164 68.8786 202.135Z" fill="#746B5C"/>
<path d="M66.7165 204.205C66.7321 204.205 66.7473 204.201 66.7613 204.193C66.7752 204.186 66.7874 204.176 66.7971 204.163C67.247 203.61 67.8849 201.979 67.5492 201.462C67.4686 201.341 67.3074 201.228 66.9918 201.341C66.8755 201.384 66.7686 201.452 66.6775 201.54C66.5864 201.627 66.5129 201.733 66.4614 201.852C66.0988 202.667 66.5688 204.064 66.589 204.12C66.5965 204.142 66.6091 204.161 66.6255 204.176C66.642 204.191 66.6617 204.201 66.683 204.205H66.7165ZM67.2134 201.554C67.2386 201.549 67.2646 201.552 67.2884 201.562C67.3122 201.572 67.3328 201.589 67.3477 201.611C67.5492 201.923 67.1664 203.142 66.7501 203.794C66.5504 203.206 66.5293 202.567 66.6897 201.965C66.724 201.877 66.776 201.798 66.842 201.733C66.9081 201.668 66.9867 201.619 67.0724 201.589C67.1171 201.569 67.1648 201.557 67.2134 201.554Z" fill="#746B5C"/>
<path d="M17.5919 45.1997L16.0945 47.369C15.5842 48.1134 15.0873 48.8719 14.5972 49.6305C13.6101 51.1476 12.6633 52.686 11.7367 54.2244C10.8101 55.7627 9.97074 57.3437 9.15827 58.9175C8.38024 60.4647 7.67655 62.0524 7.04985 63.6744C7.04985 63.6744 7.04985 63.7453 7.04985 63.7382C7.04985 63.7949 7.04985 63.7382 7.04985 63.8658C7.05312 63.9035 7.05312 63.9415 7.04985 63.9792C7.04985 64.0218 7.04985 64.0926 7.04985 64.1494V64.3266L7.08343 64.5393C7.20284 65.2489 7.39419 65.9429 7.65418 66.6093C8.28335 68.2206 9.02163 69.7819 9.86331 71.2812C10.7161 72.855 11.6629 74.4217 12.6365 75.9814C13.6101 77.541 14.6509 79.1078 15.6245 80.6249L12.7708 83.4181C9.90313 80.7755 7.27525 77.8562 4.9213 74.6982C3.68386 73.0541 2.58516 71.2987 1.63781 69.4522C1.10503 68.39 0.675339 67.2736 0.355303 66.1202L0.227722 65.6381L0.133717 65.1064C0.133717 64.9221 0.0732877 64.752 0.0531436 64.5605L0.0128571 63.958C-0.0120183 63.5206 -0.000782684 63.0818 0.0464326 62.6464C0.0704018 62.4073 0.110791 62.1704 0.167292 61.9375L0.247865 61.5689C0.269101 61.468 0.296014 61.3686 0.328449 61.2711C1.49227 57.3473 3.06887 53.5735 5.02873 50.0204C5.96879 48.2694 6.976 46.575 8.0302 44.9232C8.56066 44.0938 9.10455 43.2785 9.66187 42.4703C10.2192 41.6621 10.7698 40.8894 11.4211 40.0387L17.5919 45.1997Z" fill="#FDCFCA"/>
<path d="M12.1666 37.0613C7.28504 37.9971 2.76605 50.4458 2.76605 50.4458L12.7374 59.3783C12.7374 59.3783 16.182 53.076 18.9552 46.9792C21.9969 40.3436 18.0688 35.9341 12.1666 37.0613Z" fill="#2A3C1A"/>
<path d="M13.5497 79.8523L18.767 79.1434L16.7526 85.8073C16.7526 85.8073 12.1866 85.3536 12.1463 82.766L13.5497 79.8523Z" fill="#FDCFCA"/>
<path d="M22.4937 81.4969L20.6002 86.9202L16.7728 85.8284L18.7671 79.1716L22.4937 81.4969Z" fill="#FDCFCA"/>
<path d="M15.3358 36.5295C15.8998 39.4857 18.3305 53.6643 15.4768 65.0993C15.473 65.118 15.473 65.1373 15.4768 65.156C15.4746 65.8391 15.5195 66.5215 15.6111 67.1977C15.6204 67.2443 15.6409 67.2875 15.6707 67.3232C15.7004 67.3589 15.7384 67.3859 15.7809 67.4016C15.8235 67.4173 15.8691 67.4211 15.9135 67.4127C15.9578 67.4043 15.9994 67.384 16.0341 67.3537C17.4375 66.1273 22.6078 60.867 22.6414 49.588C22.6749 40.6058 21.3589 36.6571 20.862 35.4803C20.8084 35.364 20.7205 35.2693 20.6115 35.2105C20.5024 35.1517 20.3782 35.1319 20.2576 35.1542L15.8058 35.8631C15.7324 35.8715 15.6614 35.8959 15.5973 35.9346C15.5332 35.9733 15.4774 36.0256 15.4332 36.0881C15.3891 36.1507 15.3577 36.2222 15.3409 36.2981C15.3242 36.374 15.3224 36.4528 15.3358 36.5295Z" fill="#746B5C"/>
</svg>
