<svg width="193" height="227" viewBox="0 0 193 227" fill="none" xmlns="http://www.w3.org/2000/svg">
<path d="M157.786 18.1726C159.667 19.8515 158.197 22.1992 159.179 22.6171C160.177 23.1024 161.016 23.8609 161.599 24.8043C162.182 25.7477 162.486 26.8373 162.474 27.9464C162.426 29.9318 160.614 31.7222 161.081 33.6518C161.422 35.0451 162.788 35.8602 163.728 36.933C166.153 39.7195 165.47 44.2546 163.032 46.9924C160.593 49.7302 156.839 50.9493 153.202 51.4996C147.921 52.2861 142.532 51.8766 137.43 50.3014C135.201 49.6048 132.965 48.6573 131.377 46.9506C129.788 45.2438 128.98 42.6245 129.942 40.4928C130.638 38.9114 132.275 37.546 131.99 35.8323C131.754 35.071 131.436 34.3375 131.042 33.6449C130.346 31.8824 130.993 29.8552 132.004 28.2459C133.014 26.6367 134.365 25.2574 135.243 23.5715C136.121 21.8857 136.448 19.7191 135.354 18.1656" fill="#1C1C1C"/>
<path d="M163.882 46.9406C163.882 46.9406 179.563 61.3609 180.023 59.6681C182.538 50.4865 182.231 38.6646 181.994 34.1295C181.751 33.7394 181.472 33.3005 181.145 32.8198C180.764 32.2642 180.293 31.7767 179.751 31.3778C179.097 30.8535 178.376 30.42 177.606 30.089C176.867 29.8591 176.777 28.8699 177.431 28.654C178.086 28.438 180.12 29.0162 181.98 30.6672C183.84 32.3183 183.172 28.5077 182.949 27.1144C182.726 25.7211 182.252 21.395 182.628 20.9979C183.179 20.4197 183.924 20.9143 184.105 22.3076C184.286 23.7009 185.15 27.8459 185.882 27.7135C186.613 27.5811 185.387 20.5173 185.387 20.5173C185.387 20.5173 184.885 19.0404 185.721 18.8593C187.233 18.5319 187.972 26.1321 188.02 26.8566C188.062 27.3582 188.856 27.2398 188.794 26.7034C188.731 26.167 187.4 19.6743 188.954 19.326C190.131 19.0613 189.616 25.5957 190.633 26.787C191.65 27.9782 190.521 21.7921 191.657 21.5901C192.082 21.5135 192.409 21.5135 192.548 25.1499C192.52 28.0792 192.332 31.0048 191.984 33.9135C192.681 43.9242 193.809 74.5273 180.037 73.0923C163.784 71.3995 160.392 58.4629 160.392 58.4629L163.882 46.9406Z" fill="#FFBE9D"/>
<path d="M105.979 81.913C104.12 79.7698 103.101 77.0248 103.111 74.1874C103.121 71.3499 104.16 68.6124 106.035 66.4826L115.788 55.427L124.273 63.3965C123.932 63.6264 115.182 74.7447 115.182 74.7447L127.408 89.9731C128.336 91.1305 128.956 92.5043 129.21 93.9662C129.463 95.4281 129.342 96.9304 128.857 98.3327L125.59 106.33L116.652 102.317L117.349 101.273H124.064L124.461 99.6633L105.979 81.913Z" fill="#FFBE9D"/>
<path d="M135.598 222.277L135.632 215.847H147.677L147.726 225.251L146.981 225.3C143.658 225.488 130.066 225.997 127.844 225.349C125.364 224.59 135.598 222.277 135.598 222.277Z" fill="#1C1C1C"/>
<g opacity="0.6">
<path d="M143.374 225.302C143.55 224.286 144.096 223.37 144.907 222.732C145.695 222.105 146.688 221.793 147.693 221.854V225.219L143.374 225.302Z" fill="white"/>
</g>
<g opacity="0.6">
<path d="M130.617 223.578C130.617 223.578 127.03 224.616 127.475 225.201C127.921 225.786 141.68 225.779 147.748 225.236V224.971L131.725 225.125C131.725 225.125 131.314 223.606 130.617 223.578Z" fill="white"/>
</g>
<path d="M147.808 224.87H147.606L147.006 224.912L144.819 225.003C142.973 225.073 140.416 225.135 137.588 225.142C134.76 225.149 132.21 225.1 130.357 225.038L128.169 224.947L127.577 224.912H127.368H128.169L130.364 224.954C132.21 224.989 134.767 225.024 137.588 225.017C140.409 225.01 142.966 224.968 144.812 224.926L147.006 224.87H147.808Z" fill="#293B1A"/>
<path d="M131.686 225.362C131.594 224.997 131.456 224.646 131.275 224.317C131.057 224.01 130.807 223.728 130.53 223.474C130.902 223.616 131.211 223.888 131.401 224.24C131.632 224.565 131.733 224.965 131.686 225.362Z" fill="#293B1A"/>
<path d="M135.467 223.268C135.433 223.268 135.265 223.08 135.084 222.802C134.961 222.644 134.873 222.461 134.827 222.265C134.861 222.265 135.036 222.446 135.21 222.725C135.384 223.004 135.502 223.268 135.467 223.268Z" fill="#293B1A"/>
<path d="M136.441 222.752C136.441 222.787 136.225 222.661 136.016 222.473C135.807 222.285 135.661 222.111 135.688 222.083C135.716 222.055 135.904 222.174 136.113 222.362C136.322 222.55 136.469 222.724 136.441 222.752Z" fill="#293B1A"/>
<path d="M137.053 221.611C136.854 221.686 136.639 221.715 136.427 221.695C136.213 221.718 135.996 221.694 135.793 221.625C135.996 221.554 136.212 221.528 136.427 221.548C136.638 221.519 136.852 221.541 137.053 221.611Z" fill="#293B1A"/>
<path d="M137.265 220.817C137.058 220.953 136.815 221.024 136.568 221.019C136.332 221.056 136.09 221.024 135.871 220.928C136.101 220.888 136.335 220.87 136.568 220.872C136.798 220.831 137.031 220.812 137.265 220.817Z" fill="#293B1A"/>
<path d="M135.053 222.221C134.797 222.263 134.536 222.263 134.28 222.221C134 222.188 133.725 222.127 133.458 222.04C133.292 221.998 133.133 221.934 132.984 221.852C132.893 221.796 132.824 221.71 132.789 221.608C132.778 221.551 132.784 221.492 132.805 221.438C132.825 221.384 132.861 221.337 132.907 221.302C133.098 221.211 133.307 221.163 133.518 221.161C133.73 221.16 133.939 221.205 134.131 221.293C134.323 221.382 134.493 221.511 134.63 221.673C134.766 221.835 134.865 222.024 134.92 222.228C134.92 222.361 134.92 222.437 134.92 222.437C134.853 222.184 134.734 221.947 134.572 221.741C134.397 221.538 134.167 221.391 133.91 221.316C133.76 221.264 133.6 221.242 133.441 221.253C133.282 221.264 133.126 221.306 132.984 221.378C132.865 221.469 132.914 221.615 133.046 221.692C133.186 221.77 133.333 221.833 133.485 221.88C133.745 221.968 134.01 222.038 134.28 222.089C134.76 222.193 135.053 222.193 135.053 222.221Z" fill="#293B1A"/>
<path d="M134.852 222.255C134.758 222.093 134.726 221.902 134.762 221.719C134.788 221.516 134.862 221.323 134.978 221.154C135.041 221.038 135.133 220.94 135.245 220.871C135.358 220.801 135.486 220.762 135.618 220.757C135.697 220.776 135.765 220.823 135.809 220.891C135.854 220.958 135.87 221.04 135.855 221.119C135.839 221.241 135.796 221.358 135.73 221.461C135.624 221.632 135.501 221.79 135.361 221.934C135.241 222.072 135.091 222.18 134.922 222.248C134.922 222.248 135.075 222.109 135.284 221.858C135.41 221.717 135.52 221.563 135.612 221.398C135.716 221.231 135.786 220.938 135.612 220.903C135.437 220.869 135.221 221.078 135.103 221.231C134.996 221.381 134.922 221.552 134.887 221.732C134.863 221.906 134.852 222.08 134.852 222.255Z" fill="#293B1A"/>
<path d="M147.893 221.81C147.893 221.81 147.545 221.81 147.002 221.81C146.292 221.897 145.62 222.177 145.058 222.618C144.504 223.065 144.086 223.659 143.853 224.331C143.665 224.847 143.651 225.195 143.623 225.195C143.61 225.114 143.61 225.032 143.623 224.951C143.641 224.729 143.683 224.51 143.748 224.297C143.971 223.592 144.395 222.967 144.967 222.499C145.548 222.042 146.251 221.768 146.988 221.712C147.219 221.687 147.453 221.687 147.684 221.712C147.81 221.775 147.893 221.796 147.893 221.81Z" fill="#293B1A"/>
<path d="M146.636 216.414C146.723 217.236 146.76 218.062 146.748 218.887C146.785 219.714 146.772 220.542 146.706 221.367C146.628 220.543 146.593 219.715 146.601 218.887C146.568 218.063 146.579 217.237 146.636 216.414Z" fill="#293B1A"/>
<path d="M142.086 223.735C141.511 223.868 140.921 223.926 140.331 223.909C139.74 223.944 139.147 223.897 138.568 223.77C138.568 223.728 139.362 223.77 140.331 223.77C141.299 223.77 142.086 223.693 142.086 223.735Z" fill="#293B1A"/>
<path d="M144.473 223.728C144.508 223.728 144.41 223.895 144.334 224.076C144.257 224.257 144.208 224.418 144.167 224.411C144.125 224.404 144.104 224.223 144.167 224.014C144.229 223.805 144.424 223.7 144.473 223.728Z" fill="#293B1A"/>
<path d="M145.336 222.626C145.336 222.626 145.287 222.779 145.161 222.905C145.036 223.03 144.911 223.114 144.883 223.079C144.855 223.044 144.932 222.926 145.057 222.8C145.182 222.675 145.308 222.577 145.336 222.626Z" fill="#293B1A"/>
<path d="M146.603 222.113C146.603 222.155 146.436 222.155 146.262 222.217C146.088 222.28 145.956 222.371 145.928 222.343C145.9 222.315 145.997 222.148 146.213 222.078C146.429 222.008 146.617 222.071 146.603 222.113Z" fill="#293B1A"/>
<path d="M147.492 221.873C147.492 221.912 147.44 221.97 147.343 222.003C147.245 222.035 147.168 222.042 147.155 222.003C147.142 221.964 147.2 221.906 147.297 221.873C147.395 221.841 147.472 221.834 147.492 221.873Z" fill="#293B1A"/>
<path d="M172.513 222.662V216.232H160.434L160.385 225.644L161.137 225.692C164.46 225.874 178.045 226.389 180.267 225.734C182.747 224.975 172.513 222.662 172.513 222.662Z" fill="#1C1C1C"/>
<g opacity="0.6">
<path d="M164.744 225.688C164.566 224.67 164.018 223.754 163.204 223.117C162.416 222.49 161.423 222.178 160.418 222.239V225.611L164.744 225.688Z" fill="white"/>
</g>
<g opacity="0.6">
<path d="M177.503 223.97C177.503 223.97 181.083 225.008 180.637 225.6C180.192 226.192 166.44 226.171 160.372 225.6V225.335L176.395 225.489C176.395 225.489 176.799 223.97 177.503 223.97Z" fill="white"/>
</g>
<path d="M160.3 225.256H160.509L161.101 225.291L163.289 225.389C165.142 225.458 167.698 225.514 170.52 225.521C173.341 225.528 175.898 225.479 177.751 225.416L179.938 225.326H180.537H180.739H179.938L177.751 225.368C175.898 225.368 173.341 225.437 170.52 225.43C167.698 225.423 165.142 225.382 163.296 225.34L161.101 225.291H160.509L160.3 225.256Z" fill="#293B1A"/>
<path d="M176.431 225.747C176.532 225.385 176.67 225.035 176.842 224.702C177.055 224.392 177.308 224.111 177.594 223.866C177.215 223.998 176.902 224.269 176.716 224.625C176.489 224.952 176.388 225.351 176.431 225.747Z" fill="#293B1A"/>
<path d="M172.649 223.654C172.649 223.654 172.858 223.466 173.032 223.194C173.206 222.922 173.325 222.672 173.29 222.651C173.255 222.63 173.088 222.839 172.907 223.11C172.782 223.271 172.694 223.456 172.649 223.654Z" fill="#293B1A"/>
<path d="M171.676 223.137C171.676 223.137 171.892 223.04 172.101 222.852C172.31 222.664 172.449 222.49 172.428 222.462C172.407 222.434 172.205 222.559 172.003 222.74C171.801 222.922 171.641 223.103 171.676 223.137Z" fill="#293B1A"/>
<path d="M171.055 221.996C171.255 222.07 171.47 222.099 171.682 222.08C171.896 222.104 172.112 222.083 172.316 222.017C172.116 221.941 171.902 221.913 171.689 221.933C171.476 221.905 171.259 221.926 171.055 221.996Z" fill="#293B1A"/>
<path d="M170.846 221.182C171.053 221.318 171.295 221.391 171.543 221.391C171.78 221.423 172.021 221.389 172.239 221.293C172.009 221.255 171.776 221.238 171.543 221.244C171.313 221.202 171.08 221.181 170.846 221.182Z" fill="#293B1A"/>
<path d="M173.034 222.575C173.29 222.619 173.551 222.619 173.807 222.575C174.088 222.535 174.365 222.474 174.636 222.394C174.8 222.343 174.958 222.278 175.11 222.199C175.201 222.144 175.268 222.057 175.298 221.955C175.311 221.898 175.307 221.838 175.286 221.783C175.265 221.729 175.228 221.682 175.18 221.648C174.886 221.498 174.548 221.456 174.226 221.531C173.905 221.607 173.621 221.794 173.424 222.059C173.306 222.212 173.22 222.387 173.173 222.575C173.155 222.643 173.155 222.715 173.173 222.784C173.256 222.548 173.376 222.327 173.529 222.129C173.703 221.924 173.933 221.774 174.19 221.697C174.34 221.645 174.499 221.624 174.657 221.635C174.815 221.645 174.969 221.688 175.11 221.76C175.235 221.85 175.187 221.997 175.047 222.08C174.91 222.155 174.765 222.215 174.615 222.261C174.355 222.353 174.087 222.423 173.814 222.47C173.355 222.575 173.034 222.575 173.034 222.575Z" fill="#293B1A"/>
<path d="M173.26 222.647C173.356 222.484 173.389 222.29 173.351 222.104C173.323 221.903 173.252 221.71 173.142 221.54C173.074 221.426 172.98 221.33 172.867 221.261C172.754 221.192 172.626 221.151 172.494 221.143C172.417 221.163 172.349 221.211 172.305 221.278C172.262 221.345 172.244 221.426 172.257 221.505C172.276 221.627 172.321 221.744 172.39 221.846C172.489 222.02 172.611 222.179 172.752 222.32C172.873 222.459 173.026 222.567 173.198 222.634C173.198 222.634 173.045 222.494 172.829 222.25C172.705 222.107 172.598 221.95 172.508 221.784C172.397 221.616 172.327 221.324 172.508 221.289C172.689 221.254 172.898 221.463 173.017 221.616C173.125 221.768 173.199 221.942 173.233 222.125C173.258 222.298 173.268 222.473 173.26 222.647Z" fill="#293B1A"/>
<path d="M160.222 222.192C160.222 222.192 160.564 222.158 161.107 222.227C161.817 222.308 162.49 222.585 163.051 223.028C163.601 223.481 164.02 224.073 164.263 224.742C164.444 225.258 164.465 225.606 164.493 225.606C164.502 225.525 164.502 225.443 164.493 225.362C164.472 225.142 164.428 224.925 164.36 224.714C164.145 224.006 163.72 223.38 163.142 222.917C162.564 222.455 161.859 222.178 161.121 222.123C160.901 222.1 160.679 222.1 160.459 222.123C160.377 222.132 160.296 222.155 160.222 222.192Z" fill="#293B1A"/>
<path d="M161.478 216.8C161.391 217.621 161.356 218.447 161.373 219.273C161.324 220.099 161.324 220.927 161.373 221.753C161.459 220.932 161.494 220.106 161.478 219.28C161.527 218.454 161.527 217.626 161.478 216.8Z" fill="#293B1A"/>
<path d="M166.027 224.121C166.602 224.253 167.192 224.312 167.783 224.295C168.374 224.329 168.967 224.282 169.545 224.156C169.545 224.114 168.758 224.156 167.789 224.156C166.821 224.156 166.069 224.079 166.027 224.121Z" fill="#293B1A"/>
<path d="M163.663 224.113C163.663 224.113 163.725 224.281 163.809 224.462C163.893 224.643 163.934 224.803 163.976 224.796C164.018 224.789 164.032 224.608 163.976 224.399C163.921 224.19 163.691 224.085 163.663 224.113Z" fill="#293B1A"/>
<path d="M162.782 223.004C162.782 223.004 162.831 223.157 162.949 223.283C163.068 223.408 163.2 223.492 163.228 223.464C163.256 223.436 163.179 223.311 163.054 223.178C162.928 223.046 162.81 222.976 162.782 223.004Z" fill="#293B1A"/>
<path d="M161.509 222.499C161.509 222.54 161.676 222.54 161.85 222.603C162.024 222.666 162.156 222.756 162.191 222.728C162.226 222.701 162.122 222.54 161.899 222.464C161.676 222.387 161.495 222.464 161.509 222.499Z" fill="#293B1A"/>
<path d="M160.601 222.259C160.601 222.291 160.652 222.35 160.743 222.382C160.834 222.414 160.925 222.421 160.938 222.382C160.95 222.343 160.886 222.291 160.795 222.252C160.704 222.214 160.614 222.22 160.601 222.259Z" fill="#293B1A"/>
<path d="M125.103 96.5017L130.955 220.092L149.708 220.482L144.846 113.688L157.545 220.029L176.703 220.51L161.711 95.1502" fill="#D3C6B1"/>
<path d="M139.782 220.268C139.685 220.268 138.34 192.654 136.787 158.588C135.233 124.523 134.056 96.8874 134.153 96.8804C134.251 96.8735 135.595 124.488 137.149 158.567C138.702 192.647 139.887 220.268 139.782 220.268Z" fill="#293B1A"/>
<path d="M167.788 219.277C167.683 219.277 164.305 192.464 160.271 159.367C156.237 126.269 153.019 99.456 153.124 99.4142C153.228 99.3724 156.607 126.221 160.633 159.325C164.66 192.429 167.885 219.263 167.788 219.277Z" fill="#293B1A"/>
<path d="M137.239 37.6883L133.811 38.3153C130.132 38.9924 126.762 40.8222 124.191 43.54L111.853 58.2529L123.445 67.2256L129.848 59.7368C129.848 59.7368 128.921 64.3276 129.109 65.0312C129.424 65.8588 129.941 66.5942 130.614 67.1699L130.412 79.765L125.103 96.4842L161.712 96.8674L158.925 79.1171L159.441 61.0465L165.585 68.0128L176.076 55.6615L164.233 43.756C161.963 41.3845 159.169 39.5763 156.076 38.4755C154.571 37.9392 152.997 37.6202 151.401 37.5281" fill="#293B1A"/>
<path d="M153.226 66.266C152.978 66.5256 152.669 66.7196 152.327 66.8302C151.526 67.1605 150.662 67.3081 149.796 67.2623C148.931 67.2165 148.087 66.9785 147.325 66.5655C146.995 66.4036 146.708 66.1647 146.489 65.8689C147.525 66.4061 148.652 66.744 149.812 66.8651C150.978 66.8834 152.136 66.6801 153.226 66.266Z" fill="#FAFAFA"/>
<path d="M123.754 43.426C123.947 43.2968 124.166 43.209 124.395 43.1683C125.021 43.0292 125.673 43.0605 126.283 43.2588C126.741 43.4002 127.165 43.6371 127.525 43.9542C127.885 44.2712 128.174 44.661 128.373 45.098C128.618 45.641 128.725 46.2365 128.684 46.8311C128.642 47.4256 128.454 48.0006 128.136 48.5045C127.792 48.992 127.329 49.3832 126.792 49.6405C126.254 49.8979 125.659 50.0129 125.064 49.9744C124.579 49.9421 124.109 49.7952 123.692 49.5457C123.276 49.2962 122.924 48.9513 122.667 48.5393C122.315 47.9996 122.135 47.3655 122.152 46.7211C122.141 46.4803 122.191 46.2407 122.298 46.0245C122.333 46.0245 122.298 46.2753 122.298 46.7211C122.326 47.3288 122.527 47.9158 122.876 48.4139C123.122 48.7771 123.449 49.0782 123.831 49.2934C124.213 49.5086 124.64 49.632 125.078 49.6539C125.611 49.6795 126.141 49.5703 126.621 49.3366C127.101 49.1028 127.514 48.752 127.822 48.3164C128.109 47.8635 128.28 47.3474 128.321 46.8132C128.362 46.279 128.272 45.7428 128.059 45.2512C127.884 44.847 127.626 44.4839 127.302 44.1852C126.978 43.8865 126.595 43.6588 126.178 43.5166C125.61 43.3106 125.001 43.2437 124.402 43.3215C124.188 43.3707 123.972 43.4056 123.754 43.426Z" fill="#FAFAFA"/>
<path d="M139.686 46.659C139.759 46.6648 139.83 46.6837 139.895 46.7147C140.097 46.7842 140.287 46.8828 140.46 47.0073C141.008 47.3941 141.442 47.922 141.716 48.5351C141.989 49.1482 142.092 49.8238 142.013 50.4904C141.923 51.1262 141.65 51.7218 141.226 52.2042C140.759 52.7796 140.127 53.1986 139.415 53.405C138.703 53.6113 137.945 53.5952 137.243 53.3588C136.54 53.1223 135.927 52.6769 135.484 52.082C135.042 51.4872 134.792 50.7715 134.768 50.0307C134.717 49.3921 134.847 48.7521 135.144 48.1846C135.411 47.7006 135.78 47.28 136.224 46.9515C136.86 46.4761 137.631 46.2151 138.425 46.2061C138.639 46.1991 138.852 46.2202 139.059 46.2688C139.199 46.2688 139.268 46.3315 139.268 46.3455C139.268 46.3594 138.962 46.3037 138.432 46.3455C137.684 46.407 136.971 46.6908 136.384 47.1605C135.946 47.486 135.599 47.9179 135.374 48.4153C135.15 48.9127 135.056 49.4591 135.102 50.0028C135.129 50.6742 135.359 51.3218 135.761 51.8597C136.164 52.3976 136.72 52.8006 137.357 53.0151C137.994 53.2296 138.681 53.2456 139.327 53.061C139.973 52.8764 140.548 52.4998 140.975 51.9812C141.367 51.5541 141.623 51.021 141.714 50.4486C141.791 49.9451 141.753 49.4305 141.602 48.9439C141.392 48.2212 140.964 47.5812 140.376 47.1118C139.958 46.7913 139.672 46.6938 139.686 46.659Z" fill="#FAFAFA"/>
<path d="M124.824 56.154C124.824 56.154 124.907 56.154 125.04 56.2097C125.241 56.2779 125.432 56.3766 125.604 56.5023C126.261 56.9509 126.751 57.6051 126.997 58.3623C127.176 58.886 127.233 59.4434 127.164 59.9924C127.074 60.6282 126.801 61.2238 126.377 61.7061C125.91 62.2816 125.278 62.7006 124.566 62.9069C123.854 63.1133 123.096 63.0972 122.394 62.8607C121.691 62.6243 121.078 62.1788 120.636 61.584C120.193 60.9892 119.943 60.2735 119.919 59.5327C119.863 58.8938 119.994 58.2525 120.295 57.6866C120.621 57.0974 121.095 56.604 121.671 56.2556C122.247 55.9072 122.904 55.716 123.577 55.7012C123.788 55.6992 123.998 55.7226 124.204 55.7708C124.35 55.8056 124.42 55.8335 124.413 55.8405C124.406 55.8475 124.113 55.8405 123.584 55.8405C122.834 55.9019 122.119 56.183 121.528 56.6486C121.093 56.9782 120.748 57.4118 120.524 57.9097C120.3 58.4075 120.205 58.9536 120.247 59.4978C120.275 60.169 120.506 60.8159 120.91 61.353C121.313 61.8902 121.87 62.2924 122.507 62.5066C123.144 62.7209 123.83 62.7371 124.476 62.5532C125.123 62.3692 125.698 61.9938 126.126 61.4763C126.513 61.0457 126.769 60.5142 126.865 59.9437C126.939 59.4377 126.901 58.9216 126.753 58.432C126.542 57.712 126.114 57.0747 125.527 56.6068C125.102 56.2863 124.81 56.1888 124.824 56.154Z" fill="#FAFAFA"/>
<path d="M151.134 54.5329C151.134 54.5329 151.21 54.533 151.343 54.5887C151.544 54.6582 151.734 54.7568 151.907 54.8813C152.456 55.2681 152.89 55.796 153.163 56.4091C153.437 57.0222 153.539 57.6978 153.461 58.3644C153.371 59.0002 153.097 59.5958 152.673 60.0782C152.206 60.6536 151.574 61.0726 150.863 61.279C150.151 61.4853 149.393 61.4692 148.69 61.2328C147.988 60.9963 147.374 60.5509 146.932 59.9561C146.49 59.3612 146.24 58.6455 146.216 57.9047C146.159 57.2757 146.28 56.6434 146.564 56.0795C146.831 55.5955 147.199 55.1749 147.644 54.8464C148.28 54.371 149.051 54.11 149.845 54.101C150.058 54.094 150.271 54.1151 150.479 54.1637C150.618 54.1986 150.688 54.2264 150.688 54.2404C150.688 54.2543 150.381 54.1986 149.852 54.2404C149.103 54.3019 148.39 54.5857 147.804 55.0554C147.366 55.3809 147.018 55.8128 146.794 56.3102C146.57 56.8076 146.476 57.354 146.522 57.8977C146.549 58.5691 146.778 59.2167 147.181 59.7546C147.584 60.2925 148.14 60.6955 148.777 60.91C149.414 61.1245 150.101 61.1405 150.747 60.9559C151.393 60.7713 151.967 60.3947 152.395 59.8761C152.786 59.449 153.043 58.9159 153.133 58.3435C153.211 57.84 153.173 57.3254 153.022 56.8388C152.812 56.1161 152.384 55.4761 151.796 55.0067C151.44 54.6862 151.12 54.5678 151.134 54.5329Z" fill="#FAFAFA"/>
<path d="M167.78 52.902C167.854 52.9074 167.928 52.9262 167.996 52.9577C168.195 53.0317 168.385 53.1299 168.56 53.2503C169.108 53.637 169.542 54.165 169.814 54.7783C170.086 55.3917 170.187 56.0673 170.106 56.7335C170.019 57.37 169.745 57.9664 169.319 58.4472C168.838 59.0023 168.206 59.4067 167.501 59.6119C166.795 59.817 166.045 59.8141 165.341 59.6036C164.654 59.3419 164.056 58.8896 163.617 58.2998C163.177 57.71 162.915 57.0071 162.861 56.2737C162.812 55.6345 162.945 54.9944 163.245 54.4276C163.505 53.9413 163.875 53.5218 164.324 53.2015C164.957 52.7228 165.726 52.4592 166.519 52.4492C166.732 52.4453 166.945 52.4664 167.153 52.5119C167.292 52.5537 167.362 52.5746 167.362 52.5885C167.362 52.6024 167.055 52.5537 166.526 52.5885C165.777 52.6508 165.064 52.9346 164.478 53.4036C164.04 53.729 163.692 54.1609 163.468 54.6583C163.243 55.1557 163.15 55.7021 163.196 56.2458C163.253 56.9084 163.494 57.5418 163.893 58.0738C164.292 58.6058 164.833 59.0152 165.453 59.2553C166.09 59.4481 166.77 59.4542 167.411 59.2727C168.051 59.0912 168.627 58.7297 169.068 58.2312C169.461 57.8012 169.72 57.2663 169.814 56.6917C169.887 56.188 169.849 55.6744 169.702 55.187C169.49 54.4654 169.062 53.8261 168.476 53.3548C168.051 53.0413 167.766 52.9368 167.78 52.902Z" fill="#FAFAFA"/>
<path d="M157.31 42.7797C157.383 42.7856 157.454 42.8045 157.519 42.8354C157.719 42.9094 157.908 43.0076 158.084 43.128C158.743 43.5776 159.234 44.2348 159.477 44.995C159.659 45.5155 159.716 46.0715 159.644 46.6181C159.554 47.2539 159.281 47.8495 158.857 48.3319C158.375 48.8878 157.742 49.2922 157.035 49.4961C156.328 49.7001 155.577 49.695 154.872 49.4813C154.186 49.2205 153.589 48.7692 153.151 48.1805C152.713 47.5918 152.452 46.8903 152.399 46.1584C152.348 45.5198 152.478 44.8798 152.775 44.3123C153.103 43.7254 153.578 43.2341 154.153 42.8871C154.729 42.5401 155.385 42.3494 156.057 42.3338C156.267 42.3299 156.478 42.3509 156.684 42.3965C156.83 42.3965 156.899 42.4592 156.899 42.4732C156.899 42.4871 156.593 42.4383 156.064 42.4732C155.315 42.5334 154.601 42.8174 154.015 43.2882C153.577 43.6137 153.23 44.0456 153.006 44.543C152.781 45.0404 152.688 45.5868 152.734 46.1305C152.762 46.8007 152.993 47.4465 153.396 47.983C153.798 48.5195 154.354 48.9216 154.989 49.1365C155.625 49.3513 156.31 49.3688 156.956 49.1866C157.601 49.0045 158.177 48.6312 158.606 48.1159C158.994 47.6835 159.25 47.1493 159.345 46.5763C159.422 46.0728 159.384 45.5582 159.233 45.0716C159.024 44.3489 158.595 43.7089 158.007 43.2395C157.582 42.919 157.297 42.8424 157.31 42.7797Z" fill="#FAFAFA"/>
<path d="M153.817 71.5782C153.817 71.5782 153.894 71.5782 154.033 71.6339C154.235 71.7021 154.425 71.8008 154.597 71.9265C155.255 72.3751 155.745 73.0293 155.991 73.7865C156.169 74.3102 156.226 74.8676 156.158 75.4166C156.068 76.0538 155.792 76.6502 155.364 77.1303C154.895 77.7021 154.263 78.1176 153.552 78.3216C152.841 78.5257 152.085 78.5087 151.384 78.2728C150.683 78.0369 150.071 77.5934 149.628 77.0011C149.186 76.4088 148.934 75.6958 148.906 74.9568C148.855 74.3176 148.988 73.6772 149.289 73.1108C149.554 72.6254 149.922 72.2044 150.369 71.8777C151.006 71.404 151.776 71.141 152.57 71.1254C152.781 71.1234 152.992 71.1468 153.197 71.195C153.336 71.2298 153.413 71.2507 153.406 71.2647C153.399 71.2786 153.106 71.2298 152.57 71.2647C151.823 71.3275 151.111 71.6085 150.522 72.0728C150.087 72.4024 149.741 72.836 149.517 73.3338C149.294 73.8317 149.198 74.3778 149.24 74.922C149.266 75.5934 149.496 76.241 149.899 76.7789C150.302 77.3169 150.858 77.7198 151.495 77.9343C152.132 78.1488 152.819 78.1648 153.465 77.9802C154.111 77.7956 154.685 77.419 155.113 76.9005C155.504 76.4721 155.763 75.9399 155.858 75.3679C155.932 74.8619 155.894 74.3458 155.747 73.8562C155.537 73.1352 155.109 72.4973 154.521 72.031C154.096 71.7105 153.803 71.613 153.817 71.5782Z" fill="#FAFAFA"/>
<path d="M152.716 86.7337C152.716 86.7337 152.792 86.7337 152.932 86.7825C153.131 86.8564 153.321 86.9547 153.496 87.0751C154.043 87.463 154.477 87.991 154.75 88.6038C155.023 89.2166 155.127 89.8917 155.049 90.5582C154.956 91.21 154.67 91.8189 154.227 92.3068C153.759 92.88 153.127 93.2967 152.416 93.5013C151.704 93.7058 150.948 93.6884 150.246 93.4514C149.545 93.2144 148.933 92.769 148.492 92.1749C148.05 91.5807 147.801 90.8661 147.776 90.1263C147.722 89.4876 147.852 88.8465 148.153 88.2802C148.42 87.7982 148.788 87.3798 149.232 87.0542C149.867 86.574 150.638 86.3103 151.434 86.3018C151.645 86.2964 151.856 86.3198 152.061 86.3715C152.207 86.3715 152.277 86.4272 152.27 86.4411C152.263 86.4551 151.97 86.4063 151.441 86.4411C150.691 86.5054 149.976 86.7888 149.386 87.2562C148.95 87.5854 148.604 88.0189 148.38 88.5169C148.156 89.0148 148.061 89.5611 148.104 90.1054C148.162 90.7678 148.405 91.4006 148.805 91.9315C149.205 92.4624 149.747 92.8701 150.368 93.1079C151.004 93.2993 151.682 93.3046 152.322 93.1231C152.961 92.9417 153.535 92.581 153.977 92.0838C154.369 91.6538 154.628 91.1189 154.722 90.5443C154.795 90.0406 154.757 89.527 154.61 89.0396C154.401 88.3186 153.973 87.6807 153.384 87.2144C152.994 86.8521 152.702 86.7337 152.716 86.7337Z" fill="#FAFAFA"/>
<path d="M134.56 88.2362C134.632 88.2421 134.703 88.261 134.769 88.292C134.968 88.3659 135.157 88.4642 135.333 88.5845C135.992 89.0342 136.483 89.6913 136.726 90.4515C136.908 90.9721 136.965 91.528 136.893 92.0747C136.803 92.7104 136.53 93.3061 136.106 93.7884C135.624 94.3443 134.991 94.7487 134.284 94.9527C133.577 95.1567 132.826 95.1515 132.121 94.9378C131.435 94.677 130.838 94.2257 130.4 93.637C129.962 93.0484 129.701 92.3468 129.648 91.6149C129.597 90.9764 129.727 90.3363 130.024 89.7688C130.352 89.1819 130.827 88.6907 131.402 88.3437C131.978 87.9967 132.634 87.806 133.306 87.7904C133.516 87.7864 133.727 87.8075 133.933 87.8531C134.079 87.8531 134.149 87.9158 134.149 87.9297C134.149 87.9436 133.842 87.8949 133.313 87.9297C132.564 87.9899 131.85 88.2739 131.264 88.7448C130.827 89.0708 130.479 89.5026 130.253 89.9997C130.028 90.4968 129.932 91.0429 129.976 91.587C130.034 92.2502 130.277 92.8837 130.677 93.4157C131.077 93.9477 131.619 94.3567 132.24 94.5965C132.878 94.785 133.556 94.7889 134.196 94.6076C134.836 94.4264 135.411 94.0675 135.855 93.5725C136.243 93.14 136.499 92.6059 136.594 92.0329C136.671 91.5294 136.633 91.0147 136.482 90.5282C136.273 89.8055 135.844 89.1655 135.256 88.696C134.831 88.3756 134.539 88.2711 134.56 88.2362Z" fill="#FAFAFA"/>
<path d="M138.543 63.3368C138.543 63.3368 138.62 63.3368 138.759 63.3925C138.959 63.465 139.149 63.5634 139.323 63.6851C139.979 64.1357 140.468 64.7892 140.716 65.5451C140.892 66.0695 140.947 66.6268 140.877 67.1753C140.787 67.811 140.513 68.4066 140.09 68.889C139.621 69.4607 138.989 69.8762 138.278 70.0803C137.567 70.2844 136.811 70.2673 136.11 70.0314C135.41 69.7956 134.797 69.352 134.354 68.7597C133.912 68.1674 133.66 67.4544 133.632 66.7155C133.579 66.0761 133.712 65.4349 134.015 64.8694C134.337 64.2793 134.809 63.7853 135.385 63.4377C135.96 63.0901 136.617 62.9014 137.289 62.891C137.502 62.8836 137.715 62.9046 137.923 62.9537C138.062 62.9537 138.132 63.0164 138.132 63.0303C138.132 63.0442 137.825 62.9885 137.296 63.0303C136.548 63.0926 135.835 63.3764 135.248 63.8454C134.81 64.1708 134.462 64.6027 134.238 65.1001C134.014 65.5975 133.92 66.1439 133.966 66.6876C133.992 67.359 134.222 68.0066 134.625 68.5445C135.028 69.0825 135.584 69.4854 136.221 69.6999C136.858 69.9144 137.545 69.9305 138.191 69.7458C138.837 69.5612 139.411 69.1847 139.839 68.6661C140.232 68.2393 140.491 67.7064 140.584 67.1335C140.655 66.6293 140.615 66.1156 140.466 65.6287C140.255 64.9081 139.83 64.2689 139.247 63.7966C138.815 63.4692 138.529 63.3716 138.543 63.3368Z" fill="#FAFAFA"/>
<path d="M142.037 77.1809C142.037 77.1809 142.114 77.1809 142.253 77.2367C142.454 77.3077 142.644 77.4061 142.817 77.5292C143.473 77.9798 143.963 78.6333 144.211 79.3893C144.386 79.9136 144.441 80.4709 144.371 81.0194C144.287 81.6569 144.013 82.2542 143.584 82.7331C143.115 83.3048 142.483 83.7204 141.772 83.9244C141.061 84.1285 140.305 84.1114 139.604 83.8756C138.904 83.6397 138.291 83.1961 137.848 82.6038C137.406 82.0115 137.154 81.2986 137.126 80.5596C137.076 79.9204 137.209 79.2801 137.509 78.7135C137.772 78.2267 138.141 77.8052 138.589 77.4805C139.223 77.0064 139.991 76.7455 140.783 76.7351C140.996 76.7277 141.21 76.7488 141.417 76.7978C141.556 76.7978 141.626 76.8605 141.626 76.8744C141.626 76.8884 141.32 76.8326 140.79 76.8744C140.042 76.9368 139.329 77.2205 138.742 77.6895C138.304 78.0149 137.956 78.4468 137.732 78.9442C137.508 79.4416 137.414 79.9881 137.46 80.5318C137.517 81.1944 137.759 81.8277 138.158 82.3597C138.557 82.8917 139.097 83.3011 139.717 83.5412C140.356 83.7332 141.035 83.7381 141.676 83.5554C142.317 83.3726 142.892 83.0099 143.333 82.5102C143.726 82.0834 143.985 81.5505 144.078 80.9776C144.152 80.4739 144.113 79.9603 143.967 79.4729C143.746 78.7631 143.317 78.1366 142.734 77.6755C142.316 77.3133 142.023 77.2158 142.037 77.1809Z" fill="#FAFAFA"/>
<path d="M138.454 38.2384C138.454 35.9047 138.412 33.8705 138.412 33.8705C138.412 33.8705 133.696 33.369 133.41 28.6945C133.125 24.0201 133.41 13.2362 133.41 13.2362L142 9.0564L151.439 16.1969L150.443 38.4544C150.375 39.9976 149.714 41.4551 148.598 42.5231C147.482 43.5911 145.997 44.1874 144.452 44.1877C142.87 44.1877 141.351 43.5625 140.228 42.4482C139.104 41.3339 138.467 39.8207 138.454 38.2384Z" fill="#FFBE9D"/>
<path d="M134.722 20.6914C134.722 20.8099 134.757 20.9257 134.823 21.0242C134.888 21.1228 134.982 21.1996 135.091 21.2449C135.201 21.2902 135.321 21.3021 135.438 21.279C135.554 21.2559 135.66 21.1988 135.744 21.115C135.828 21.0312 135.885 20.9245 135.908 20.8083C135.931 20.6921 135.919 20.5716 135.874 20.4621C135.829 20.3527 135.752 20.2591 135.654 20.1933C135.555 20.1274 135.439 20.0923 135.321 20.0923C135.242 20.0923 135.164 20.1078 135.091 20.1379C135.019 20.168 134.953 20.2121 134.897 20.2678C134.841 20.3234 134.797 20.3894 134.767 20.4621C134.737 20.5348 134.722 20.6127 134.722 20.6914Z" fill="#293B1A"/>
<path d="M133.841 20.4448C133.917 20.5215 134.356 20.1453 135.004 20.1104C135.652 20.0756 136.126 20.3891 136.195 20.2985C136.265 20.208 136.146 20.1174 135.937 19.9711C135.651 19.7895 135.315 19.7018 134.976 19.7203C134.638 19.7431 134.316 19.8724 134.057 20.0895C133.862 20.2567 133.799 20.41 133.841 20.4448Z" fill="#293B1A"/>
<path d="M142.36 21.2905C142.691 21.2905 142.959 21.0223 142.959 20.6914C142.959 20.3605 142.691 20.0923 142.36 20.0923C142.029 20.0923 141.761 20.3605 141.761 20.6914C141.761 21.0223 142.029 21.2905 142.36 21.2905Z" fill="#293B1A"/>
<path d="M140.992 20.4448C141.069 20.5215 141.507 20.1453 142.155 20.1104C142.803 20.0756 143.284 20.3891 143.347 20.2985C143.409 20.208 143.305 20.1174 143.089 19.9711C142.802 19.7895 142.466 19.7018 142.127 19.7203C141.79 19.7431 141.468 19.8724 141.208 20.0895C140.992 20.2567 140.943 20.41 140.992 20.4448Z" fill="#293B1A"/>
<path d="M138.661 25.888C138.316 25.9794 137.957 26.01 137.602 25.9786C137.505 25.9911 137.406 25.9911 137.309 25.9786C137.243 25.9638 137.181 25.9333 137.129 25.8897C137.077 25.846 137.036 25.7905 137.01 25.7278C136.95 25.4959 136.97 25.2507 137.066 25.0312C137.205 24.5923 137.337 24.1534 137.484 23.6867C137.797 22.5181 138.226 21.3839 138.765 20.301C138.573 21.4908 138.26 22.6579 137.832 23.7842L137.386 25.1217C137.309 25.272 137.275 25.4409 137.288 25.6094C137.288 25.6999 137.442 25.7278 137.609 25.7417C137.965 25.7306 138.321 25.7801 138.661 25.888Z" fill="#293B1A"/>
<path d="M138.411 33.8712C140.56 33.7617 142.633 33.0362 144.381 31.7813C144.381 31.7813 143.106 35.2157 138.418 35.0206L138.411 33.8712Z" fill="#EB996E"/>
<path d="M158.36 20.0922V20.9212C158.263 20.0574 158.019 18.0929 157.88 17.5565C155.33 7.8036 146.734 5.98539 145.069 5.98539C143.25 5.98539 140.116 5.03796 135.434 9.80295C131.582 13.725 132.369 19.3468 132.369 19.3468L134.111 19.0891L140.952 17.3196C141.934 15.2297 142.401 13.6275 142.853 12.5616C143.168 14.4847 144.121 16.2456 145.56 17.5602C146.998 18.8747 148.838 19.6661 150.781 19.8066L150.656 33.7881C159.761 31.8514 158.36 20.0922 158.36 20.0922Z" fill="#1C1C1C"/>
<path d="M139.932 27.4405C139.763 27.3198 139.557 27.2622 139.35 27.2774C139.142 27.2927 138.947 27.3799 138.797 27.5241C138.659 27.6785 138.583 27.878 138.583 28.0849C138.583 28.2917 138.659 28.4912 138.797 28.6456C138.945 28.792 139.146 28.874 139.354 28.874C139.563 28.874 139.763 28.792 139.911 28.6456C140.002 28.5398 140.066 28.4133 140.096 28.2773C140.126 28.1412 140.123 27.9998 140.086 27.8654C140.008 27.5931 139.832 27.3596 139.591 27.2106" fill="#EB996E"/>
<path d="M140.443 26.4332C140.485 26.4332 140.499 26.6562 140.381 26.9697C140.231 27.3862 139.959 27.748 139.6 28.0076C139.232 28.2626 138.794 28.3966 138.347 28.3908C138.005 28.3908 137.81 28.3002 137.817 28.2515C138.367 28.1552 138.899 27.9718 139.391 27.7081C140.123 27.1856 140.339 26.3984 140.443 26.4332Z" fill="#293B1A"/>
<path d="M143.017 18.7695C142.947 18.8392 142.515 18.3863 141.832 18.3585C141.15 18.3306 140.683 18.7347 140.613 18.658C140.543 18.5814 140.648 18.4699 140.864 18.3027C141.146 18.0851 141.497 17.9763 141.853 17.9962C142.208 18.0141 142.545 18.1544 142.808 18.3933C143.003 18.5814 143.079 18.7416 143.017 18.7695Z" fill="#293B1A"/>
<path d="M156.357 17.8254C156.54 16.6869 157 15.6105 157.695 14.6906C158.049 14.2382 158.51 13.8806 159.037 13.6496C159.563 13.4187 160.138 13.3216 160.711 13.367C161.121 13.4238 161.513 13.5739 161.856 13.8057C162.199 14.0374 162.484 14.3446 162.69 14.7038C162.896 15.063 163.017 15.4645 163.043 15.8776C163.07 16.2908 163.001 16.7044 162.843 17.087C162.545 17.6911 162.072 18.1915 161.485 18.5233C160.899 18.855 160.226 19.0026 159.555 18.947C158.205 18.8051 156.951 18.1819 156.023 17.1915" fill="#1C1C1C"/>
<path d="M37.7949 37.9684L50.4458 36.7423C50.606 35.3142 50.3553 28.3827 50.3553 28.3827C50.3553 28.3827 55.5104 27.8951 55.8796 22.8097C56.2488 17.7242 56.0677 5.9302 56.0677 5.9302C53.2399 4.50832 50.0839 3.86714 46.9255 4.07288C43.767 4.27863 40.7208 5.32383 38.1014 7.10054L37.3073 7.63695L37.7949 37.9684Z" fill="#B78876"/>
<path d="M53.1192 14.5445C53.0437 14.4762 52.9829 14.3931 52.9406 14.3004C52.8984 14.2077 52.8757 14.1073 52.8738 14.0054C52.8719 13.9035 52.8909 13.8023 52.9296 13.7081C52.9683 13.6139 53.026 13.5286 53.099 13.4575C53.172 13.3864 53.2588 13.331 53.354 13.2948C53.4492 13.2586 53.5509 13.2423 53.6527 13.2469C53.7544 13.2514 53.8542 13.2769 53.9458 13.3215C54.0374 13.3662 54.1188 13.4292 54.1851 13.5065C54.3084 13.6504 54.3722 13.8358 54.3637 14.0251C54.3551 14.2144 54.2748 14.3933 54.1391 14.5255C54.0033 14.6577 53.8224 14.7332 53.6329 14.7368C53.4435 14.7403 53.2598 14.6716 53.1192 14.5445Z" fill="#293B1A"/>
<path d="M55.5053 13.4959C55.4217 13.5795 54.948 13.1684 54.2444 13.1197C53.5408 13.0709 53.0044 13.4053 52.9347 13.3147C52.8651 13.2242 52.9905 13.1127 53.2204 12.9595C53.5336 12.761 53.9021 12.6681 54.272 12.6944C54.6418 12.7208 54.9935 12.8649 55.2754 13.1057C55.4844 13.2938 55.5471 13.461 55.5053 13.4959Z" fill="#293B1A"/>
<path d="M46.764 13.656C46.8847 13.7407 46.9775 13.8594 47.0307 13.9969C47.084 14.1344 47.0953 14.2846 47.0631 14.4285C47.031 14.5724 46.9569 14.7035 46.8502 14.8053C46.7435 14.9071 46.609 14.975 46.4638 15.0003C46.3185 15.0257 46.169 15.0074 46.0341 14.9477C45.8993 14.8881 45.7852 14.7898 45.7062 14.6653C45.6272 14.5407 45.5869 14.3956 45.5904 14.2482C45.594 14.1008 45.6412 13.9577 45.726 13.8371C45.8408 13.677 46.0139 13.5684 46.208 13.5345C46.4021 13.5007 46.6017 13.5443 46.764 13.656Z" fill="#293B1A"/>
<path d="M48.0294 13.6915C47.9389 13.7751 47.4652 13.3572 46.7616 13.3154C46.058 13.2736 45.5216 13.601 45.4519 13.5035C45.3822 13.4059 45.5076 13.3084 45.7375 13.1551C46.0507 12.9567 46.4193 12.8638 46.7891 12.8901C47.159 12.9165 47.5107 13.0606 47.7926 13.3014C48.0016 13.4895 48.0712 13.6567 48.0294 13.6915Z" fill="#293B1A"/>
<path d="M50.4941 19.661C50.8686 19.5464 51.259 19.4923 51.6505 19.5008C51.8316 19.5008 51.9849 19.459 52.0058 19.3545C52.0271 19.1677 51.9932 18.9788 51.9083 18.8111L51.4415 17.3482C50.9918 16.1075 50.6605 14.8269 50.4523 13.5237C51.0177 14.7165 51.4701 15.9596 51.8038 17.2367C51.957 17.7453 52.1033 18.2329 52.2427 18.7066C52.3464 18.9487 52.366 19.2185 52.2984 19.4729C52.2683 19.5403 52.2231 19.5999 52.1664 19.647C52.1096 19.6941 52.0427 19.7275 51.971 19.7446C51.8668 19.7572 51.7616 19.7572 51.6575 19.7446C51.2677 19.7823 50.8744 19.7541 50.4941 19.661Z" fill="#293B1A"/>
<path d="M50.3919 28.3141C48.0299 28.2176 45.7502 27.4197 43.8435 26.0222C43.8435 26.0222 45.195 29.791 50.3222 29.6377L50.3919 28.3141Z" fill="#A36957"/>
<path d="M38.3195 12.1475C38.208 12.1057 34.5298 11.632 34.8851 15.972C35.2404 20.3121 39.5108 18.5217 39.5038 18.3963C39.4968 18.2709 38.3195 12.1475 38.3195 12.1475Z" fill="#B78876"/>
<path d="M38.0489 16.9864C38.0489 16.9864 37.9792 17.0491 37.8538 17.1188C37.679 17.2062 37.4781 17.226 37.2895 17.1745C36.9961 17.0175 36.7491 16.7863 36.5731 16.5039C36.397 16.2215 36.2982 15.8979 36.2864 15.5653C36.2477 15.1937 36.2905 14.818 36.4118 14.4646C36.4416 14.3256 36.5047 14.1959 36.5957 14.0867C36.6867 13.9775 36.8029 13.892 36.9342 13.8377C37.0202 13.8091 37.1134 13.8108 37.1983 13.8424C37.2832 13.8741 37.3547 13.9339 37.401 14.0118C37.4637 14.1233 37.4428 14.2138 37.4706 14.2208C37.4985 14.2278 37.5542 14.1372 37.5055 13.963C37.4732 13.8566 37.4041 13.7652 37.3104 13.7053C37.1843 13.6251 37.0317 13.5976 36.8855 13.6287C36.7165 13.683 36.564 13.7792 36.4422 13.9083C36.3204 14.0374 36.2332 14.1952 36.1888 14.3671C36.0321 14.758 35.9747 15.1816 36.0217 15.6001C36.0321 15.9878 36.1566 16.3637 36.3797 16.6809C36.6027 16.9981 36.9144 17.2425 37.2756 17.3835C37.3972 17.4118 37.5238 17.4108 37.6449 17.3805C37.766 17.3502 37.8782 17.2916 37.9722 17.2094C38.0489 17.07 38.0698 16.9934 38.0489 16.9864Z" fill="#A36957"/>
<path d="M43.1651 3.13418C43.1651 3.13418 43.813 -0.453491 51.8243 0.0480858C52.9283 0.122985 53.9779 0.554947 54.8149 1.27878C55.6518 2.00262 56.2306 2.97905 56.4639 4.0607C56.9037 4.01962 57.342 4.1528 57.6847 4.4316C58.0273 4.71039 58.2468 5.11252 58.296 5.5515C58.3182 5.99243 58.2236 6.4314 58.0218 6.82405C57.82 7.2167 57.518 7.54912 57.1466 7.7877C56.3737 8.20569 55.5164 8.44382 54.6387 8.48433C49.2537 9.2785 45.4988 6.1715 42.7332 5.89285C39.9675 5.6142 40.9289 8.06635 40.9289 8.06635C41.7788 12.6711 40.1208 13.8554 38.7972 16.4817H38.1006L37.4736 12.8244C37.2307 12.5116 37.0574 12.1506 36.965 11.7655C36.5471 10.414 36.4286 8.97894 35.9619 7.65534C34.8612 4.55531 37.0138 3.02271 37.0138 3.02271C37.0138 3.02271 38.0379 1.30203 43.1651 3.13418Z" fill="#293B1A"/>
<path d="M50.6916 21.1622C50.6916 21.197 50.615 21.3572 50.3503 21.4896C50.1711 21.5731 49.9768 21.6193 49.7791 21.6253C49.5815 21.6313 49.3848 21.597 49.2008 21.5244C49.0181 21.4506 48.8519 21.3411 48.712 21.2024C48.5721 21.0636 48.4612 20.8984 48.3858 20.7163C48.2813 20.4377 48.3161 20.2496 48.3858 20.2426C48.4554 20.2356 48.6505 20.9392 49.3541 21.19C50.0577 21.4408 50.6429 21.0786 50.6916 21.1622Z" fill="#293B1A"/>
<path d="M47.256 10.8696C47.2072 10.9671 46.7056 10.793 46.0786 10.8696C45.4517 10.9462 44.978 11.1552 44.9153 11.0716C44.8526 10.988 45.3123 10.5631 46.0508 10.5074C46.7892 10.4516 47.3117 10.7999 47.256 10.8696Z" fill="#293B1A"/>
<path d="M54.5134 10.8324C54.4647 10.9229 54.0049 10.7488 53.4336 10.6861C52.8624 10.6234 52.3748 10.6861 52.3399 10.5886C52.3051 10.491 52.8067 10.2542 53.4685 10.3308C54.1303 10.4074 54.5622 10.7488 54.5134 10.8324Z" fill="#293B1A"/>
<path d="M43.6994 0.109312C43.6994 0.158076 43.4765 0.151108 43.2118 0.325267C43.0522 0.448802 42.9247 0.60881 42.8399 0.791852C42.755 0.974894 42.7153 1.17563 42.7241 1.37719C42.7203 1.80138 42.8336 2.2184 43.0515 2.58236C43.2187 2.86798 43.372 3.02125 43.3441 3.06304C43.3163 3.10484 43.0933 3.01428 42.8425 2.72866C42.5107 2.34202 42.3366 1.84459 42.3549 1.33539C42.3492 1.07745 42.4152 0.822992 42.5456 0.600361C42.6759 0.37773 42.8656 0.195674 43.0933 0.0744778C43.4695 -0.057883 43.7203 0.0675135 43.6994 0.109312Z" fill="#293B1A"/>
<path d="M45.3057 222.115V215.685L33.2609 215.56L33.1215 224.964L33.8669 225.027C37.1899 225.243 50.7743 225.905 53.0035 225.257C55.5183 224.532 45.3057 222.115 45.3057 222.115Z" fill="#1C1C1C"/>
<g opacity="0.4">
<path d="M37.5137 224.92C37.3462 223.901 36.8077 222.981 36.002 222.336C35.2218 221.691 34.2256 221.367 33.2154 221.43L33.1736 224.795L37.5137 224.92Z" fill="black"/>
</g>
<path opacity="0.4" d="M50.2918 223.474C50.2918 223.474 53.8725 224.547 53.4197 225.132C52.9668 225.717 39.2083 225.564 33.1476 224.964V224.7L49.1702 225.013C49.1702 225.013 49.5951 223.495 50.2918 223.474Z" fill="black"/>
<path d="M32.9771 224.662H33.1861L33.7782 224.704L35.9657 224.822C37.8187 224.913 40.3684 224.996 43.1967 225.031C46.0251 225.066 48.5748 225.031 50.4278 224.996L52.6152 224.927H53.2143H53.4164C53.3494 224.916 53.2813 224.916 53.2143 224.927H52.6152H50.4278C48.5748 224.927 46.0181 224.927 43.1967 224.927C40.3754 224.927 37.8187 224.822 35.9726 224.759L33.7782 224.69H33.1861C33.1177 224.673 33.0476 224.663 32.9771 224.662Z" fill="#293B1A"/>
<path d="M49.2058 225.204C49.367 224.463 49.7838 223.802 50.3831 223.337C50.005 223.466 49.6908 223.735 49.5053 224.089C49.2705 224.411 49.1637 224.808 49.2058 225.204Z" fill="#293B1A"/>
<path d="M45.6721 223.36C45.707 223.36 45.8742 223.172 46.0553 222.9C46.2364 222.629 46.3548 222.385 46.32 222.364C46.2852 222.343 46.111 222.545 45.9369 222.817C45.7627 223.088 45.6373 223.332 45.6721 223.36Z" fill="#293B1A"/>
<path d="M44.706 222.83C44.706 222.83 44.922 222.733 45.131 222.552C45.3399 222.37 45.4862 222.196 45.4653 222.161C45.4444 222.127 45.2424 222.259 45.0334 222.44C44.8244 222.621 44.6781 222.802 44.706 222.83Z" fill="#293B1A"/>
<path d="M44.0984 221.687C44.2982 221.762 44.5128 221.791 44.7254 221.771C44.9382 221.799 45.1548 221.78 45.3593 221.715C44.9452 221.613 44.5125 221.613 44.0984 221.715V221.687Z" fill="#293B1A"/>
<path d="M43.8963 220.881C44.1012 221.022 44.3441 221.098 44.5929 221.097C44.829 221.134 45.0708 221.103 45.2895 221.007C45.0595 220.967 44.8263 220.948 44.5929 220.951C44.3629 220.909 44.13 220.886 43.8963 220.881Z" fill="#293B1A"/>
<path d="M46.0904 222.314C46.3461 222.36 46.608 222.36 46.8637 222.314C47.1451 222.283 47.4227 222.225 47.6927 222.139C47.8575 222.096 48.0165 222.033 48.1664 221.951C48.2586 221.9 48.3282 221.815 48.3615 221.715C48.375 221.657 48.3717 221.597 48.352 221.541C48.3322 221.486 48.2968 221.437 48.25 221.401C47.9569 221.247 47.6186 221.202 47.2957 221.275C46.9727 221.348 46.6862 221.533 46.4875 221.798C46.3666 221.95 46.2788 222.126 46.2297 222.314C46.1949 222.446 46.1949 222.523 46.2297 222.523C46.3062 222.282 46.4267 222.058 46.585 221.861C46.7729 221.658 47.0145 221.513 47.2817 221.443C47.5853 221.343 47.9161 221.368 48.2012 221.513C48.3266 221.61 48.2779 221.749 48.1385 221.833C47.9972 221.905 47.8504 221.965 47.6997 222.014C47.4388 222.102 47.1707 222.168 46.8985 222.209C46.39 222.293 46.0904 222.293 46.0904 222.314Z" fill="#293B1A"/>
<path d="M46.2893 222.354C46.3864 222.193 46.4211 222.002 46.3868 221.817C46.364 221.615 46.2922 221.422 46.1778 221.253C46.1141 221.137 46.0218 221.039 45.9097 220.968C45.7975 220.897 45.6692 220.856 45.5369 220.849C45.4594 220.867 45.3914 220.914 45.3463 220.98C45.3013 221.045 45.2823 221.125 45.2931 221.204C45.3126 221.328 45.3576 221.447 45.4254 221.553C45.5244 221.726 45.6462 221.886 45.7877 222.026C45.9042 222.167 46.0555 222.275 46.2266 222.34C46.2266 222.34 46.0733 222.201 45.8573 221.957C45.7362 221.811 45.6312 221.652 45.5439 221.483C45.4394 221.323 45.3697 221.023 45.5439 220.995C45.718 220.968 45.934 221.17 46.0454 221.33C46.1553 221.478 46.2292 221.65 46.2614 221.831C46.2855 222.004 46.2948 222.179 46.2893 222.354Z" fill="#293B1A"/>
<path d="M33.2649 221.396C33.2649 221.396 33.6063 221.396 34.1496 221.437C34.8592 221.525 35.5301 221.81 36.0863 222.259C36.634 222.715 37.046 223.313 37.2775 223.987C37.4586 224.503 37.4726 224.851 37.5004 224.851C37.5138 224.77 37.5138 224.688 37.5004 224.607C37.486 224.384 37.4439 224.164 37.375 223.952C37.1651 223.243 36.7478 222.612 36.1768 222.141C35.5997 221.68 34.8994 221.399 34.1636 221.333C33.9435 221.311 33.7218 221.311 33.5018 221.333C33.4193 221.337 33.3387 221.359 33.2649 221.396Z" fill="#293B1A"/>
<path d="M34.5689 216.395C34.4767 217.216 34.4325 218.042 34.4366 218.868C34.3858 219.694 34.3858 220.522 34.4366 221.348C34.5287 220.527 34.5729 219.701 34.5689 218.875C34.6199 218.049 34.6199 217.221 34.5689 216.395Z" fill="#293B1A"/>
<path d="M39.0438 223.762C39.6169 223.909 40.2079 223.975 40.7993 223.957C41.3894 223.991 41.9815 223.951 42.5618 223.839C42.5618 223.797 41.7676 223.839 40.7993 223.839C39.831 223.839 39.0438 223.72 39.0438 223.762Z" fill="#293B1A"/>
<path d="M36.687 223.728C36.687 223.728 36.7497 223.895 36.8264 224.077C36.903 224.258 36.9448 224.418 36.9866 224.418C37.0284 224.418 37.0493 224.23 36.9866 224.021C36.9239 223.812 36.7149 223.7 36.687 223.728Z" fill="#293B1A"/>
<path d="M35.805 222.619C35.805 222.619 35.8538 222.772 35.9722 222.898C36.0907 223.023 36.223 223.107 36.2509 223.079C36.2788 223.051 36.2021 222.926 36.0767 222.8C35.9513 222.675 35.8329 222.577 35.805 222.619Z" fill="#293B1A"/>
<path d="M34.538 222.094C34.538 222.136 34.7052 222.136 34.8794 222.199C35.0535 222.261 35.1859 222.359 35.2138 222.331C35.2416 222.303 35.1511 222.136 34.9281 222.059C34.7052 221.983 34.5241 222.059 34.538 222.094Z" fill="#293B1A"/>
<path d="M33.6105 221.873C33.6105 221.912 33.6623 221.97 33.753 222.003C33.8438 222.035 33.9345 222.042 33.9474 222.003C33.9604 221.964 33.8956 221.912 33.8049 221.873C33.7141 221.834 33.6429 221.808 33.6105 221.873Z" fill="#293B1A"/>
<path d="M57.9334 220.006L59.5356 213.778L47.8949 210.734L45.4566 219.79L46.1533 220.027C49.323 221.058 62.3291 225.036 64.6489 224.959C67.2335 224.855 57.9334 220.006 57.9334 220.006Z" fill="#1C1C1C"/>
<g opacity="0.4">
<path d="M49.6894 220.808C49.7778 219.779 49.4825 218.754 48.8604 217.93C48.2523 217.113 47.3599 216.554 46.3594 216.363L45.4956 219.616L49.6894 220.808Z" fill="black"/>
</g>
<path opacity="0.4" d="M62.4336 222.574C62.4336 222.574 65.6382 224.497 65.053 224.949C64.4678 225.402 51.176 221.877 45.4566 219.787L45.5472 219.53L61.0195 223.779C61.0195 223.779 61.744 222.393 62.4336 222.574Z" fill="black"/>
<path d="M45.3522 219.471C45.413 219.506 45.4788 219.532 45.5473 219.548L46.1116 219.736L48.2015 220.391C49.9709 220.927 52.43 221.638 55.1678 222.362C57.9056 223.087 60.3786 223.693 62.1829 224.111L64.3216 224.584L64.9068 224.703C64.976 224.713 65.0465 224.713 65.1157 224.703L64.9137 224.647L64.3355 224.501L62.2456 223.978C60.4483 223.539 57.9683 222.919 55.2375 222.195C52.5067 221.47 50.0545 220.802 48.2711 220.258L46.1812 219.652L45.61 219.492C45.5251 219.475 45.4387 219.468 45.3522 219.471Z" fill="#293B1A"/>
<path d="M60.9523 223.967C61.1343 223.639 61.3566 223.335 61.6141 223.062C61.9011 222.821 62.2142 222.613 62.5476 222.442C62.15 222.48 61.7804 222.663 61.5096 222.957C61.2054 223.213 61.0069 223.573 60.9523 223.967Z" fill="#293B1A"/>
<path d="M57.9947 221.298C57.9947 221.298 58.2385 221.173 58.4754 220.95C58.7123 220.727 58.8934 220.518 58.8655 220.49C58.8377 220.462 58.6217 220.615 58.3779 220.838C58.134 221.061 57.9529 221.27 57.9947 221.298Z" fill="#293B1A"/>
<path d="M57.1654 220.545C57.1654 220.586 57.4023 220.544 57.653 220.384C57.9038 220.224 58.0849 220.127 58.071 220.085C58.0571 220.043 57.8342 220.127 57.5834 220.252C57.3326 220.377 57.1515 220.482 57.1654 220.545Z" fill="#293B1A"/>
<path d="M56.8645 219.295C57.0389 219.418 57.2391 219.499 57.4497 219.532C57.6474 219.616 57.8628 219.649 58.0767 219.629C57.901 219.509 57.7013 219.428 57.4915 219.392C57.2928 219.312 57.0782 219.279 56.8645 219.295Z" fill="#293B1A"/>
<path d="M56.8645 218.465C57.031 218.651 57.2495 218.782 57.4915 218.841C57.7097 218.94 57.9521 218.971 58.1881 218.932C57.9623 218.837 57.7294 218.76 57.4915 218.702C57.2895 218.606 57.0798 218.526 56.8645 218.465Z" fill="#293B1A"/>
<path d="M58.6408 220.39C58.8788 220.497 59.1332 220.563 59.3932 220.585C59.6725 220.623 59.9547 220.635 60.2361 220.62C60.4049 220.615 60.5729 220.594 60.7377 220.557C60.8405 220.526 60.9291 220.459 60.9885 220.369C61.0162 220.318 61.0277 220.259 61.0215 220.2C61.0153 220.142 60.9917 220.087 60.9537 220.042C60.7076 219.821 60.391 219.695 60.0605 219.686C59.7299 219.677 59.407 219.786 59.1494 219.993C58.9941 220.108 58.8658 220.255 58.7732 220.425C58.7105 220.543 58.6896 220.62 58.7035 220.627C58.836 220.413 59.0087 220.226 59.2121 220.077C59.4321 219.926 59.6908 219.841 59.9575 219.833C60.1159 219.821 60.2752 219.84 60.4259 219.891C60.5767 219.941 60.7158 220.021 60.8352 220.126C60.9328 220.251 60.8352 220.376 60.6959 220.418C60.5434 220.458 60.3868 220.482 60.2292 220.488C59.9532 220.509 59.6761 220.509 59.4002 220.488C58.9334 220.446 58.6478 220.369 58.6408 220.39Z" fill="#293B1A"/>
<path d="M58.8273 220.488C58.9564 220.354 59.0351 220.179 59.0502 219.994C59.0743 219.789 59.0528 219.582 58.9875 219.387C58.9559 219.259 58.8909 219.141 58.7992 219.046C58.7075 218.95 58.5922 218.881 58.465 218.844C58.3848 218.84 58.3064 218.868 58.2464 218.921C58.1865 218.975 58.1499 219.05 58.1446 219.13C58.1291 219.252 58.1435 219.376 58.1864 219.492C58.2383 219.685 58.3156 219.87 58.4162 220.042C58.4975 220.207 58.6169 220.351 58.7646 220.46C58.7646 220.46 58.6531 220.286 58.5068 219.994C58.4256 219.821 58.3603 219.641 58.3117 219.457C58.256 219.276 58.256 218.969 58.4581 218.99C58.6601 219.011 58.7855 219.255 58.8621 219.436C58.9315 219.608 58.9601 219.794 58.9457 219.98C58.9196 220.152 58.8801 220.322 58.8273 220.488Z" fill="#293B1A"/>
<path d="M46.4297 216.351C46.4297 216.351 46.778 216.406 47.2866 216.608C47.952 216.867 48.5308 217.308 48.9561 217.881C49.3813 218.454 49.6358 219.136 49.69 219.848C49.7318 220.398 49.69 220.732 49.69 220.739C49.7225 220.664 49.7436 220.584 49.7527 220.503C49.7885 220.284 49.8025 220.062 49.7945 219.841C49.7694 219.104 49.5271 218.392 49.0978 217.793C48.6564 217.2 48.0473 216.754 47.3493 216.511C47.139 216.438 46.9219 216.387 46.7014 216.358C46.6122 216.337 46.5199 216.335 46.4297 216.351Z" fill="#293B1A"/>
<path d="M48.9399 211.818C48.6671 212.595 48.4346 213.385 48.2432 214.186C47.9987 214.975 47.7987 215.778 47.6441 216.59C47.9368 215.815 48.1834 215.024 48.3826 214.221C48.6192 213.432 48.8053 212.63 48.9399 211.818Z" fill="#293B1A"/>
<path d="M51.4581 220.059C51.9786 220.338 52.5338 220.546 53.1091 220.679C53.6724 220.863 54.2585 220.968 54.8507 220.992C54.8507 220.95 54.0844 220.797 53.1509 220.539C52.2174 220.282 51.472 220.017 51.4581 220.059Z" fill="#293B1A"/>
<path d="M49.173 219.451C49.1382 219.451 49.173 219.626 49.2218 219.821C49.2705 220.016 49.2566 220.183 49.2984 220.19C49.3402 220.197 49.4098 220.023 49.368 219.8C49.3262 219.577 49.2078 219.431 49.173 219.451Z" fill="#293B1A"/>
<path d="M48.5978 218.152C48.5978 218.152 48.5978 218.312 48.6954 218.466C48.7929 218.619 48.8835 218.73 48.9183 218.709C48.9531 218.688 48.9183 218.549 48.8208 218.396C48.7232 218.243 48.6327 218.131 48.5978 218.152Z" fill="#293B1A"/>
<path d="M47.4939 217.338C47.4939 217.38 47.6471 217.421 47.8074 217.526C47.9676 217.63 48.0582 217.756 48.093 217.735C48.1278 217.714 48.093 217.533 47.884 217.401C47.675 217.268 47.4939 217.296 47.4939 217.338Z" fill="#293B1A"/>
<path d="M46.6844 216.879C46.6844 216.879 46.6844 216.976 46.7946 217.035C46.9047 217.093 46.9566 217.119 46.976 217.086C46.9955 217.054 46.976 216.989 46.8723 216.931C46.7687 216.872 46.7103 216.847 46.6844 216.879Z" fill="#293B1A"/>
<path d="M64.0292 90.2721C62.3083 91.5019 60.6635 92.8349 59.1039 94.2638C57.6271 95.6153 60.546 103.634 62.1482 102.219C63.7505 100.805 68.1323 95.253 68.1323 95.253L64.0292 90.2721Z" fill="#B78876"/>
<path d="M61.9196 102.36C61.9196 102.36 66.4756 101.844 66.3432 100.904C66.139 100.127 65.7521 99.4104 65.2147 98.8137L61.9196 102.36Z" fill="#A36957"/>
<path d="M63.7118 97.2596L49.5353 96.1937L26.2189 94.3407L29.0054 219.547L49.2427 219.254C49.2427 219.254 49.2427 217.861 49.1939 215.416L61.0367 218.641C61.0367 218.641 72.5451 179.567 76.4602 163.523C79.7623 150.127 63.7118 97.2596 63.7118 97.2596ZM48.9362 195.945C48.5809 167.048 48.1559 117.922 48.5669 111.889C48.5669 111.889 59.9012 155.136 60.0196 158.563C60.0823 160.625 53.8614 180.605 48.9362 195.945Z" fill="#293B1A"/>
<path d="M49.3612 214.493C49.3612 214.605 44.8331 214.702 39.2531 214.709C33.673 214.716 29.1379 214.633 29.1379 214.528C29.1379 214.424 33.666 214.319 39.2461 214.312C44.8261 214.305 49.3612 214.382 49.3612 214.493Z" fill="#D3C6B1"/>
<path d="M49.1856 209.996C49.8184 210.142 50.4382 210.34 51.0386 210.588L55.6712 212.197L60.3039 213.806C60.9595 213.995 61.5962 214.245 62.2057 214.552C61.5293 214.463 60.864 214.304 60.2203 214.078C59.0081 213.73 57.3501 213.207 55.5389 212.573C53.7276 211.939 52.1045 211.326 50.9341 210.853C50.314 210.65 49.7254 210.362 49.1856 209.996Z" fill="#D3C6B1"/>
<path d="M48.8884 193.416C48.9445 193.74 48.9655 194.069 48.9511 194.398C48.9511 195.095 48.9511 195.993 48.9929 197.066C48.9929 199.386 49.0834 202.465 49.1322 205.872C49.181 209.278 49.3203 212.35 49.3899 214.67C49.3899 215.743 49.4457 216.642 49.4666 217.338C49.4952 217.665 49.4952 217.994 49.4666 218.321C49.3906 218.001 49.3485 217.674 49.3412 217.345C49.2855 216.718 49.2158 215.806 49.1461 214.684C49.0068 212.434 48.8675 209.32 48.7908 205.879C48.7142 202.437 48.7142 199.323 48.749 197.066C48.749 195.938 48.7978 195.025 48.8257 194.391C48.8148 194.065 48.8358 193.738 48.8884 193.416Z" fill="#D3C6B1"/>
<path d="M67.335 158.163C66.0843 158.453 64.8077 158.616 63.5244 158.651C62.2496 158.819 60.9606 158.851 59.6789 158.748C60.9306 158.45 62.2101 158.284 63.4965 158.254C64.7693 158.09 66.0558 158.06 67.335 158.163Z" fill="#D3C6B1"/>
<path d="M66.0251 160.437C65.0258 160.358 64.0416 160.145 63.0993 159.803C62.13 159.59 61.1931 159.251 60.3127 158.793C61.3096 158.868 62.2916 159.079 63.2316 159.42C64.2032 159.635 65.1424 159.977 66.0251 160.437Z" fill="#D3C6B1"/>
<path d="M49.815 96.3446C49.9092 97.1374 49.9464 97.9359 49.9265 98.7341C49.9265 100.204 49.9265 102.217 49.9265 104.488C49.9265 105.61 49.9265 106.676 49.8847 107.658C49.9096 108.543 49.7482 109.424 49.411 110.242C49.1631 110.8 48.7712 111.281 48.2755 111.636C48.103 111.774 47.9 111.87 47.6833 111.914C47.8461 111.776 48.0159 111.646 48.1919 111.524C48.624 111.157 48.9609 110.691 49.1741 110.166C49.4662 109.371 49.5942 108.525 49.5503 107.679C49.5503 106.697 49.5503 105.631 49.5503 104.516C49.5503 102.266 49.5991 100.232 49.6409 98.755C49.6359 97.9482 49.6941 97.1423 49.815 96.3446Z" fill="#D3C6B1"/>
<path d="M66.6918 43.0974L82.1292 60.4367C86.6643 65.9192 85.7935 73.2199 82.1989 79.3643C78.3866 85.6256 73.9521 91.4861 68.9628 96.8568C68.8931 96.9543 62.7279 88.2324 62.7279 88.2324C62.7279 88.2324 72.2648 72.9691 70.7323 69.479C69.1997 65.9889 58.8895 53.2753 58.8895 53.2753L66.6918 43.0974Z" fill="#D3C6B1"/>
<path d="M62.0421 57.2074L62.4949 80.6909L64.32 97.4101L25.622 95.0068L27.6492 75.501L25.6708 54.9503L14.9217 45.894C15.6601 44.9048 16.3753 43.9922 17.0673 43.1563C21.8671 37.3812 30.1222 33.7726 37.625 33.5079C37.625 33.5079 39.2621 36.1899 45.4761 36.2944C49.8231 36.378 50.6451 33.4661 50.6451 33.4661C53.5361 33.6472 61.4917 35.0056 67.6639 44.1803" fill="#D3C6B1"/>
<path d="M18.4472 41.9624L3.06552 59.3783C-1.45564 64.8817 -0.563944 72.1685 3.06552 78.3058C8.56197 87.6407 18.7468 98.3898 18.6562 98.3062C18.5656 98.2226 25.0583 90.2183 25.0583 90.2183C25.0583 90.2183 12.9368 71.848 14.4625 68.3579C15.9881 64.8677 27.2666 53.4569 27.2666 53.4569L18.4472 41.9624Z" fill="#D3C6B1"/>
<path d="M65.4859 41.981C65.4241 42.1287 65.3421 42.267 65.2421 42.392C64.9671 42.7608 64.6464 43.0932 64.2877 43.3813C62.9186 44.4056 61.2462 44.9427 59.5366 44.9069C58.3591 44.887 57.1888 44.7185 56.0535 44.4053C54.8344 44.0918 53.5734 43.646 52.2498 43.1932C50.8934 42.7002 49.4941 42.334 48.07 42.0994C46.5304 41.8916 44.9643 42.0078 43.4722 42.4408C40.4001 43.2907 37.6135 44.8512 34.7225 45.0114C34.0236 45.0542 33.3222 45.0144 32.6326 44.893C31.9883 44.7627 31.3617 44.5569 30.7656 44.2799C29.7134 43.7765 28.7164 43.1648 27.791 42.4547C26.4918 41.4188 25.1128 40.487 23.6669 39.6682C22.615 39.1318 21.9671 38.9716 21.981 38.9716C22.1402 38.9916 22.2967 39.029 22.4478 39.083C22.8885 39.2076 23.3175 39.3708 23.7296 39.5707C25.2131 40.3561 26.6236 41.2723 27.9442 42.3084C28.8647 42.9916 29.852 43.5798 30.891 44.064C31.4677 44.3187 32.0704 44.5102 32.6883 44.6352C33.3483 44.7487 34.0197 44.7814 34.6877 44.7327C37.4742 44.5655 40.2259 43.019 43.3677 42.1482C44.9045 41.6988 46.5189 41.5801 48.1049 41.7999C49.5636 42.0409 50.996 42.4211 52.3822 42.9354C53.7058 43.3952 54.9528 43.848 56.151 44.1684C57.251 44.485 58.3857 44.6652 59.5297 44.7049C61.195 44.7559 62.8323 44.2672 64.1971 43.3116C64.6812 42.9243 65.1143 42.4772 65.4859 41.981Z" fill="#293B1A"/>
<path d="M74.4117 51.5506L74.2445 51.5018L73.7847 51.3276C73.1866 51.1103 72.5745 50.9334 71.9526 50.7982C69.674 50.2854 67.305 50.3332 65.0489 50.9375C64.3056 51.1346 63.5807 51.3956 62.8824 51.7178C62.1858 52.0521 61.4264 52.4701 60.6601 52.8951C59.8732 53.3533 59.0481 53.7425 58.1941 54.0584C57.7413 54.2155 57.2748 54.3298 56.8008 54.3998C56.3054 54.4555 55.8053 54.4555 55.31 54.3998C53.2897 54.149 51.4855 53.0065 49.5279 52.2333C48.5455 51.8203 47.4934 51.5981 46.4279 51.5784C45.3277 51.6044 44.2379 51.797 43.1955 52.1497C41.0568 52.8463 39.0645 53.8494 36.9258 54.3232C34.8728 54.7628 32.7359 54.5883 30.7815 53.8216C29.0399 53.1462 27.3634 52.3138 25.7727 51.3346C24.3929 50.5041 22.962 49.7619 21.4884 49.1123C19.3712 48.1085 16.9865 47.8153 14.6892 48.2764C13.8619 48.4914 13.0725 48.8321 12.3485 49.2865L12.4809 49.175C12.612 49.0717 12.7493 48.9763 12.8919 48.8894C13.4399 48.5516 14.0368 48.3002 14.6613 48.144C15.648 47.8921 16.67 47.8073 17.6847 47.8932C19.029 48.0116 20.3458 48.3432 21.5859 48.8755C23.0778 49.5169 24.5254 50.2569 25.919 51.0908C27.5022 52.0459 29.1667 52.8595 30.8929 53.522C32.7906 54.254 34.8606 54.4162 36.8492 53.9888C38.9391 53.529 40.8966 52.5189 43.0701 51.8222C44.147 51.4524 45.2755 51.255 46.414 51.2371C47.5265 51.2567 48.6245 51.4933 49.6463 51.9337C51.6387 52.7279 53.4221 53.8494 55.3378 54.0933C55.8007 54.1478 56.2683 54.1478 56.7311 54.0933C57.189 54.0359 57.6396 53.9308 58.0756 53.7798C58.9137 53.4716 59.7246 53.0941 60.4999 52.6512C61.2662 52.2402 62.0046 51.8153 62.75 51.4879C63.4646 51.1644 64.2058 50.9034 64.9653 50.7076C67.2654 50.1276 69.6734 50.1276 71.9735 50.7076C72.8198 50.8801 73.6396 51.1635 74.4117 51.5506Z" fill="#293B1A"/>
<path d="M62.2388 65.2067C62.1496 65.2982 62.0489 65.3778 61.9393 65.4436C61.624 65.6432 61.2744 65.7825 60.9082 65.8546C59.5529 66.082 58.1606 65.836 56.9653 65.1579C56.192 64.7818 55.3909 64.2941 54.5062 63.8622C53.5602 63.4072 52.5537 63.0905 51.5176 62.9217C49.115 62.6144 46.6766 62.7465 44.3214 63.3119C41.7926 63.8343 39.3962 64.5031 37.153 64.7957C35.1638 65.1176 33.1308 65.0466 31.1689 64.5867C29.8441 64.2802 28.6012 63.6908 27.5255 62.859C27.2321 62.6354 26.9614 62.3834 26.7174 62.1067C26.6239 62.0175 26.5419 61.9168 26.4736 61.8071C26.4736 61.8071 26.8498 62.1903 27.6091 62.7476C28.6962 63.519 29.9286 64.0617 31.2316 64.3429C33.1632 64.7443 35.1533 64.7773 37.0973 64.4404C39.3126 64.1269 41.695 63.4582 44.2447 62.9287C46.6415 62.3536 49.1245 62.2307 51.5664 62.5665C52.631 62.7483 53.6635 63.0838 54.6316 63.5627C55.5302 64.0224 56.3174 64.517 57.0698 64.9002C58.2129 65.5844 59.5503 65.871 60.8734 65.7153C61.3532 65.6214 61.8145 65.4496 62.2388 65.2067Z" fill="#293B1A"/>
<path d="M62.6947 75.0386C62.0279 74.4756 61.2453 74.0664 60.4025 73.8401C59.5597 73.6137 58.6773 73.5758 57.8182 73.7289C56.209 73.8752 54.4047 74.6137 52.3427 75.2824C51.2602 75.6573 50.134 75.8915 48.9918 75.9791C47.7679 76.0467 46.5403 75.9696 45.3345 75.7492C42.8614 75.3173 40.5974 74.551 38.5144 74.0285C36.6827 73.5281 34.7914 73.2797 32.8926 73.2901C31.6133 73.3065 30.3478 73.5567 29.1586 74.0285C28.3227 74.3838 27.9047 74.6764 27.8838 74.6415C27.8629 74.6067 27.9813 74.5579 28.1833 74.4186C28.4746 74.2227 28.7796 74.0481 29.0959 73.8961C30.2888 73.3654 31.5736 73.072 32.8787 73.0323C34.8086 72.9895 36.7348 73.2241 38.598 73.7289C40.6879 74.2375 42.959 74.9898 45.3972 75.4148C46.5667 75.6046 47.7539 75.6607 48.9361 75.582C50.05 75.5058 51.1499 75.2905 52.2103 74.9411C54.2514 74.3002 56.0975 73.5478 57.7834 73.4572C59.0944 73.3105 60.4197 73.5528 61.594 74.1539C62.0227 74.3623 62.399 74.6647 62.6947 75.0386Z" fill="#293B1A"/>
<path d="M63.4142 86.9234C63.4142 86.9234 63.4142 86.9582 63.3376 86.9931C63.2625 87.0553 63.1807 87.109 63.0938 87.1533C62.7647 87.3351 62.4063 87.4577 62.0349 87.5155C61.4469 87.6053 60.8476 87.5888 60.2654 87.4668C59.5007 87.2963 58.7559 87.0465 58.0432 86.7214C56.2319 85.8656 54.2794 85.3486 52.282 85.1957C51.1076 85.107 49.9269 85.1561 48.764 85.342C47.5138 85.563 46.2784 85.8608 45.0648 86.2337C43.8413 86.621 42.597 86.9396 41.3378 87.1881C40.1575 87.4101 38.9581 87.5151 37.7571 87.5016C35.7237 87.485 33.7051 87.1536 31.773 86.5193C30.4754 86.0913 29.2281 85.5237 28.053 84.8265C27.7311 84.639 27.4195 84.4343 27.1195 84.2135C26.9105 84.0672 26.806 83.9906 26.813 83.9766C26.82 83.9627 27.2797 84.2483 28.1227 84.6733C31.0847 86.3045 34.4104 87.1623 37.792 87.1672C38.9722 87.1653 40.1497 87.0557 41.31 86.8398C42.5559 86.5837 43.7882 86.2652 45.0021 85.8854C46.231 85.5062 47.4828 85.206 48.75 84.9867C49.9392 84.804 51.1457 84.7619 52.3447 84.8614C54.3759 85.0324 56.3565 85.5854 58.1825 86.4915C58.8751 86.8216 59.5984 87.0829 60.3421 87.2717C60.9011 87.402 61.4781 87.4373 62.0488 87.3762C62.5264 87.3038 62.9881 87.1507 63.4142 86.9234Z" fill="#293B1A"/>
<path d="M5.86395 55.6816C5.89878 55.6816 5.97542 55.8837 6.22621 56.1902C6.59388 56.6036 7.05819 56.9195 7.57768 57.1097C8.35823 57.3973 9.17807 57.5641 10.0089 57.6044C11.0633 57.6405 12.1012 57.8769 13.0672 58.301C13.9811 58.8578 14.7292 59.6492 15.2337 60.5929C15.6398 61.3267 16.1058 62.0257 16.627 62.6828C17.1256 63.2614 17.7532 63.7148 18.4591 64.0064C18.2465 64.0107 18.036 63.9629 17.8461 63.8671C17.3153 63.6299 16.8405 63.2833 16.4528 62.85C15.8851 62.2067 15.3855 61.5063 14.962 60.7601C14.4682 59.8835 13.7614 59.1456 12.9069 58.6145C11.9799 58.2056 10.986 57.9695 9.97411 57.9178C9.11636 57.8558 8.27422 57.6559 7.48015 57.3257C6.92606 57.1028 6.44402 56.7316 6.08688 56.2529C5.96592 56.0841 5.88927 55.8877 5.86395 55.6816Z" fill="#293B1A"/>
<path d="M14.4318 69.7467C14.4318 69.7467 14.3064 69.9348 13.979 70.1577C13.5021 70.4632 12.9652 70.6628 12.4046 70.7429C11.5788 70.8602 10.7386 70.8271 9.92454 70.6454C8.94889 70.4019 7.98823 70.1018 7.04743 69.7467C6.12778 69.3975 5.16427 69.1772 4.18426 69.0919C3.39182 69.0468 2.59981 69.1875 1.87144 69.5029C1.20887 69.8035 0.645791 70.2868 0.248276 70.8962C0.282579 70.6911 0.366263 70.4974 0.492102 70.3319C0.811572 69.8625 1.2488 69.4853 1.75997 69.2382C2.5163 68.8637 3.355 68.6863 4.1982 68.7227C5.21457 68.7867 6.21526 69.0052 7.16586 69.3705C8.17598 69.7189 9.11645 70.0672 9.99421 70.2831C10.7709 70.4726 11.5737 70.5315 12.3697 70.4573C13.0993 70.3675 13.8018 70.1254 14.4318 69.7467Z" fill="#293B1A"/>
<path d="M17.2158 77.9801C17.2158 78.0149 17.0277 77.9313 16.7072 77.8965C16.2483 77.8687 15.7918 77.9804 15.3976 78.2169C14.8225 78.5557 14.3431 79.0352 14.0043 79.6102C13.5863 80.272 13.2589 81.0871 12.7504 81.8812C12.2722 82.6498 11.5694 83.2529 10.7371 83.6089C10.0646 83.8942 9.33405 84.016 8.60538 83.9642C8.12241 83.9366 7.64931 83.816 7.21211 83.6089C7.04256 83.547 6.88818 83.4496 6.75929 83.3233C7.36047 83.5394 7.98885 83.6707 8.62628 83.7134C9.3125 83.7241 9.99269 83.5838 10.6187 83.3024C11.3802 82.9574 12.0209 82.392 12.4578 81.6792C12.9454 80.9268 13.2868 80.1118 13.7396 79.436C14.1213 78.8073 14.6715 78.2981 15.3279 77.9661C15.7715 77.7293 16.2818 77.6483 16.7769 77.7362C16.9429 77.7756 17.0947 77.8599 17.2158 77.9801Z" fill="#293B1A"/>
<path d="M22.154 86.2169C22.0899 86.7732 21.9146 87.311 21.6385 87.7983C21.034 89.0126 20.1599 90.0727 19.0829 90.8973C18.0058 91.722 16.7545 92.2894 15.4245 92.5563C14.8804 92.6929 14.3147 92.7213 13.7596 92.6399C13.7596 92.5772 14.3935 92.5563 15.3688 92.3055C16.6318 91.981 17.8164 91.4052 18.852 90.6127C19.8916 89.8157 20.7609 88.8185 21.4086 87.6798C21.9032 86.8021 22.0913 86.196 22.154 86.2169Z" fill="#293B1A"/>
<path d="M79.6925 57.4708C79.7123 57.6786 79.6686 57.8875 79.5671 58.0699C79.3162 58.5803 78.9118 58.9993 78.4107 59.2681C77.6731 59.6692 76.8386 59.8573 76.0003 59.8115C75.0668 59.8115 74.0707 59.6165 73.0396 59.6165C71.2649 59.633 69.5354 60.1787 68.0726 61.1839C66.9441 61.9572 66.4216 62.6468 66.3659 62.5772C66.4536 62.3941 66.5714 62.2269 66.7142 62.0825C67.0736 61.6636 67.4777 61.2851 67.9194 60.954C69.3978 59.847 71.1927 59.2438 73.0396 59.2333C74.1194 59.2333 75.1295 59.4353 76.0073 59.4562C76.7914 59.5147 77.577 59.3657 78.2853 59.0243C78.762 58.7953 79.1615 58.4321 79.4347 57.9794C79.6228 57.7007 79.6646 57.4708 79.6925 57.4708Z" fill="#293B1A"/>
<path d="M85.1661 70.4157C84.9938 70.3046 84.8147 70.2045 84.6297 70.1161C84.1155 69.9204 83.5496 69.9081 83.0274 70.0813C82.2493 70.3817 81.5102 70.7746 80.826 71.2517C79.9317 71.7982 78.9752 72.2355 77.9768 72.5544C76.9598 72.8784 75.8797 72.9525 74.828 72.7703C73.9686 72.6096 73.165 72.2305 72.4943 71.6696C72.0416 71.2952 71.6856 70.8173 71.4563 70.2764C71.3969 70.1297 71.3502 69.9782 71.317 69.8236C71.3047 69.7685 71.3047 69.7114 71.317 69.6564C71.6179 70.3604 72.0839 70.9816 72.6754 71.4676C73.3273 71.9705 74.0929 72.3054 74.9046 72.4429C75.9034 72.5958 76.9241 72.5147 77.8862 72.206C78.8569 71.8939 79.7911 71.4781 80.6728 70.966C81.3865 70.4892 82.1593 70.1075 82.9717 69.8305C83.549 69.6657 84.1669 69.7203 84.7063 69.9838C85.0616 70.1928 85.1661 70.4087 85.1661 70.4157Z" fill="#293B1A"/>
<path d="M75.7489 89.0442C75.7704 88.4152 75.6784 87.7875 75.4773 87.1911C75.2376 86.5618 74.8363 86.0068 74.3139 85.5819C73.6351 85.1061 72.8463 84.8112 72.022 84.725C71.5788 84.6502 71.1413 84.5455 70.7123 84.4116C70.3044 84.2746 69.9193 84.0773 69.5698 83.8264C68.9835 83.4032 68.506 82.8469 68.1765 82.2032C67.9589 81.766 67.8176 81.2948 67.7585 80.81C67.7212 80.6378 67.7212 80.4596 67.7585 80.2875C67.8904 80.905 68.1036 81.5024 68.3925 82.0639C68.7274 82.6529 69.1919 83.1579 69.7509 83.5408C70.4559 83.9827 71.251 84.2612 72.0777 84.3558C72.959 84.4504 73.7987 84.78 74.5089 85.3102C75.068 85.7774 75.4834 86.3933 75.7071 87.0866C75.8617 87.5482 75.9163 88.0374 75.8674 88.5217C75.8715 88.703 75.8308 88.8824 75.7489 89.0442Z" fill="#293B1A"/>
<path d="M17.7183 55.0326C17.6208 55.0326 17.4606 54.6076 17.3561 54.0364C17.2516 53.4651 17.2585 52.9984 17.3561 52.9845C17.4536 52.9705 17.6138 53.4094 17.7183 53.9737C17.8228 54.5379 17.8158 55.0117 17.7183 55.0326Z" fill="white"/>
<path d="M24.2911 45.4666C24.2911 45.5641 23.7965 45.7522 23.1416 45.8776C22.4868 46.003 21.9365 46.0309 21.9156 45.9334C21.8947 45.8358 22.4171 45.6547 23.072 45.5223C23.7268 45.39 24.2702 45.3691 24.2911 45.4666Z" fill="white"/>
<path d="M39.1856 48.4831C39.1159 48.5598 38.677 48.2811 38.1964 47.8631C37.7157 47.4452 37.3883 47.0411 37.4579 46.9645C37.5276 46.8878 37.9595 47.1735 38.4402 47.5914C38.9209 48.0094 39.1856 48.4135 39.1856 48.4831Z" fill="white"/>
<path d="M56.4916 47.5457C56.5683 47.6153 56.1433 48.2075 55.5512 48.8693C54.9591 49.5311 54.4087 50.0117 54.3321 49.9421C54.2555 49.8724 54.6804 49.2872 55.2795 48.6254C55.8786 47.9636 56.422 47.483 56.4916 47.5457Z" fill="white"/>
<path d="M67.501 48.2283C67.4453 48.3119 66.888 48.0123 66.254 47.5665C65.6201 47.1206 65.1603 46.6957 65.223 46.6121C65.2857 46.5285 65.836 46.8281 66.463 47.3087C67.09 47.7894 67.5567 48.1447 67.501 48.2283Z" fill="white"/>
<path d="M33.206 69.8513C32.63 69.826 32.0788 69.6104 31.6385 69.2383C30.8583 68.7088 30.4264 68.0609 30.503 67.9982C30.5796 67.9355 31.1091 68.4371 31.8475 68.9387C32.586 69.4403 33.2408 69.7468 33.206 69.8513Z" fill="white"/>
<path d="M44.9567 68.9056C45.0263 68.9753 44.5596 69.5535 43.9117 70.1874C43.2639 70.8214 42.6856 71.2881 42.616 71.2185C42.5463 71.1488 43.0131 70.5706 43.6609 69.9297C44.3088 69.2888 44.887 68.836 44.9567 68.9056Z" fill="white"/>
<path d="M53.338 70.9006C52.7955 70.776 52.2852 70.5386 51.8403 70.204C51.06 69.7233 50.447 69.2705 50.5306 69.1799C51.0732 69.3046 51.5835 69.5419 52.0284 69.8766C52.8086 70.3572 53.3938 70.8101 53.338 70.9006Z" fill="white"/>
<path d="M61.1396 68.7181C61.2092 68.7947 60.9654 69.1012 60.6101 69.4147C60.2548 69.7282 59.9135 69.8954 59.8438 69.8188C59.7741 69.7422 60.018 69.4356 60.3802 69.1221C60.7425 68.8087 61.0769 68.6206 61.1396 68.7181Z" fill="white"/>
<path d="M57.2975 58.4317C57.2069 58.4317 57.3323 57.7838 57.7294 57.1289C58.1265 56.4741 58.6071 56.0631 58.6768 56.1258C58.7465 56.1885 58.4121 56.6901 58.0429 57.3101C57.6736 57.9301 57.4159 58.4665 57.2975 58.4317Z" fill="white"/>
<path d="M48.3342 56.5154C48.2645 56.5921 47.8675 56.3343 47.4495 55.9442C47.0315 55.5541 46.7528 55.1848 46.8155 55.1082C46.8782 55.0316 47.2753 55.2893 47.7003 55.6795C48.1252 56.0696 48.3969 56.4388 48.3342 56.5154Z" fill="white"/>
<path d="M35.7047 58.7979C35.7744 58.8676 35.4957 59.2438 35.0778 59.6339C34.6598 60.024 34.2627 60.2818 34.193 60.2051C34.1234 60.1285 34.409 59.7593 34.827 59.3692C35.2449 58.979 35.6211 58.7213 35.7047 58.7979Z" fill="white"/>
<path d="M69.7929 56.7763C69.7372 56.8599 69.3053 56.6648 68.8246 56.3305C68.3439 55.9961 68.0095 55.6686 68.0653 55.585C68.121 55.5015 68.5529 55.7035 69.0336 56.0309C69.5143 56.3583 69.8417 56.6857 69.7929 56.7763Z" fill="white"/>
<path d="M74.7124 64.7004C74.7093 65.2246 74.5878 65.7413 74.3571 66.2121C74.0715 67.0132 73.758 67.6053 73.6605 67.6053C73.6669 67.0815 73.7882 66.5655 74.0158 66.0936C74.2805 65.2855 74.587 64.6655 74.7124 64.7004Z" fill="white"/>
<path d="M72.6265 79.4052C72.5359 79.4401 72.2364 78.9176 71.9716 78.2279C71.7069 77.5383 71.5606 76.9531 71.6512 76.9183C71.7418 76.8834 72.0413 77.4059 72.306 78.0956C72.5708 78.7853 72.7379 79.3704 72.6265 79.4052Z" fill="white"/>
<path d="M68.0934 89.5204C67.9889 89.5204 67.9819 88.9561 67.9192 88.2804C67.8565 87.6046 67.7729 87.0613 67.8704 87.0334C67.968 87.0055 68.2187 87.535 68.2814 88.2525C68.3441 88.97 68.1839 89.5204 68.0934 89.5204Z" fill="white"/>
<path d="M57.7206 79.1522C57.7833 79.2218 57.421 79.6607 56.8985 80.1275C56.3761 80.5942 55.9093 80.9147 55.8397 80.8241C55.77 80.7335 56.1392 80.3086 56.6617 79.8418C57.1842 79.3751 57.6509 79.0686 57.7206 79.1522Z" fill="white"/>
<path d="M50.3311 81.2992C50.2545 81.3619 49.8017 80.8743 49.321 80.2125C48.8403 79.5507 48.5268 78.9725 48.6244 78.9098C48.7219 78.8471 49.1538 79.3417 49.6345 80.0035C50.1152 80.6653 50.3938 81.2435 50.3311 81.2992Z" fill="white"/>
<path d="M40.06 79.4716C40.1366 79.5413 39.7674 80.0638 39.231 80.635C38.6946 81.2063 38.2139 81.6243 38.1373 81.5546C38.0607 81.4849 38.4369 80.9624 38.9663 80.3912C39.4957 79.82 39.9904 79.409 40.06 79.4716Z" fill="white"/>
<path d="M32.5836 81.3106C32.5 81.3664 32.1656 80.9971 31.8312 80.4956C31.4968 79.994 31.3018 79.5272 31.3854 79.4715C31.469 79.4158 31.8103 79.785 32.1377 80.2935C32.4652 80.8021 32.6672 81.2549 32.5836 81.3106Z" fill="white"/>
<path d="M32.4211 92.6382C32.3514 92.7079 32.0031 92.478 31.6339 92.1297C31.2647 91.7814 31.0278 91.433 31.0975 91.3634C31.1671 91.2937 31.5224 91.5166 31.8847 91.865C32.2469 92.2133 32.4907 92.5616 32.4211 92.6382Z" fill="white"/>
<path d="M40.6151 91.4805C40.6917 91.5501 40.4618 91.9193 40.0996 92.3094C39.7373 92.6996 39.4029 92.9573 39.3193 92.8946C39.2357 92.8319 39.4795 92.4557 39.8348 92.0656C40.1901 91.6755 40.5802 91.4178 40.6151 91.4805Z" fill="white"/>
<path d="M51.0271 93.6141C50.9435 93.6768 50.3653 93.0498 49.7313 92.2208C49.2948 91.754 48.9519 91.2077 48.7212 90.6116C48.7979 90.5489 49.3761 91.1689 50.017 92.0049C50.448 92.476 50.7902 93.0212 51.0271 93.6141Z" fill="white"/>
<path d="M59.3085 91.4351C59.3782 91.5048 58.8975 92.09 58.2287 92.7309C57.5599 93.3718 56.9608 93.8455 56.8912 93.7758C56.8215 93.7061 57.3092 93.121 57.9779 92.4731C58.6467 91.8252 59.2388 91.3585 59.3085 91.4351Z" fill="white"/>
<path d="M14.105 88.0521C14.0075 88.0521 13.9726 87.4321 14.0353 86.6588C14.098 85.8856 14.2234 85.3143 14.321 85.3213C14.4185 85.3283 14.4533 85.9413 14.3976 86.7146C14.3418 87.4878 14.1816 88.0591 14.105 88.0521Z" fill="white"/>
<path d="M18.5185 85.124C18.4767 85.2145 18.01 85.124 17.4666 84.8593C16.9232 84.5945 16.5261 84.3507 16.5679 84.2601C16.6097 84.1696 17.0765 84.2601 17.6129 84.5249C18.1493 84.7896 18.5603 85.0334 18.5185 85.124Z" fill="white"/>
<path d="M7.79026 77.3532C7.79026 77.4507 7.23993 77.4089 6.61296 77.2556C5.98599 77.1024 5.49137 76.9073 5.51227 76.8098C5.53317 76.7123 6.06261 76.7541 6.69655 76.9073C7.33049 77.0606 7.83903 77.2556 7.79026 77.3532Z" fill="white"/>
<path d="M12.1136 75.5859C12.1799 75.0576 12.3631 74.5506 12.65 74.1021C13.0402 73.3218 13.4233 72.7088 13.5139 72.7715C13.4472 73.3019 13.2641 73.811 12.9775 74.2623C12.5873 75.0565 12.2042 75.6556 12.1136 75.5859Z" fill="white"/>
<path d="M4.48817 61.4481C4.58569 61.4133 4.89221 62.0542 5.34502 62.7787C5.79784 63.5032 6.22279 64.0675 6.15312 64.1371C6.08346 64.2068 5.51222 63.7401 5.0385 62.9668C4.56479 62.1935 4.39064 61.483 4.48817 61.4481Z" fill="white"/>
<path d="M10.6877 64.24C10.6877 64.3445 10.3951 64.4768 10.0607 64.7067C9.72633 64.9366 9.48251 65.1734 9.39892 65.1177C9.31532 65.062 9.44767 64.6788 9.85869 64.4211C10.2697 64.1633 10.6807 64.1424 10.6877 64.24Z" fill="white"/>
<path d="M32.4128 40.8323C32.3222 40.8811 31.9391 40.3377 31.549 39.6202C31.2608 39.2043 31.0724 38.7275 30.9986 38.2269C31.0892 38.1782 31.4793 38.7215 31.8625 39.4391C32.1527 39.8539 32.3412 40.3312 32.4128 40.8323Z" fill="white"/>
<path d="M41.6032 38.5477C41.659 38.6313 41.1016 39.1119 40.3562 39.6205C39.9302 39.9771 39.4343 40.2405 38.9003 40.3937C38.8445 40.3102 39.4019 39.8295 40.1542 39.3209C40.9066 38.8124 41.5475 38.4641 41.6032 38.5477Z" fill="white"/>
<path d="M55.0375 40.1505C53.9089 39.7572 52.8745 39.1333 52.0002 38.3184C52.5839 38.4559 53.1322 38.7146 53.6094 39.0777C54.1512 39.3382 54.6364 39.7027 55.0375 40.1505Z" fill="white"/>
<path d="M61.0595 37.9655C61.157 37.9655 61.1431 38.5715 61.0595 39.2891C60.9759 40.0066 60.7599 40.5778 60.6624 40.5569C60.5649 40.536 60.5788 39.9509 60.6973 39.2333C60.8157 38.5158 60.962 37.9655 61.0595 37.9655Z" fill="white"/>
<path d="M65.4859 41.981C65.4241 42.1287 65.3421 42.267 65.2421 42.392C64.9671 42.7608 64.6464 43.0932 64.2877 43.3813C62.9186 44.4056 61.2462 44.9427 59.5366 44.9069C58.3591 44.887 57.1888 44.7185 56.0535 44.4053C54.8344 44.0918 53.5734 43.646 52.2498 43.1932C50.8934 42.7002 49.4941 42.334 48.07 42.0994C46.5304 41.8916 44.9643 42.0078 43.4722 42.4408C40.4001 43.2907 37.6135 44.8512 34.7225 45.0114C34.0236 45.0542 33.3222 45.0144 32.6326 44.893C31.9883 44.7627 31.3617 44.5569 30.7656 44.2799C29.7134 43.7765 28.7164 43.1648 27.791 42.4547C26.4918 41.4188 25.1128 40.487 23.6669 39.6682C22.615 39.1318 21.9671 38.9716 21.981 38.9716C22.1402 38.9916 22.2967 39.029 22.4478 39.083C22.8885 39.2076 23.3175 39.3708 23.7296 39.5707C25.2131 40.3561 26.6236 41.2723 27.9442 42.3084C28.8647 42.9916 29.852 43.5798 30.891 44.064C31.4677 44.3187 32.0704 44.5102 32.6883 44.6352C33.3483 44.7487 34.0197 44.7814 34.6877 44.7327C37.4742 44.5655 40.2259 43.019 43.3677 42.1482C44.9045 41.6988 46.5189 41.5801 48.1049 41.7999C49.5636 42.0409 50.996 42.4211 52.3822 42.9354C53.7058 43.3952 54.9528 43.848 56.151 44.1684C57.251 44.485 58.3857 44.6652 59.5297 44.7049C61.195 44.7559 62.8323 44.2672 64.1971 43.3116C64.6812 42.9243 65.1143 42.4772 65.4859 41.981Z" fill="#293B1A"/>
<path d="M74.4117 51.5506L74.2445 51.5018L73.7847 51.3276C73.1866 51.1103 72.5745 50.9334 71.9526 50.7982C69.674 50.2854 67.305 50.3332 65.0489 50.9375C64.3056 51.1346 63.5807 51.3956 62.8824 51.7178C62.1858 52.0521 61.4264 52.4701 60.6601 52.8951C59.8732 53.3533 59.0481 53.7425 58.1941 54.0584C57.7413 54.2155 57.2748 54.3298 56.8008 54.3998C56.3054 54.4555 55.8053 54.4555 55.31 54.3998C53.2897 54.149 51.4855 53.0065 49.5279 52.2333C48.5455 51.8203 47.4934 51.5981 46.4279 51.5784C45.3277 51.6044 44.2379 51.797 43.1955 52.1497C41.0568 52.8463 39.0645 53.8494 36.9258 54.3232C34.8728 54.7628 32.7359 54.5883 30.7815 53.8216C29.0399 53.1462 27.3634 52.3138 25.7727 51.3346C24.3929 50.5041 22.962 49.7619 21.4884 49.1123C19.3712 48.1085 16.9865 47.8153 14.6892 48.2764C13.8619 48.4914 13.0725 48.8321 12.3485 49.2865L12.4809 49.175C12.612 49.0717 12.7493 48.9763 12.8919 48.8894C13.4399 48.5516 14.0368 48.3002 14.6613 48.144C15.648 47.8921 16.67 47.8073 17.6847 47.8932C19.029 48.0116 20.3458 48.3432 21.5859 48.8755C23.0778 49.5169 24.5254 50.2569 25.919 51.0908C27.5022 52.0459 29.1667 52.8595 30.8929 53.522C32.7906 54.254 34.8606 54.4162 36.8492 53.9888C38.9391 53.529 40.8966 52.5189 43.0701 51.8222C44.147 51.4524 45.2755 51.255 46.414 51.2371C47.5265 51.2567 48.6245 51.4933 49.6463 51.9337C51.6387 52.7279 53.4221 53.8494 55.3378 54.0933C55.8007 54.1478 56.2683 54.1478 56.7311 54.0933C57.189 54.0359 57.6396 53.9308 58.0756 53.7798C58.9137 53.4716 59.7246 53.0941 60.4999 52.6512C61.2662 52.2402 62.0046 51.8153 62.75 51.4879C63.4646 51.1644 64.2058 50.9034 64.9653 50.7076C67.2654 50.1276 69.6734 50.1276 71.9735 50.7076C72.8198 50.8801 73.6396 51.1635 74.4117 51.5506Z" fill="#293B1A"/>
<path d="M62.2388 65.2067C62.1496 65.2982 62.0489 65.3778 61.9393 65.4436C61.624 65.6432 61.2744 65.7825 60.9082 65.8546C59.5529 66.082 58.1606 65.836 56.9653 65.1579C56.192 64.7818 55.3909 64.2941 54.5062 63.8622C53.5602 63.4072 52.5537 63.0905 51.5176 62.9217C49.115 62.6144 46.6766 62.7465 44.3214 63.3119C41.7926 63.8343 39.3962 64.5031 37.153 64.7957C35.1638 65.1176 33.1308 65.0466 31.1689 64.5867C29.8441 64.2802 28.6012 63.6908 27.5255 62.859C27.2321 62.6354 26.9614 62.3834 26.7174 62.1067C26.6239 62.0175 26.5419 61.9168 26.4736 61.8071C26.4736 61.8071 26.8498 62.1903 27.6091 62.7476C28.6962 63.519 29.9286 64.0617 31.2316 64.3429C33.1632 64.7443 35.1533 64.7773 37.0973 64.4404C39.3126 64.1269 41.695 63.4582 44.2447 62.9287C46.6415 62.3536 49.1245 62.2307 51.5664 62.5665C52.631 62.7483 53.6635 63.0838 54.6316 63.5627C55.5302 64.0224 56.3174 64.517 57.0698 64.9002C58.2129 65.5844 59.5503 65.871 60.8734 65.7153C61.3532 65.6214 61.8145 65.4496 62.2388 65.2067Z" fill="#293B1A"/>
<path d="M62.6947 75.0386C62.0279 74.4756 61.2453 74.0664 60.4025 73.8401C59.5597 73.6137 58.6773 73.5758 57.8182 73.7289C56.209 73.8752 54.4047 74.6137 52.3427 75.2824C51.2602 75.6573 50.134 75.8915 48.9918 75.9791C47.7679 76.0467 46.5403 75.9696 45.3345 75.7492C42.8614 75.3173 40.5974 74.551 38.5144 74.0285C36.6827 73.5281 34.7914 73.2797 32.8926 73.2901C31.6133 73.3065 30.3478 73.5567 29.1586 74.0285C28.3227 74.3838 27.9047 74.6764 27.8838 74.6415C27.8629 74.6067 27.9813 74.5579 28.1833 74.4186C28.4746 74.2227 28.7796 74.0481 29.0959 73.8961C30.2888 73.3654 31.5736 73.072 32.8787 73.0323C34.8086 72.9895 36.7348 73.2241 38.598 73.7289C40.6879 74.2375 42.959 74.9898 45.3972 75.4148C46.5667 75.6046 47.7539 75.6607 48.9361 75.582C50.05 75.5058 51.1499 75.2905 52.2103 74.9411C54.2514 74.3002 56.0975 73.5478 57.7834 73.4572C59.0944 73.3105 60.4197 73.5528 61.594 74.1539C62.0227 74.3623 62.399 74.6647 62.6947 75.0386Z" fill="#293B1A"/>
<path d="M63.4142 86.9234C63.4142 86.9234 63.4142 86.9582 63.3376 86.9931C63.2625 87.0553 63.1807 87.109 63.0938 87.1533C62.7647 87.3351 62.4063 87.4577 62.0349 87.5155C61.4469 87.6053 60.8476 87.5888 60.2654 87.4668C59.5007 87.2963 58.7559 87.0465 58.0432 86.7214C56.2319 85.8656 54.2794 85.3486 52.282 85.1957C51.1076 85.107 49.9269 85.1561 48.764 85.342C47.5138 85.563 46.2784 85.8608 45.0648 86.2337C43.8413 86.621 42.597 86.9396 41.3378 87.1881C40.1575 87.4101 38.9581 87.5151 37.7571 87.5016C35.7237 87.485 33.7051 87.1536 31.773 86.5193C30.4754 86.0913 29.2281 85.5237 28.053 84.8265C27.7311 84.639 27.4195 84.4343 27.1195 84.2135C26.9105 84.0672 26.806 83.9906 26.813 83.9766C26.82 83.9627 27.2797 84.2483 28.1227 84.6733C31.0847 86.3045 34.4104 87.1623 37.792 87.1672C38.9722 87.1653 40.1497 87.0557 41.31 86.8398C42.5559 86.5837 43.7882 86.2652 45.0021 85.8854C46.231 85.5062 47.4828 85.206 48.75 84.9867C49.9392 84.804 51.1457 84.7619 52.3447 84.8614C54.3759 85.0324 56.3565 85.5854 58.1825 86.4915C58.8751 86.8216 59.5984 87.0829 60.3421 87.2717C60.9011 87.402 61.4781 87.4373 62.0488 87.3762C62.5264 87.3038 62.9881 87.1507 63.4142 86.9234Z" fill="#293B1A"/>
<path d="M5.86395 55.6816C5.89878 55.6816 5.97542 55.8837 6.22621 56.1902C6.59388 56.6036 7.05819 56.9195 7.57768 57.1097C8.35823 57.3973 9.17807 57.5641 10.0089 57.6044C11.0633 57.6405 12.1012 57.8769 13.0672 58.301C13.9811 58.8578 14.7292 59.6492 15.2337 60.5929C15.6398 61.3267 16.1058 62.0257 16.627 62.6828C17.1256 63.2614 17.7532 63.7148 18.4591 64.0064C18.2465 64.0107 18.036 63.9629 17.8461 63.8671C17.3153 63.6299 16.8405 63.2833 16.4528 62.85C15.8851 62.2067 15.3855 61.5063 14.962 60.7601C14.4682 59.8835 13.7614 59.1456 12.9069 58.6145C11.9799 58.2056 10.986 57.9695 9.97411 57.9178C9.11636 57.8558 8.27422 57.6559 7.48015 57.3257C6.92606 57.1028 6.44402 56.7316 6.08688 56.2529C5.96592 56.0841 5.88927 55.8877 5.86395 55.6816Z" fill="#293B1A"/>
<path d="M14.4318 69.7467C14.4318 69.7467 14.3064 69.9348 13.979 70.1577C13.5021 70.4632 12.9652 70.6628 12.4046 70.7429C11.5788 70.8602 10.7386 70.8271 9.92454 70.6454C8.94889 70.4019 7.98823 70.1018 7.04743 69.7467C6.12778 69.3975 5.16427 69.1772 4.18426 69.0919C3.39182 69.0468 2.59981 69.1875 1.87144 69.5029C1.20887 69.8035 0.645791 70.2868 0.248276 70.8962C0.282579 70.6911 0.366263 70.4974 0.492102 70.3319C0.811572 69.8625 1.2488 69.4853 1.75997 69.2382C2.5163 68.8637 3.355 68.6863 4.1982 68.7227C5.21457 68.7867 6.21526 69.0052 7.16586 69.3705C8.17598 69.7189 9.11645 70.0672 9.99421 70.2831C10.7709 70.4726 11.5737 70.5315 12.3697 70.4573C13.0993 70.3675 13.8018 70.1254 14.4318 69.7467Z" fill="#293B1A"/>
<path d="M17.2158 77.9801C17.2158 78.0149 17.0277 77.9313 16.7072 77.8965C16.2483 77.8687 15.7918 77.9804 15.3976 78.2169C14.8225 78.5557 14.3431 79.0352 14.0043 79.6102C13.5863 80.272 13.2589 81.0871 12.7504 81.8812C12.2722 82.6498 11.5694 83.2529 10.7371 83.6089C10.0646 83.8942 9.33405 84.016 8.60538 83.9642C8.12241 83.9366 7.64931 83.816 7.21211 83.6089C7.04256 83.547 6.88818 83.4496 6.75929 83.3233C7.36047 83.5394 7.98885 83.6707 8.62628 83.7134C9.3125 83.7241 9.99269 83.5838 10.6187 83.3024C11.3802 82.9574 12.0209 82.392 12.4578 81.6792C12.9454 80.9268 13.2868 80.1118 13.7396 79.436C14.1213 78.8073 14.6715 78.2981 15.3279 77.9661C15.7715 77.7293 16.2818 77.6483 16.7769 77.7362C16.9429 77.7756 17.0947 77.8599 17.2158 77.9801Z" fill="#293B1A"/>
<path d="M22.154 86.2169C22.0899 86.7732 21.9146 87.311 21.6385 87.7983C21.034 89.0126 20.1599 90.0727 19.0829 90.8973C18.0058 91.722 16.7545 92.2894 15.4245 92.5563C14.8804 92.6929 14.3147 92.7213 13.7596 92.6399C13.7596 92.5772 14.3935 92.5563 15.3688 92.3055C16.6318 91.981 17.8164 91.4052 18.852 90.6127C19.8916 89.8157 20.7609 88.8185 21.4086 87.6798C21.9032 86.8021 22.0913 86.196 22.154 86.2169Z" fill="#293B1A"/>
<path d="M79.6925 57.4708C79.7123 57.6786 79.6686 57.8875 79.5671 58.0699C79.3162 58.5803 78.9118 58.9993 78.4107 59.2681C77.6731 59.6692 76.8386 59.8573 76.0003 59.8115C75.0668 59.8115 74.0707 59.6165 73.0396 59.6165C71.2649 59.633 69.5354 60.1787 68.0726 61.1839C66.9441 61.9572 66.4216 62.6468 66.3659 62.5772C66.4536 62.3941 66.5714 62.2269 66.7142 62.0825C67.0736 61.6636 67.4777 61.2851 67.9194 60.954C69.3978 59.847 71.1927 59.2438 73.0396 59.2333C74.1194 59.2333 75.1295 59.4353 76.0073 59.4562C76.7914 59.5147 77.577 59.3657 78.2853 59.0243C78.762 58.7953 79.1615 58.4321 79.4347 57.9794C79.6228 57.7007 79.6646 57.4708 79.6925 57.4708Z" fill="#293B1A"/>
<path d="M85.1661 70.4157C84.9938 70.3046 84.8147 70.2045 84.6297 70.1161C84.1155 69.9204 83.5496 69.9081 83.0274 70.0813C82.2493 70.3817 81.5102 70.7746 80.826 71.2517C79.9317 71.7982 78.9752 72.2355 77.9768 72.5544C76.9598 72.8784 75.8797 72.9525 74.828 72.7703C73.9686 72.6096 73.165 72.2305 72.4943 71.6696C72.0416 71.2952 71.6856 70.8173 71.4563 70.2764C71.3969 70.1297 71.3502 69.9782 71.317 69.8236C71.3047 69.7685 71.3047 69.7114 71.317 69.6564C71.6179 70.3604 72.0839 70.9816 72.6754 71.4676C73.3273 71.9705 74.0929 72.3054 74.9046 72.4429C75.9034 72.5958 76.9241 72.5147 77.8862 72.206C78.8569 71.8939 79.7911 71.4781 80.6728 70.966C81.3865 70.4892 82.1593 70.1075 82.9717 69.8305C83.549 69.6657 84.1669 69.7203 84.7063 69.9838C85.0616 70.1928 85.1661 70.4087 85.1661 70.4157Z" fill="#293B1A"/>
<path d="M75.7489 89.0442C75.7704 88.4152 75.6784 87.7875 75.4773 87.1911C75.2376 86.5618 74.8363 86.0068 74.3139 85.5819C73.6351 85.1061 72.8463 84.8112 72.022 84.725C71.5788 84.6502 71.1413 84.5455 70.7123 84.4116C70.3044 84.2746 69.9193 84.0773 69.5698 83.8264C68.9835 83.4032 68.506 82.8469 68.1765 82.2032C67.9589 81.766 67.8176 81.2948 67.7585 80.81C67.7212 80.6378 67.7212 80.4596 67.7585 80.2875C67.8904 80.905 68.1036 81.5024 68.3925 82.0639C68.7274 82.6529 69.1919 83.1579 69.7509 83.5408C70.4559 83.9827 71.251 84.2612 72.0777 84.3558C72.959 84.4504 73.7987 84.78 74.5089 85.3102C75.068 85.7774 75.4834 86.3933 75.7071 87.0866C75.8617 87.5482 75.9163 88.0374 75.8674 88.5217C75.8715 88.703 75.8308 88.8824 75.7489 89.0442Z" fill="#293B1A"/>
<path d="M17.7183 55.0326C17.6208 55.0326 17.4606 54.6076 17.3561 54.0364C17.2516 53.4651 17.2585 52.9984 17.3561 52.9845C17.4536 52.9705 17.6138 53.4094 17.7183 53.9737C17.8228 54.5379 17.8158 55.0117 17.7183 55.0326Z" fill="white"/>
<path d="M24.2911 45.4666C24.2911 45.5641 23.7965 45.7522 23.1416 45.8776C22.4868 46.003 21.9365 46.0309 21.9156 45.9334C21.8947 45.8358 22.4171 45.6547 23.072 45.5223C23.7268 45.39 24.2702 45.3691 24.2911 45.4666Z" fill="white"/>
<path d="M39.1856 48.4831C39.1159 48.5598 38.677 48.2811 38.1964 47.8631C37.7157 47.4452 37.3883 47.0411 37.4579 46.9645C37.5276 46.8878 37.9595 47.1735 38.4402 47.5914C38.9209 48.0094 39.1856 48.4135 39.1856 48.4831Z" fill="white"/>
<path d="M56.4916 47.5457C56.5683 47.6153 56.1433 48.2075 55.5512 48.8693C54.9591 49.5311 54.4087 50.0117 54.3321 49.9421C54.2555 49.8724 54.6804 49.2872 55.2795 48.6254C55.8786 47.9636 56.422 47.483 56.4916 47.5457Z" fill="white"/>
<path d="M67.501 48.2283C67.4453 48.3119 66.888 48.0123 66.254 47.5665C65.6201 47.1206 65.1603 46.6957 65.223 46.6121C65.2857 46.5285 65.836 46.8281 66.463 47.3087C67.09 47.7894 67.5567 48.1447 67.501 48.2283Z" fill="white"/>
<path d="M33.206 69.8513C32.63 69.826 32.0788 69.6104 31.6385 69.2383C30.8583 68.7088 30.4264 68.0609 30.503 67.9982C30.5796 67.9355 31.1091 68.4371 31.8475 68.9387C32.586 69.4403 33.2408 69.7468 33.206 69.8513Z" fill="white"/>
<path d="M44.9567 68.9056C45.0263 68.9753 44.5596 69.5535 43.9117 70.1874C43.2639 70.8214 42.6856 71.2881 42.616 71.2185C42.5463 71.1488 43.0131 70.5706 43.6609 69.9297C44.3088 69.2888 44.887 68.836 44.9567 68.9056Z" fill="white"/>
<path d="M53.338 70.9006C52.7955 70.776 52.2852 70.5386 51.8403 70.204C51.06 69.7233 50.447 69.2705 50.5306 69.1799C51.0732 69.3046 51.5835 69.5419 52.0284 69.8766C52.8086 70.3572 53.3938 70.8101 53.338 70.9006Z" fill="white"/>
<path d="M61.1396 68.7181C61.2092 68.7947 60.9654 69.1012 60.6101 69.4147C60.2548 69.7282 59.9135 69.8954 59.8438 69.8188C59.7741 69.7422 60.018 69.4356 60.3802 69.1221C60.7425 68.8087 61.0769 68.6206 61.1396 68.7181Z" fill="white"/>
<path d="M57.2975 58.4317C57.2069 58.4317 57.3323 57.7838 57.7294 57.1289C58.1265 56.4741 58.6071 56.0631 58.6768 56.1258C58.7465 56.1885 58.4121 56.6901 58.0429 57.3101C57.6736 57.9301 57.4159 58.4665 57.2975 58.4317Z" fill="white"/>
<path d="M48.3342 56.5154C48.2645 56.5921 47.8675 56.3343 47.4495 55.9442C47.0315 55.5541 46.7528 55.1848 46.8155 55.1082C46.8782 55.0316 47.2753 55.2893 47.7003 55.6795C48.1252 56.0696 48.3969 56.4388 48.3342 56.5154Z" fill="white"/>
<path d="M35.7047 58.7979C35.7744 58.8676 35.4957 59.2438 35.0778 59.6339C34.6598 60.024 34.2627 60.2818 34.193 60.2051C34.1234 60.1285 34.409 59.7593 34.827 59.3692C35.2449 58.979 35.6211 58.7213 35.7047 58.7979Z" fill="white"/>
<path d="M69.7929 56.7763C69.7372 56.8599 69.3053 56.6648 68.8246 56.3305C68.3439 55.9961 68.0095 55.6686 68.0653 55.585C68.121 55.5015 68.5529 55.7035 69.0336 56.0309C69.5143 56.3583 69.8417 56.6857 69.7929 56.7763Z" fill="white"/>
<path d="M74.7124 64.7004C74.7093 65.2246 74.5878 65.7413 74.3571 66.2121C74.0715 67.0132 73.758 67.6053 73.6605 67.6053C73.6669 67.0815 73.7882 66.5655 74.0158 66.0936C74.2805 65.2855 74.587 64.6655 74.7124 64.7004Z" fill="white"/>
<path d="M72.6265 79.4052C72.5359 79.4401 72.2364 78.9176 71.9716 78.2279C71.7069 77.5383 71.5606 76.9531 71.6512 76.9183C71.7418 76.8834 72.0413 77.4059 72.306 78.0956C72.5708 78.7853 72.7379 79.3704 72.6265 79.4052Z" fill="white"/>
<path d="M68.0934 89.5204C67.9889 89.5204 67.9819 88.9561 67.9192 88.2804C67.8565 87.6046 67.7729 87.0613 67.8704 87.0334C67.968 87.0055 68.2187 87.535 68.2814 88.2525C68.3441 88.97 68.1839 89.5204 68.0934 89.5204Z" fill="white"/>
<path d="M57.7206 79.1522C57.7833 79.2218 57.421 79.6607 56.8985 80.1275C56.3761 80.5942 55.9093 80.9147 55.8397 80.8241C55.77 80.7335 56.1392 80.3086 56.6617 79.8418C57.1842 79.3751 57.6509 79.0686 57.7206 79.1522Z" fill="white"/>
<path d="M50.3311 81.2992C50.2545 81.3619 49.8017 80.8743 49.321 80.2125C48.8403 79.5507 48.5268 78.9725 48.6244 78.9098C48.7219 78.8471 49.1538 79.3417 49.6345 80.0035C50.1152 80.6653 50.3938 81.2435 50.3311 81.2992Z" fill="white"/>
<path d="M40.06 79.4716C40.1366 79.5413 39.7674 80.0638 39.231 80.635C38.6946 81.2063 38.2139 81.6243 38.1373 81.5546C38.0607 81.4849 38.4369 80.9624 38.9663 80.3912C39.4957 79.82 39.9904 79.409 40.06 79.4716Z" fill="white"/>
<path d="M32.5836 81.3106C32.5 81.3664 32.1656 80.9971 31.8312 80.4956C31.4968 79.994 31.3018 79.5272 31.3854 79.4715C31.469 79.4158 31.8103 79.785 32.1377 80.2935C32.4652 80.8021 32.6672 81.2549 32.5836 81.3106Z" fill="white"/>
<path d="M32.4211 92.6382C32.3514 92.7079 32.0031 92.478 31.6339 92.1297C31.2647 91.7814 31.0278 91.433 31.0975 91.3634C31.1671 91.2937 31.5224 91.5166 31.8847 91.865C32.2469 92.2133 32.4907 92.5616 32.4211 92.6382Z" fill="white"/>
<path d="M40.6151 91.4805C40.6917 91.5501 40.4618 91.9193 40.0996 92.3094C39.7373 92.6996 39.4029 92.9573 39.3193 92.8946C39.2357 92.8319 39.4795 92.4557 39.8348 92.0656C40.1901 91.6755 40.5802 91.4178 40.6151 91.4805Z" fill="white"/>
<path d="M51.0271 93.6141C50.9435 93.6768 50.3653 93.0498 49.7313 92.2208C49.2948 91.754 48.9519 91.2077 48.7212 90.6116C48.7979 90.5489 49.3761 91.1689 50.017 92.0049C50.448 92.476 50.7902 93.0212 51.0271 93.6141Z" fill="white"/>
<path d="M59.3085 91.4351C59.3782 91.5048 58.8975 92.09 58.2287 92.7309C57.5599 93.3718 56.9608 93.8455 56.8912 93.7758C56.8215 93.7061 57.3092 93.121 57.9779 92.4731C58.6467 91.8252 59.2388 91.3585 59.3085 91.4351Z" fill="white"/>
<path d="M14.105 88.0521C14.0075 88.0521 13.9726 87.4321 14.0353 86.6588C14.098 85.8856 14.2234 85.3143 14.321 85.3213C14.4185 85.3283 14.4533 85.9413 14.3976 86.7146C14.3418 87.4878 14.1816 88.0591 14.105 88.0521Z" fill="white"/>
<path d="M18.5185 85.124C18.4767 85.2145 18.01 85.124 17.4666 84.8593C16.9232 84.5945 16.5261 84.3507 16.5679 84.2601C16.6097 84.1696 17.0765 84.2601 17.6129 84.5249C18.1493 84.7896 18.5603 85.0334 18.5185 85.124Z" fill="white"/>
<path d="M7.79026 77.3532C7.79026 77.4507 7.23993 77.4089 6.61296 77.2556C5.98599 77.1024 5.49137 76.9073 5.51227 76.8098C5.53317 76.7123 6.06261 76.7541 6.69655 76.9073C7.33049 77.0606 7.83903 77.2556 7.79026 77.3532Z" fill="white"/>
<path d="M12.1136 75.5859C12.1799 75.0576 12.3631 74.5506 12.65 74.1021C13.0402 73.3218 13.4233 72.7088 13.5139 72.7715C13.4472 73.3019 13.2641 73.811 12.9775 74.2623C12.5873 75.0565 12.2042 75.6556 12.1136 75.5859Z" fill="white"/>
<path d="M4.48817 61.4481C4.58569 61.4133 4.89221 62.0542 5.34502 62.7787C5.79784 63.5032 6.22279 64.0675 6.15312 64.1371C6.08346 64.2068 5.51222 63.7401 5.0385 62.9668C4.56479 62.1935 4.39064 61.483 4.48817 61.4481Z" fill="white"/>
<path d="M10.6877 64.24C10.6877 64.3445 10.3951 64.4768 10.0607 64.7067C9.72633 64.9366 9.48251 65.1734 9.39892 65.1177C9.31532 65.062 9.44767 64.6788 9.85869 64.4211C10.2697 64.1633 10.6807 64.1424 10.6877 64.24Z" fill="white"/>
<path d="M32.4128 40.8323C32.3222 40.8811 31.9391 40.3377 31.549 39.6202C31.2608 39.2043 31.0724 38.7275 30.9986 38.2269C31.0892 38.1782 31.4793 38.7215 31.8625 39.4391C32.1527 39.8539 32.3412 40.3312 32.4128 40.8323Z" fill="white"/>
<path d="M41.6032 38.5477C41.659 38.6313 41.1016 39.1119 40.3562 39.6205C39.9302 39.9771 39.4343 40.2405 38.9003 40.3937C38.8445 40.3102 39.4019 39.8295 40.1542 39.3209C40.9066 38.8124 41.5475 38.4641 41.6032 38.5477Z" fill="white"/>
<path d="M55.0375 40.1505C53.9089 39.7572 52.8745 39.1333 52.0002 38.3184C52.5839 38.4559 53.1322 38.7146 53.6094 39.0777C54.1512 39.3382 54.6364 39.7027 55.0375 40.1505Z" fill="white"/>
<path d="M61.0595 37.9655C61.157 37.9655 61.1431 38.5715 61.0595 39.2891C60.9759 40.0066 60.7599 40.5778 60.6624 40.5569C60.5649 40.536 60.5788 39.9509 60.6973 39.2333C60.8157 38.5158 60.962 37.9655 61.0595 37.9655Z" fill="white"/>
<path d="M23.5225 91.8396C25.2481 93.064 26.8975 94.3924 28.4616 95.8174C29.9454 97.1619 27.0683 105.187 25.4452 103.78C23.822 102.373 19.4402 96.8136 19.4402 96.8136L23.5225 91.8396Z" fill="#B78876"/>
<path d="M25.6806 103.919C25.6806 103.919 21.1246 103.418 21.25 102.477C21.4544 101.702 21.8386 100.986 22.3715 100.387L25.6806 103.919Z" fill="#A36957"/>
</svg>
